<svg width="89" height="72" viewBox="0 0 89 72" fill="none" xmlns="http://www.w3.org/2000/svg">
<path d="M7.1403 4.51672C7.27835 3.98197 7.82377 3.66038 8.35852 3.79844L17.0728 6.04816C17.6076 6.18622 17.9291 6.73163 17.7911 7.26639C17.653 7.80114 17.1076 8.12272 16.5729 7.98467L8.82684 5.98491L6.82708 13.7309C6.68902 14.2657 6.14361 14.5873 5.60886 14.4492C5.0741 14.3112 4.75252 13.7658 4.89058 13.231L7.1403 4.51672ZM85.5284 61.981C85.3108 62.957 85.3107 62.957 85.3107 62.957C85.3107 62.957 85.3106 62.9569 85.3106 62.9569C85.3105 62.9569 85.3105 62.9569 85.3104 62.9569C85.3102 62.9569 85.31 62.9568 85.3097 62.9568C85.3092 62.9566 85.3086 62.9565 85.3077 62.9563C85.306 62.9559 85.3037 62.9554 85.3007 62.9547C85.2946 62.9533 85.2859 62.9514 85.2745 62.9488C85.2517 62.9436 85.2183 62.936 85.1746 62.9258C85.0872 62.9056 84.9585 62.8754 84.7907 62.835C84.4551 62.7541 83.9631 62.6324 83.3321 62.4679L83.8367 60.5326C84.455 60.6938 84.935 60.8125 85.2591 60.8906C85.4211 60.9296 85.5442 60.9585 85.6261 60.9775C85.6671 60.987 85.6977 60.994 85.7178 60.9985C85.7279 61.0008 85.7353 61.0025 85.74 61.0036C85.7424 61.0041 85.7441 61.0045 85.7451 61.0047C85.7456 61.0048 85.7459 61.0049 85.7461 61.0049C85.7462 61.005 85.7463 61.005 85.7463 61.005C85.7463 61.005 85.7462 61.005 85.7462 61.005C85.7462 61.005 85.7462 61.005 85.7462 61.005C85.7462 61.0049 85.7461 61.0049 85.5284 61.981ZM79.4124 61.372C78.2538 61.0281 76.9521 60.6253 75.5328 60.1607L76.1551 58.2599C77.5556 58.7185 78.8395 59.1157 79.9814 59.4546L79.4124 61.372ZM71.6895 58.8451C70.473 58.4106 69.2008 57.9387 67.8842 57.4284L68.6071 55.5636C69.9062 56.0672 71.1617 56.5328 72.3623 56.9617L71.6895 58.8451ZM64.1154 55.908C62.8976 55.397 61.6536 54.8555 60.3909 54.2825L61.2173 52.4612C62.4617 53.0259 63.6882 53.5598 64.8892 54.0637L64.1154 55.908ZM56.7154 52.5476C55.5164 51.959 54.3073 51.3425 53.0944 50.6974L54.0335 48.9316C55.2265 49.566 56.4162 50.1727 57.5967 50.7523L56.7154 52.5476ZM49.5351 48.7249C48.369 48.0514 47.2045 47.3507 46.047 46.6224L47.1122 44.9297C48.2472 45.6439 49.39 46.3315 50.5354 46.993L49.5351 48.7249ZM42.642 44.3816C42.0831 43.9968 41.5272 43.6052 40.9749 43.2066L42.1454 41.5848C42.6854 41.9746 43.2292 42.3577 43.7762 42.7344L42.642 44.3816ZM40.9749 43.2066C40.3979 42.7901 39.826 42.3658 39.2595 41.9346L40.4709 40.3432C41.0243 40.7645 41.5825 41.1786 42.1454 41.5848L40.9749 43.2066ZM35.9264 39.2702C34.8332 38.3547 33.7629 37.4174 32.7169 36.465L34.0635 34.9862C35.0902 35.9211 36.1398 36.8401 37.2105 37.7369L35.9264 39.2702ZM29.623 33.5386C28.5998 32.5348 27.604 31.5218 26.6371 30.5068L28.0853 29.1274C29.0375 30.127 30.0175 31.1238 31.0236 32.111L29.623 33.5386ZM23.7528 27.3821C22.7878 26.3041 21.8576 25.232 20.9643 24.1743L22.4922 22.8838C23.3738 23.9276 24.2915 24.9853 25.243 26.0482L23.7528 27.3821ZM18.2676 20.8918C17.3486 19.7421 16.4793 18.6223 15.6628 17.5448L17.2569 16.3369C18.0636 17.4015 18.9222 18.5076 19.8298 19.6431L18.2676 20.8918ZM13.1366 14.121C12.2274 12.8552 11.414 11.6851 10.7032 10.6382L12.3578 9.51468C13.0594 10.548 13.8628 11.7037 14.761 12.9543L13.1366 14.121ZM8.36688 7.08582C8.00221 6.51113 7.72351 6.06042 7.53538 5.75236C7.44131 5.59832 7.36987 5.47994 7.32164 5.39953C7.29753 5.35933 7.27921 5.32863 7.26677 5.30771C7.26055 5.29725 7.2558 5.28923 7.25252 5.2837C7.25089 5.28094 7.24962 5.27879 7.24872 5.27727C7.24827 5.27651 7.24791 5.27591 7.24765 5.27546C7.24752 5.27524 7.24741 5.27506 7.24732 5.27491C7.24728 5.27484 7.24724 5.27477 7.24721 5.27472C7.2472 5.27469 7.24718 5.27466 7.24717 5.27465C7.24716 5.27462 7.24714 5.27459 8.10855 4.76669C8.96997 4.25879 8.96995 4.25876 8.96994 4.25874C8.96994 4.25874 8.96993 4.25872 8.96992 4.25872C8.96992 4.2587 8.96992 4.2587 8.96992 4.25871C8.96992 4.25872 8.96996 4.25877 8.97001 4.25886C8.97012 4.25904 8.97032 4.25938 8.97061 4.25987C8.97119 4.26086 8.97215 4.26247 8.97347 4.2647C8.97611 4.26916 8.98022 4.2761 8.9858 4.28548C8.99695 4.30423 9.01395 4.33275 9.03674 4.37074C9.08232 4.44671 9.15101 4.56056 9.24225 4.70996C9.42473 5.00877 9.69737 5.44973 10.0556 6.01424L8.36688 7.08582Z" fill="#CED2DC"/>
</svg>
