<svg width="20" height="20" viewBox="0 0 20 20" fill="none" xmlns="http://www.w3.org/2000/svg">
<path d="M10 2C5.59135 2 2 5.59135 2 10C2 14.4087 5.59135 18 10 18C14.4087 18 18 14.4087 18 10C18 5.59135 14.4087 2 10 2ZM10 3.23077C13.7452 3.23077 16.7692 6.25481 16.7692 10C16.7692 13.7452 13.7452 16.7692 10 16.7692C6.25481 16.7692 3.23077 13.7452 3.23077 10C3.23077 6.25481 6.25481 3.23077 10 3.23077ZM7.53846 6.66827L6.66827 7.53846L7.10577 7.97115L9.12981 10L7.10577 12.0288L6.66827 12.4615L7.53846 13.3317L7.97115 12.8942L10 10.8702L12.0288 12.8942L12.4615 13.3317L13.3317 12.4615L12.8942 12.0288L10.8702 10L12.8942 7.97115L13.3317 7.53846L12.4615 6.66827L12.0288 7.10577L10 9.12981L7.97115 7.10577L7.53846 6.66827Z" fill="black"/>
</svg>
