<svg width="20" height="20" viewBox="0 0 20 20" fill="none" xmlns="http://www.w3.org/2000/svg">
<path d="M10 2C5.59135 2 2 5.59135 2 10C2 14.4087 5.59135 18 10 18C14.4087 18 18 14.4087 18 10C18 5.59135 14.4087 2 10 2ZM10 3.23077C13.7452 3.23077 16.7692 6.25481 16.7692 10C16.7692 13.7452 13.7452 16.7692 10 16.7692C6.25481 16.7692 3.23077 13.7452 3.23077 10C3.23077 6.25481 6.25481 3.23077 10 3.23077ZM9.38462 5.69231V6.92308H10.6154V5.69231H9.38462ZM9.38462 8.15385V14.3077H10.6154V8.15385H9.38462Z" fill="#26272B"/>
</svg>
