<svg width="20" height="20" viewBox="0 0 20 20" fill="none" xmlns="http://www.w3.org/2000/svg">
<path d="M10.2188 2.00326C5.8106 1.87827 2.12824 5.36833 2.00326 9.77658C1.87827 14.1848 5.36833 17.872 9.77658 17.997C14.1848 18.1172 17.872 14.6319 17.997 10.2188C18.021 9.29586 17.8816 8.40651 17.6124 7.57486L16.5981 8.5315C16.7183 9.06511 16.7807 9.61794 16.7663 10.19C16.6606 13.9204 13.5407 16.8673 9.81023 16.7663C6.0798 16.6606 3.12815 13.5407 3.2291 9.81023C3.33486 6.0798 6.45477 3.12815 10.1852 3.2291C11.4062 3.26756 12.5408 3.62811 13.5166 4.22901L14.4396 3.35409C13.2282 2.54648 11.786 2.04652 10.2188 2.00326ZM16.151 4.26266L8.76706 11.6466L6.7384 9.62275L6.30575 9.18529L5.43563 10.0554L5.87309 10.4881L8.76706 13.3868L17.0211 5.13278L16.151 4.26266Z" fill="#26272B"/>
</svg>
