<svg width="20" height="20" viewBox="0 0 20 20" fill="none" xmlns="http://www.w3.org/2000/svg">
<path d="M10 2C5.59135 2 2 5.59135 2 10C2 14.4087 5.59135 18 10 18C14.4087 18 18 14.4087 18 10C18 5.59135 14.4087 2 10 2ZM10 3.23077C13.7452 3.23077 16.7692 6.25481 16.7692 10C16.7692 13.7452 13.7452 16.7692 10 16.7692C6.25481 16.7692 3.23077 13.7452 3.23077 10C3.23077 6.25481 6.25481 3.23077 10 3.23077ZM6.92308 5.69231V14.3077H8.15385V5.69231H6.92308ZM11.8462 5.69231V14.3077H13.0769V5.69231H11.8462Z" fill="#26272B"/>
</svg>
