<svg width="20" height="20" viewBox="0 0 20 20" fill="none" xmlns="http://www.w3.org/2000/svg">
<path d="M8.21289 1.25L7.91016 2.86133C6.74805 3.20312 5.71289 3.80859 4.86328 4.61914L3.31543 4.07715L1.52832 7.17285L2.76367 8.23242C2.62207 8.80371 2.5 9.38477 2.5 10C2.5 10.6152 2.62207 11.1963 2.76367 11.7676L1.52832 12.8271L3.31543 15.9229L4.8584 15.376C5.71289 16.1963 6.74805 16.7969 7.91016 17.1436L8.21289 18.75H11.7871L12.0898 17.1436C13.252 16.7969 14.2871 16.1914 15.1367 15.376L16.6797 15.9229L18.4717 12.8271L17.2314 11.7676C17.373 11.1963 17.5 10.6152 17.5 10C17.5 9.38477 17.3779 8.80371 17.2363 8.23242L18.4717 7.17285L16.6846 4.07715L15.1416 4.61914C14.2871 3.80371 13.252 3.20312 12.0898 2.86133L11.7871 1.25H8.21289ZM9.24805 2.5H10.752L10.9961 3.81836L11.3965 3.91602C12.6367 4.19922 13.7305 4.84863 14.5703 5.74707L14.8486 6.04492L16.1182 5.60059L16.8701 6.89941L15.8545 7.77344L15.9766 8.16406C16.1523 8.74023 16.25 9.36035 16.25 10C16.25 10.6396 16.1523 11.2549 15.9766 11.8359L15.8545 12.2266L16.8701 13.1006L16.1182 14.3994L14.8486 13.9502L14.5703 14.2529C13.7305 15.1514 12.6367 15.8008 11.3965 16.0889L10.9961 16.1768L10.752 17.5H9.24805L9.00391 16.1768L8.60352 16.0889C7.36328 15.8008 6.26953 15.1514 5.42969 14.2529L5.14649 13.9502L3.87695 14.3994L3.12988 13.1006L4.14551 12.2266L4.02344 11.8359C3.84766 11.2598 3.75 10.6396 3.75 10C3.75 9.36035 3.84766 8.74023 4.02344 8.16406L4.14551 7.77344L3.12988 6.89941L3.87695 5.60059L5.15137 6.04492L5.42969 5.74707C6.26953 4.84863 7.36328 4.19922 8.60352 3.91602L9.00391 3.81836L9.24805 2.5ZM10 6.25C7.93457 6.25 6.25 7.93457 6.25 10C6.25 12.0654 7.93457 13.75 10 13.75C12.0654 13.75 13.75 12.0654 13.75 10C13.75 7.93457 12.0654 6.25 10 6.25ZM10 7.5C11.3867 7.5 12.5 8.61328 12.5 10C12.5 11.3867 11.3867 12.5 10 12.5C8.61328 12.5 7.5 11.3867 7.5 10C7.5 8.61328 8.61328 7.5 10 7.5Z" fill="#26272B"/>
</svg>
