<svg id="Layer_1" version="1" viewBox="0 0 512 512" xmlns="http://www.w3.org/2000/svg"><style></style><circle cx="256" cy="256" r="247" fill="#1e96c8"/><path d="M361 159s7-3 12 1c5 3 7 8 5 14l-42 197s-1 7-6 10a14 14 0 0 1-16-1l-99-74 115-104 1-3-4-1-5 2-141 90-65-20c-2-2-6-5-6-9 0-3 4-6 5-7 12-7 200-78 246-95z" fill="#fff"/><path d="M215 306l-4 63a18 18 0 0 0 12-5l30-30-38-28z" fill="#a9c9dd"/><path d="M211 369l-6-1c-2-2-2-4-2-5l-23-73 142-90 3-1c2-1 5-2 6 0v1l-1 2-115 104-4 63z" fill="#c8daea"/></svg>