<svg width="20" height="20" viewBox="0 0 20 20" fill="none" xmlns="http://www.w3.org/2000/svg">
<path d="M10 2C5.58654 2 2 5.58654 2 10C2 14.4135 5.58654 18 10 18C11.6971 18 13.2692 17.4615 14.5625 16.5577C14.7788 16.4038 14.9808 16.2452 15.1779 16.0769C15.1827 16.0769 15.1827 16.0769 15.1827 16.0769C15.1827 16.0721 15.1827 16.0721 15.1875 16.0721C15.3654 15.9183 15.5385 15.7548 15.7067 15.5817C15.7308 15.5577 15.7548 15.5337 15.7788 15.5096C15.8365 15.4519 15.899 15.3942 15.9519 15.3317C15.9808 15.2981 16.0096 15.2596 16.0337 15.2212C16.2837 14.9327 16.524 14.6298 16.7308 14.3077H15.2163C15.0769 14.476 14.9231 14.6298 14.7692 14.7837C14.6971 14.8558 14.625 14.9279 14.5529 15C14.5481 15 14.5481 15.0048 14.5433 15.0048C14.351 15.1827 14.1442 15.3462 13.9375 15.4952C12.8269 16.2933 11.476 16.7692 10 16.7692C6.25481 16.7692 3.23077 13.7452 3.23077 10C3.23077 6.25481 6.25481 3.23077 10 3.23077C11.4712 3.23077 12.8269 3.70192 13.9327 4.5C14.1538 4.65865 14.3654 4.83173 14.5673 5.01442C14.6202 5.0625 14.6635 5.11058 14.7115 5.16346C14.8894 5.33173 15.0625 5.50481 15.2163 5.69231H15.4038C15.4712 5.70192 15.5385 5.70192 15.601 5.69231H16.7308C16.5192 5.36538 16.2788 5.0625 16.0288 4.76923C16.0048 4.73558 15.9808 4.69712 15.9519 4.66346C15.9183 4.625 15.875 4.59135 15.8413 4.55289C15.75 4.45673 15.6538 4.36538 15.5577 4.26923C15.4663 4.18269 15.3798 4.09615 15.2885 4.01442C15.1827 3.91827 15.0721 3.83173 14.9615 3.74039C14.8558 3.66346 14.7596 3.57692 14.6538 3.5C14.625 3.48558 14.6058 3.46635 14.5769 3.44712V3.45192C13.2788 2.54327 11.7019 2 10 2ZM15.5385 6.92308V9.38462H6.92308V10.6154H15.5385V13.0769L18.6154 10L15.5385 6.92308Z" fill="#26272B"/>
</svg>
