<svg width="20" height="20" viewBox="0 0 20 20" fill="none" xmlns="http://www.w3.org/2000/svg">
<path d="M4.375 2.5C3.34473 2.5 2.5 3.34473 2.5 4.375V15.625C2.5 16.6553 3.34473 17.5 4.375 17.5H15.625C16.6553 17.5 17.5 16.6553 17.5 15.625V4.375C17.5 3.34473 16.6553 2.5 15.625 2.5H4.375ZM4.375 3.75H15.625C15.9766 3.75 16.25 4.02344 16.25 4.375V15.625C16.25 15.9766 15.9766 16.25 15.625 16.25H4.375C4.02344 16.25 3.75 15.9766 3.75 15.625V4.375C3.75 4.02344 4.02344 3.75 4.375 3.75Z" fill="#26272B"/>
</svg>
