<svg xmlns="http://www.w3.org/2000/svg" width="48" height="48" fill="none"><path fill="#003FE0" d="M26.25 30a2.25 2.25 0 1 0 0-4.5 2.25 2.25 0 0 0 0 4.5zM35.25 31.5a3.75 3.75 0 0 1-7.5 0c2.5 1 5 1 7.5 0zM20.25 29.25a3.75 3.75 0 0 0-7.5 0c2.5-1 5-1 7.5 0zM11.25 24a2.25 2.25 0 1 0 0-4.5 2.25 2.25 0 0 0 0 4.5zM36.75 30a2.25 2.25 0 1 0 0-4.5 2.25 2.25 0 0 0 0 4.5z" opacity=".4"/><path fill="#003FE0" d="M42.26 15.4a23.4 23.4 0 0 0-13.76-2.43V11.4c0-.85-.48-1.64-1.24-2-7.14-3.54-14.38-3.54-21.52 0a2.25 2.25 0 0 0-1.24 2v11.84a12.01 12.01 0 0 0 16.21 11.22 12 12 0 0 0 22.79-5.22V17.4c0-.85-.48-1.64-1.24-2zM42 17.41v.87c-1-.48-2-.9-3-1.24v-1.4c.87.3 1.73.68 2.6 1.1.24.13.4.39.4.67zm-7.5-1.45V14.5c1 .15 2 .36 3 .65v1.44c-1-.27-2-.48-3-.62zM33 14.32v1.49c-1-.07-2-.07-3 0v-1.49a20.5 20.5 0 0 1 3 0zm-12 3.96v-.87c0-.28.16-.54.4-.66.87-.43 1.73-.8 2.6-1.12v1.41c-1 .35-2 .76-3 1.24zm4.5-3.14c1-.29 2-.5 3-.65v1.47c-1 .14-2 .35-3 .62v-1.44zm-9 18.6c-5.79 0-10.5-4.7-10.5-10.5v-9.28c5.66-2.91 11.38-3.48 17.02-1.67l.46-1.43C17.68 9.01 11.8 9.5 6 12.28v-.87c0-.28.16-.54.4-.66a21.76 21.76 0 0 1 20.2 0c.24.12.4.38.4.66v1.81a25.8 25.8 0 0 0-6.26 2.18 2.25 2.25 0 0 0-1.24 2.01v11.84c0 1.34.23 2.63.64 3.83-1.16.43-2.38.67-3.64.67zm15 6c-5.79 0-10.5-4.7-10.5-10.5v-9.28c6.97-3.58 14.03-3.58 21 0v9.29c0 5.79-4.71 10.5-10.5 10.5z"/></svg>