<svg width="20" height="20" viewBox="0 0 20 20" fill="none" xmlns="http://www.w3.org/2000/svg">
<path d="M2 2V15.4183C2 15.5873 2.0175 15.7513 2.05048 15.9111V15.9135C2.21596 16.7111 2.77254 17.3725 3.50721 17.6851C3.65429 17.7477 3.8066 17.7964 3.96635 17.8293H3.96875C4.12848 17.8623 4.29253 17.8798 4.46154 17.8798H15.5385C16.8905 17.8798 18 16.7703 18 15.4183C18 14.0662 16.8905 12.9567 15.5385 12.9567V2L13.6923 3.15385L12.4615 2.38462L11.2308 3.15385L10 2.38462L8.76923 3.15385L7.53846 2.38462L6.30769 3.15385L5.07692 2.38462L3.84615 3.15385L2 2ZM5.07692 3.83654L6.30769 4.60577L7.53846 3.83654L8.76923 4.60577L10 3.83654L11.2308 4.60577L12.4615 3.83654L13.6923 4.60577L14.3077 4.22115V12.9567H4.46154C4.29333 12.9567 4.12537 12.9745 3.96635 13.0072C3.70181 13.0621 3.45747 13.1699 3.23077 13.3029V4.22115L3.84615 4.60577L5.07692 3.83654ZM5.69231 6.79808V8.02885L11.8462 8.03365V6.80288L5.69231 6.79808ZM5.69231 9.26442V10.4952H9.38462V9.26442H5.69231ZM4.46154 14.1875C5.14856 14.1875 5.69231 14.7312 5.69231 15.4183C5.69231 16.1053 5.14856 16.649 4.46154 16.649C4.29001 16.649 4.12591 16.6147 3.97837 16.5529C3.83078 16.4912 3.69985 16.4018 3.58894 16.2909C3.47845 16.1804 3.38868 16.0482 3.32692 15.9014V15.899C3.26514 15.7515 3.23077 15.5898 3.23077 15.4183C3.23077 15.2473 3.26577 15.0845 3.32692 14.9375V14.9351C3.38863 14.7875 3.47804 14.6566 3.58894 14.5457C3.69944 14.4352 3.83157 14.3454 3.97837 14.2837H3.98077C4.1278 14.2225 4.2906 14.1875 4.46154 14.1875ZM6.57692 14.1875H15.5385C16.2246 14.1875 16.7692 14.7322 16.7692 15.4183C16.7692 16.1044 16.2246 16.649 15.5385 16.649H6.57692C6.79058 16.2848 6.92308 15.8681 6.92308 15.4183C6.92308 14.9684 6.79058 14.5517 6.57692 14.1875Z" fill="black"/>
</svg>
