<svg width="20" height="20" viewBox="0 0 20 20" fill="none" xmlns="http://www.w3.org/2000/svg">
<path d="M3.125 1.25C2.09473 1.25 1.25 2.09473 1.25 3.125V13.125C1.25 14.1553 2.09473 15 3.125 15H5V15.625C5 16.6553 5.84473 17.5 6.875 17.5H16.875C17.9053 17.5 18.75 16.6553 18.75 15.625V5.625C18.75 4.59473 17.9053 3.75 16.875 3.75H15V3.125C15 2.09473 14.1553 1.25 13.125 1.25H3.125ZM3.125 2.5H13.125C13.4766 2.5 13.75 2.77344 13.75 3.125V13.125C13.75 13.4766 13.4766 13.75 13.125 13.75H3.125C2.77344 13.75 2.5 13.4766 2.5 13.125V3.125C2.5 2.77344 2.77344 2.5 3.125 2.5ZM15 5H16.875C17.2266 5 17.5 5.27344 17.5 5.625V15.625C17.5 15.9766 17.2266 16.25 16.875 16.25H6.875C6.52344 16.25 6.25 15.9766 6.25 15.625V15H13.125C14.1553 15 15 14.1553 15 13.125V5Z" fill="#26272B"/>
</svg>
