<svg viewBox="-38 0 435 435.22" xmlns="http://www.w3.org/2000/svg"><path d="M117.52 83.36l54.62-50.5v234.47a10 10 0 1 0 20 0V32.86l54.61 50.5a10 10 0 1 0 13.58-14.7l-71.4-66a10 10 0 0 0-13.58 0l-71.41 66.01a10 10 0 1 0 13.58 14.69zm0 0"/><path d="M309.26 144.72h-48.47a10 10 0 1 0 0 20h48.47a30.03 30.03 0 0 1 30 30v190.5a30.03 30.03 0 0 1-30 30H50.1a30.03 30.03 0 0 1-30-30v-190.5a30.03 30.03 0 0 1 30-30h48.46a10 10 0 1 0 0-20H50.11a50.06 50.06 0 0 0-50 50v190.5a50.06 50.06 0 0 0 50 50h259.15a50.06 50.06 0 0 0 50-50v-190.5a50.06 50.06 0 0 0-50-50zm0 0"/></svg>