<svg xmlns="http://www.w3.org/2000/svg" width="48" height="48" fill="none"><path fill="#003FE0" d="M28.5 16.5h-6V9.7c0-.4.3-.7.8-.7h4.4c.5 0 .8.3.8.8v6.7z" opacity=".4"/><path fill="#003FE0" d="M38.3 4.5H21.8c-2.1 0-3.8 1.7-3.8 3.8v5.2H8.2c-1.2 0-2.2 1-2.2 2.3v25.4c0 1.3 1 2.3 2.3 2.3h21c1.2 0 2.2-1 2.2-2.3V28.6l.3-.3 2.9-3.8c.1-.3.4-.4.6-.4h3c2 0 3.7-1.7 3.7-3.8v-12c0-2-1.7-3.7-3.8-3.7zM30 41.3c0 .4-.3.7-.8.7h-21a.8.8 0 0 1-.7-.8V15.8c0-.4.3-.7.8-.7H18v5.3c0 2 1.7 3.7 3.8 3.7h2.9c.2 0 .5.1.6.4l3 3.8c.3.5 1 .8 1.7.8v12.3zm10.5-21c0 1.2-1 2.2-2.3 2.2h-2.9c-.7 0-1.4.4-1.9 1l-2.8 3.7c-.3.4-1 .4-1.2 0l-2.8-3.7c-.5-.6-1.2-1-2-1h-2.9c-1.2 0-2.2-1-2.2-2.3v-12c0-1.2 1-2.2 2.3-2.2h16.4c1.3 0 2.3 1 2.3 2.3v12z"/><path fill="#003FE0" d="M37.5 9H30v1.5h7.5V9zM28.5 18h-6v1.5h6V18z"/><path fill="#003FE0" d="M10.5 24h3v6H15v-6h3v-1.5h-7.5V24z" opacity=".4"/><path fill="#003FE0" d="M25.5 28.5H18V30h7.5v-1.5zM25.5 31.5H12c-.8 0-1.5.7-1.5 1.5v4.5c0 .8.7 1.5 1.5 1.5h13.5c.8 0 1.5-.7 1.5-1.5V33c0-.8-.7-1.5-1.5-1.5zm-3 1.5v4.5H15V33h7.5zM12 33h1.5v4.5H12V33zm12 4.5V33h1.5v4.5H24zM24 25.5h-6V27h6v-1.5zM37.5 12H30v1.5h7.5V12zM37.5 15H30v1.5h7.5V15zM37.5 18H30v1.5h7.5V18z"/></svg>