<svg width="20" height="20" viewBox="0 0 20 20" fill="none" xmlns="http://www.w3.org/2000/svg">
<path d="M10 1.25C9.31641 1.25 8.75 1.81641 8.75 2.5V3.92578C6.60156 4.4873 5 6.43066 5 8.75V13.7305C5 13.7305 4.98047 14.0771 4.81445 14.3994C4.64844 14.7266 4.44824 15 3.75 15V16.25H16.25V15C15.5078 15 15.3174 14.7266 15.1611 14.4141C15.0049 14.0967 15 13.7549 15 13.7549V8.75C15 6.43066 13.3984 4.4873 11.25 3.92578V2.5C11.25 1.81641 10.6836 1.25 10 1.25ZM10 16.25C9.31152 16.25 8.75 16.8115 8.75 17.5C8.75 18.1885 9.31152 18.75 10 18.75C10.6885 18.75 11.25 18.1885 11.25 17.5C11.25 16.8115 10.6885 16.25 10 16.25ZM10 5C12.0801 5 13.75 6.66992 13.75 8.75V13.7451C13.75 13.7451 13.7354 14.3408 14.043 14.9609C14.0479 14.9756 14.0576 14.9854 14.0625 15H5.9082C5.91309 14.9902 5.92285 14.9805 5.92773 14.9756C6.24023 14.3604 6.25 13.7695 6.25 13.7695V8.75C6.25 6.66992 7.91992 5 10 5Z" fill="#26272B"/>
</svg>
