<svg viewBox="0 0 24 24" xmlns="http://www.w3.org/2000/svg"><path d="M5.04 15.16a2.53 2.53 0 0 1-2.52 2.53A2.53 2.53 0 0 1 0 15.16a2.53 2.53 0 0 1 2.52-2.52h2.52v2.52zm1.27 0a2.53 2.53 0 0 1 2.52-2.52 2.53 2.53 0 0 1 2.52 2.52v6.32A2.53 2.53 0 0 1 8.84 24a2.53 2.53 0 0 1-2.52-2.52v-6.31zM8.83 5.04a2.53 2.53 0 0 1-2.52-2.52A2.53 2.53 0 0 1 8.83 0a2.53 2.53 0 0 1 2.52 2.52v2.52H8.84zm0 1.27a2.53 2.53 0 0 1 2.52 2.52 2.53 2.53 0 0 1-2.52 2.52h-6.3A2.53 2.53 0 0 1 0 8.84a2.53 2.53 0 0 1 2.52-2.52h6.31zm10.13 2.52a2.53 2.53 0 0 1 2.52-2.52A2.53 2.53 0 0 1 24 8.83a2.53 2.53 0 0 1-2.52 2.52h-2.52V8.84zm-1.27 0a2.53 2.53 0 0 1-2.53 2.52 2.53 2.53 0 0 1-2.52-2.52v-6.3A2.53 2.53 0 0 1 15.16 0a2.53 2.53 0 0 1 2.53 2.52v6.31zm-2.53 10.13a2.53 2.53 0 0 1 2.53 2.52A2.53 2.53 0 0 1 15.16 24a2.53 2.53 0 0 1-2.52-2.52v-2.52h2.52zm0-1.27a2.53 2.53 0 0 1-2.52-2.53 2.53 2.53 0 0 1 2.52-2.52h6.32A2.53 2.53 0 0 1 24 15.16a2.53 2.53 0 0 1-2.52 2.53h-6.31z"/></svg>