<svg width="20" height="20" viewBox="0 0 20 20" fill="none" xmlns="http://www.w3.org/2000/svg">
<path d="M8.12012 1.25C7.09473 1.25 6.25 2.09473 6.25 3.12012V3.75H2.5V5H3.75V15.625C3.75 16.6553 4.59473 17.5 5.625 17.5H13.125C14.1553 17.5 15 16.6553 15 15.625V5H16.25V3.75H12.5V3.12012C12.5 2.09473 11.6553 1.25 10.6299 1.25H8.12012ZM8.12012 2.5H10.6299C10.9814 2.5 11.25 2.76855 11.25 3.12012V3.75H7.5V3.12012C7.5 2.76855 7.76856 2.5 8.12012 2.5ZM5 5H13.75V15.625C13.75 15.9766 13.4766 16.25 13.125 16.25H5.625C5.27344 16.25 5 15.9766 5 15.625V5ZM6.25 6.25V15H7.5V6.25H6.25ZM8.75 6.25V15H10V6.25H8.75ZM11.25 6.25V15H12.5V6.25H11.25Z" fill="#26272B"/>
</svg>
