<svg xmlns="http://www.w3.org/2000/svg" width="48" height="48" fill="none"><path fill="#003FE0" d="M26.3 43.5h-4.6c-1.2 0-2.2-1-2.2-2.3V28.6H6.7c-1.2 0-2.2-1-2.2-2.3v-4.4c0-1.3 1-2.3 2.3-2.3h12.7V6.7c0-1.2 1-2.2 2.3-2.2h4.4c1.3 0 2.3 1 2.3 2.3v12.7h12.8c1.2 0 2.2 1 2.2 2.3v4.4c0 1.3-1 2.3-2.3 2.3H28.6v12.8c0 1.2-1 2.2-2.3 2.2zM6.6 21c-.4 0-.7.3-.7.8v4.4c0 .5.3.8.8.8H21v14.3c0 .4.3.7.8.7h4.4c.5 0 .8-.3.8-.8V27h14.3c.4 0 .7-.3.7-.8v-4.4c0-.5-.3-.8-.8-.8H27V6.7c0-.4-.3-.7-.8-.7h-4.4c-.5 0-.8.3-.8.8V21H6.7z"/><path fill="#003FE0" d="M39.8 22.5H25.4V8.2c0-.4-.3-.7-.8-.7h-1.4c-.5 0-.8.3-.8.8v14.2H8.2c-.4 0-.7.3-.7.8v1.4c0 .5.3.8.8.8h14.2v14.3c0 .4.3.7.8.7h1.4c.5 0 .8-.3.8-.8V25.6h14.3c.4 0 .7-.3.7-.8v-1.4c0-.5-.3-.8-.8-.8z" opacity=".4"/></svg>