<svg xmlns="http://www.w3.org/2000/svg" width="48" height="48" fill="none"><path fill="#003FE0" d="M24 42c-.8 0-1.53-.42-1.94-1.11l-2.77-4.74a3.84 3.84 0 0 0-2.76-1.82 14.26 14.26 0 0 1-12.02-14.6C4.78 12.16 11.31 6 19.07 6h9.86c7.76 0 14.3 6.16 14.56 13.73a14.26 14.26 0 0 1-12.02 14.6 3.84 3.84 0 0 0-2.76 1.82l-2.77 4.74c-.4.7-1.13 1.11-1.94 1.11zM19.07 7.5c-6.96 0-12.82 5.51-13.06 12.28a12.76 12.76 0 0 0 10.75 13.06 5.34 5.34 0 0 1 3.82 2.55l2.77 4.74c.2.33.52.37.65.37s.45-.04.65-.37l2.77-4.74a5.33 5.33 0 0 1 3.82-2.55c6.36-1 10.98-6.6 10.75-13.06-.24-6.77-6.1-12.28-13.06-12.28h-9.86z"/><path fill="#003FE0" d="M18.75 21a2.25 2.25 0 1 0 0-4.5 2.25 2.25 0 0 0 0 4.5zM29.25 21a2.25 2.25 0 1 0 0-4.5 2.25 2.25 0 0 0 0 4.5zM27 22.5h-6a.75.75 0 0 0-.75.75V24a3.75 3.75 0 0 0 7.5 0v-.75a.75.75 0 0 0-.75-.75z" opacity=".4"/><path fill="#003FE0" d="M28.5 9h-9v1.5h9V9z" opacity=".3"/></svg>