<svg width="20" height="20" fill="none" xmlns="http://www.w3.org/2000/svg">
  <path d="M10 2a8 8 0 0 0 0 16 7.94 7.94 0 0 0 5.18-1.92 8.22 8.22 0 0 0 .6-.57l.17-.18a8.05 8.05 0 0 0 .78-1.02h-1.51c-.14.17-.3.32-.45.47l-.22.22A6.71 6.71 0 0 1 10 16.76a6.76 6.76 0 1 1 4.56-11.75l.14.15c.18.17.35.34.5.53h1.52a8.81 8.81 0 0 0-.7-.92l-.08-.1-.1-.12-.3-.28L15.3 4c-.1-.1-.22-.18-.33-.27l-.3-.24c-.04-.01-.05-.03-.08-.05A7.96 7.96 0 0 0 10 2zm5.54 4.92v2.46H6.92v1.24h8.62v2.46L18.62 10l-3.08-3.08z" fill="#26272B"/>
</svg>
