<svg width="20" height="20" fill="none" xmlns="http://www.w3.org/2000/svg">
  <path d="M3.13 1.25c-1.04 0-1.88.84-1.88 1.88v10c0 1.03.84 1.87 1.88 1.87H5v.63c0 1.03.84 1.87 1.88 1.87h10c1.03 0 1.87-.84 1.87-1.88v-10c0-1.03-.84-1.87-1.88-1.87H15v-.63c0-1.03-.84-1.87-1.88-1.87h-10zm0 1.25h10c.35 0 .62.27.62.63v10c0 .35-.27.62-.63.62h-10a.62.62 0 0 1-.62-.63v-10c0-.35.27-.62.63-.62zM15 5h1.88c.35 0 .62.27.62.63v10c0 .35-.27.62-.63.62h-10a.62.62 0 0 1-.62-.63V15h6.88c1.03 0 1.87-.84 1.87-1.88V5z" fill="#26272B"/>
</svg>
