<svg width="20" height="20" fill="none" xmlns="http://www.w3.org/2000/svg">
  <path d="M8.213 1.25L7.91 2.861A7.441 7.441 0 0 0 4.863 4.62l-1.548-.542-1.787 3.096 1.236 1.06C2.622 8.802 2.5 9.384 2.5 10s.122 1.196.264 1.768l-1.236 1.06 1.787 3.095 1.543-.547c.855.82 1.89 1.42 3.052 1.768l.303 1.606h3.574l.303-1.606a7.46 7.46 0 0 0 3.047-1.768l1.543.547 1.792-3.096-1.24-1.06c.141-.57.268-1.152.268-1.767s-.122-1.196-.264-1.768l1.236-1.06-1.787-3.095-1.543.542a7.436 7.436 0 0 0-3.052-1.758l-.303-1.611H8.213zM9.248 2.5h1.504l.244 1.318.4.098a6.242 6.242 0 0 1 3.174 1.831l.279.298 1.27-.444.751 1.298-1.016.874.123.391a6.304 6.304 0 0 1 0 3.672l-.123.39 1.016.875-.752 1.298-1.27-.449-.278.303a6.285 6.285 0 0 1-3.174 1.836l-.4.088-.244 1.323H9.248l-.244-1.323-.4-.088a6.285 6.285 0 0 1-3.174-1.836l-.284-.303-1.269.45-.747-1.3 1.016-.873-.123-.391a6.301 6.301 0 0 1 0-3.672l.123-.39-1.016-.875.747-1.298 1.274.444.279-.298a6.243 6.243 0 0 1 3.174-1.831l.4-.098.244-1.318zM10 6.25A3.757 3.757 0 0 0 6.25 10 3.757 3.757 0 0 0 10 13.75 3.757 3.757 0 0 0 13.75 10 3.757 3.757 0 0 0 10 6.25zm0 1.25c1.387 0 2.5 1.113 2.5 2.5s-1.113 2.5-2.5 2.5A2.492 2.492 0 0 1 7.5 10c0-1.387 1.113-2.5 2.5-2.5z" fill="#26272B"/>
</svg>
