<svg height="547" viewBox="0 0 647 547" width="647" xmlns="http://www.w3.org/2000/svg"><g fill="none" fill-rule="evenodd"><path d="m646.25 234.87c0 144.49-123.16 278.17-297.77 278.17s-348-101.82-348-246.31c0-171.55 157.67-265.9 290.42-265.9 129.918698 0 263.242496 49.5871243 322.971247 134.490184 20.541758 29.199641 32.378753 62.576422 32.378753 99.549816z" fill="#ece8fd"/><g transform="translate(81 39)"><g fill="#8cbded"><path d="m45.35 155.73s-.84 12.73 2.33 18.85c1.0860874 2.097149 3.2084892 3.455574 5.5677172 3.563569s4.5968594-1.050846 5.87-3.04c1.2731407-1.989154 1.3883702-4.50642.3022828-6.603569-3.18-6.12-14.07-12.77-14.07-12.77z"/><path d="m79.83 171.24s-.85 12.74 2.33 18.86c1.7473937 3.103498 5.6395224 4.264521 8.8016049 2.625522 3.1620824-1.638999 4.4570384-5.488639 2.9283951-8.705522-3.17-6.12-14.06-12.78-14.06-12.78z"/><path d="m105.68 148.82s-.84 12.73 2.33 18.85c1.03698 2.182224 3.181962 3.624814 5.594126 3.762282 2.412163.137467 4.70715-1.052091 5.985338-3.102375 1.278188-2.050285 1.335909-4.634599.150536-6.739907-3.17-6.12-14.06-12.77-14.06-12.77z"/><path d="m133.1 227.77s-.84 12.73 2.33 18.85c1.084301 2.095363 3.204099 3.45309 5.560887 3.56174 2.356788.108649 4.592514-1.048287 5.865001-3.035001 1.272486-1.986713 1.388413-4.501376.304112-6.596739-3.16-6.13-14.06-12.78-14.06-12.78z"/><path d="m158.36 142.43s-.84 12.73 2.33 18.85c1.03698 2.182224 3.181962 3.624814 5.594126 3.762282 2.412163.137467 4.70715-1.052091 5.985338-3.102375 1.278188-2.050285 1.335909-4.634599.150536-6.739907-3.17-6.12-14.06-12.77-14.06-12.77z"/><path d="m205 142.43s-.85 12.73 2.33 18.85c1.03698 2.182224 3.181962 3.624814 5.594126 3.762282 2.412163.137467 4.70715-1.052091 5.985338-3.102375 1.278188-2.050285 1.335909-4.634599.150536-6.739907-3.17-6.12-14.06-12.77-14.06-12.77z"/><path d="m98.23 212.34s-.85 12.73 2.33 18.85c1.03698 2.182224 3.181962 3.624814 5.594126 3.762282 2.412163.137467 4.70715-1.052091 5.985338-3.102375 1.278188-2.050285 1.335909-4.634599.150536-6.739907-3.17-6.11-14.06-12.77-14.06-12.77z"/><path d="m68.65 239s-.84 12.73 2.33 18.86c1.7473937 3.103498 5.6395224 4.264521 8.8016049 2.625522 3.1620824-1.638999 4.4570384-5.488639 2.9283951-8.705522-3.17-6.15-14.06-12.78-14.06-12.78z"/><path d="m183.28 194.32s-.84 12.73 2.33 18.85c1.086087 2.097149 3.208489 3.455574 5.567717 3.56357 2.359228.107995 4.59686-1.050847 5.870001-3.040001 1.27314-1.989153 1.38837-4.50642.302282-6.603569-3.18-6.09-14.07-12.77-14.07-12.77z"/><path d="m140.55 183.11s-.84 12.73 2.33 18.85c1.03698 2.182224 3.181962 3.624814 5.594126 3.762282 2.412163.137467 4.70715-1.052091 5.985338-3.102375 1.278188-2.050285 1.335909-4.634599.150536-6.739907-3.17-6.12-14.06-12.77-14.06-12.77z"/></g><path d="m265.16 118.58h-264.32c7.83-17.28 27-28.11 45.68-25-3.51-15.49 2.61-33.35 13.65-44.77 11.2642119-11.6866541 27.6716088-16.8889546 43.611843-13.828026 15.940234 3.0609285 29.253763 13.9703991 35.388157 28.998026 11.61-11.79 30.73-17.2 45.82-10.43s25.12 23.47 24 40c17.88-3.33 46.64 9.56 56.17 25.03z" fill="#fff"/><path d="m268.93 144s-35.9-2-43.45 59.73l-3 103.79 47.38-1.14z" fill="#6fc5be"/><path d="m268.93 144s-21.8 4.83-23.74 37.78-6 21.75 23.74 122.24l135 39.19-42.45-201.12-35.69-.64z" fill="#6fc5be"/><path d="m244.15 196.08s4.79 41.05 25.66 110.3" stroke="#50a89f" stroke-width=".76"/><path d="m304.18 284.5s-36-38.53-54.63-11.83c0 0-6.42 9.8-2 20.62l62.36 16.9z" fill="#e7b2b6"/><path d="m377.38 282.09-73.2-2.62-6.11 33.41 96.5 28c7.610092 3.197946 16.240116 2.895772 23.607897-.826613 7.367782-3.722385 12.731266-10.490077 14.672103-18.513387 1.90591-7.875717.326825-16.19076-4.33358-22.819487-4.660406-6.628728-11.950413-10.928639-20.00642-11.800513z" fill="#6fc5be"/><path d="m334 180.37 37.91 103.42 61.71 33.93s0-63.65-34.59-144.15c-6-14-27.12-37.24-46.92-30.3-7.561712 2.176482-13.847468 7.454458-17.29921 14.52567-3.451743 7.071211-3.746347 15.273709-.81079 22.57433z" fill="#6fc5be"/><path d="m304.18 284.5 61.96-2.81-24.38-80.23" stroke="#50a89f" stroke-width=".76"/><path d="m388.1 447.32s33.68-.88 40.17 23.21l76.67-10-114.94-45.44z" fill="#3a3555"/><path d="m508.78 450.17-114.89-45.4-3.85 10.32 114.9 45.4z" fill="#fff"/><path d="m433.6 454.32c.276162.249943.477039.572039.58.93 1.254022 4.44632 3.212159 8.663068 5.8 12.49.316213.431183.4466.971033.362049 1.499011-.084552.527978-.377001 1.000114-.812049 1.310989-.960057.620901-2.2362.398774-2.93-.51-2.893682-4.215678-5.076007-8.877612-6.46-13.8-.13964-.517344-.065835-1.069086.20487-1.53154.270704-.462453.715664-.796934 1.23513-.92846.72131-.171926 1.480699.031079 2.02.54z" fill="#fff"/><path d="m445.06 453.17c.271148.254099.471101.574714.58.93 1.2506 4.445826 3.205369 8.662591 5.79 12.49.319418.431854.451698.974042.367054 1.504477s-.379096 1.004527-.817054 1.315523c-.962538.618728-2.239156.392161-2.93-.52-2.890639-4.216072-5.069607-8.878052-6.45-13.8-.139955-.51597-.067509-1.066495.201166-1.528692.268676-.462197.711213-.797587 1.228834-.931308.72438-.169929 1.485792.032614 2.03.54z" fill="#fff"/><path d="m456.5 452c.275163.252609.478698.573436.59.93 1.2506 4.445826 3.205369 8.662591 5.79 12.49.319418.431854.451698.974042.367054 1.504477s-.379096 1.004527-.817054 1.315523c-.962538.618728-2.239156.392161-2.93-.52-2.88934-4.213191-5.068248-8.871664-6.45-13.79-.157879-.516421-.093364-1.075278.178025-1.542144.27139-.466866.725092-.799487 1.251975-.917856.71962-.174541 1.47877.024642 2.02.53z" fill="#fff"/><path d="m211.07 382.21s-47.47 11.78-40.76 52.38 49.1 38.34 49.1 38.34h190.81l-11.16-52.35-112.89-20.75z" fill="#0069b6"/><path d="m430.5 326.8-206-46.73s-33.56-6.58-49.36 28.3l220.47 119.12c5.14-1.65 79.28-27 34.89-100.69z" fill="#0069b6"/><path d="m385.77 453.36-52.48-26.44.59-32.6 61.1 23.68 8.91 36.98z" fill="#e7b2b6"/><path d="m373.42 407.55s21.66 25.8 6.85 45.87l55.59 53.75-36-118.17z" fill="#3a3555"/><path d="m446.33 503.76-36-118.18-10.47 3.42 36 118.17z" fill="#fff"/><path d="m396.28 447.51c-.03435.35982-.161873.704478-.37 1-2.692546 3.752536-4.774916 7.907152-6.17 12.31-.13996.516593-.481137.955535-.947217 1.218644-.46608.26311-1.018171.328432-1.532783.181356-1.078081-.370674-1.694404-1.503492-1.42-2.61 1.501804-4.885676 3.791989-9.493069 6.78-13.64.317086-.43172.794099-.718203 1.32418-.795272.530082-.077068 1.068925.061719 1.49582.385272.592832.465289.909132 1.199557.84 1.95z" fill="#fff"/><path d="m404.31 455.76c-.03435.35982-.161873.704478-.37 1-2.699386 3.7484-4.782323 7.904147-6.17 12.31-.13996.516593-.481137.955535-.947217 1.218644-.46608.26311-1.018171.328432-1.532783.181356-1.089551-.362976-1.710662-1.50897-1.42-2.62 1.49659-4.887756 3.787183-9.49597 6.78-13.64.318593-.430172.796335-.714675 1.326333-.789852s1.068013.065247 1.493667.389852c.592832.465289.909132 1.199557.84 1.95z" fill="#fff"/><path d="m412.33 464c-.03741.359113-.164657.703022-.37 1-2.694253 3.750033-4.773663 7.905478-6.16 12.31-.13996.516593-.481137.955535-.947217 1.218644-.46608.26311-1.018171.328432-1.532783.181356-1.086165-.367004-1.705439-1.509607-1.42-2.62 1.495536-4.886309 3.782574-9.494167 6.77-13.64.307806-.444572.78719-.740507 1.322561-.816446s1.078143.075009 1.497439.416446c.597437.46173.914882 1.198656.84 1.95z" fill="#fff"/><path d="m366.14 398.29-42.14 46.07-124.39-68.45s-44.75-26.32-23.69-68.44l41-5.92z" fill="#0069b6"/><path d="m246.05 319.03 120.09 79.26-5.76 6.3" stroke="#02578a" stroke-width=".72"/><path d="m336.34 430.88-12.32 13.48-112.95-62.15" stroke="#02578a" stroke-width=".72"/><path d="m250.94 12.77s93.53-29.41 63.64 51.73l-15.87-28.28z" fill="#0a193c"/><path d="m225.19 37.83s-18.41 16.82 6.58 42.93l3.74-39.21z" fill="#0a193c"/><path d="m253.27 85.88c2.341357 7.7698859-2.019778 15.974354-9.77 18.38-3.753362 1.039079-7.766304.535507-11.146551-1.398745-3.380248-1.934253-5.847602-5.1388515-6.853449-8.901255-2.353914-7.7680956 2.006272-15.9791833 9.76-18.38 3.754652-1.0393182 7.768894-.5360122 11.15074 1.3980804 3.381845 1.9340926 5.851164 5.1387646 6.85926 8.9019196z" fill="#d98789"/><path d="m267.83 114.05 7.51 34.83c2.61 12.23 11.31 17.19 22.94 14.55 9.94-2.25 19.83-9.43 17.07-20.12l-10.14-54.83z" fill="#e7b2b6"/><path d="m274.24 144.15 30.83-34c.61-10.66-38.08.36-38.08.36z" fill="#d98789"/><path d="m280.87 126.51c-19.87 4.33-39.78-8.32-44-25l-8.6-34.87c-5.26-20.86 6.45-42 26.46-47.87 20.48-6 45.59 5.32 51.65 26.49l6.37 27.26c5.79 24.57-8.44 47.16-31.88 53.99z" fill="#e7b2b6"/><path d="m259.87 97.13.79 7.14 4.96-.87" stroke="#0a193c" stroke-linecap="round" stroke-linejoin="round" stroke-width=".56"/><path d="m275.92 66.24s-8.36-.13-8.2 3.37c0 0 .16 2.36 7.45 2.33s9.14-.7 9.65-3-5-2.94-8.9-2.7z" fill="#0a193c"/><path d="m241.32 73.2s6.22-3 7.87-.13c0 0 1.07 2-4.43 4.51s-7.6 2.44-8.75.95c-1.3-1.7 2.26-4.17 5.31-5.33z" fill="#0a193c"/><path d="m267.29 113.12s3.62-4.42 13.69-4.21" stroke="#0a193c" stroke-linecap="round" stroke-linejoin="round" stroke-width=".56"/><path d="m270.55 85.12s5.78 3.5 11.78-2.28" stroke="#0a193c" stroke-linecap="round" stroke-linejoin="round" stroke-width=".56"/><path d="m242.75 91.75s3.26 4.12 9.26-1.67" stroke="#0a193c" stroke-linecap="round" stroke-linejoin="round" stroke-width=".56"/><path d="m304.69 73.2-10.81-12.44c-2.159656-3.2732011-3.497525-7.0192343-3.9-10.92-.74-7.46.86-13-7-14.31-9.43-1.61-26.73 27.09-50.66 17.44s-16-38.53.17-47.55c20.09-11.19 57.86 2.38 57.86 2.38l11.26 16.2 13.56 18.41-2.06 15.32z" fill="#0a193c"/><path d="m330.91 67.92c1.951761 7.6052641-2.58909 15.3627914-10.176034 17.3845955-7.586945 2.0218041-15.386012-2.4473244-17.477687-10.0153036s2.30535-15.4079236 9.853721-17.5692919c3.713439-1.0208007 7.680672-.5180897 11.022129 1.3966774 3.341456 1.9147671 5.781039 5.0833779 6.777871 8.8033226z" fill="#e7b2b6"/><path d="m313.58 77.53s-2.94-10.29 7-11.44" stroke="#0a193c" stroke-linecap="round" stroke-linejoin="round" stroke-width=".56"/><path d="m325.74 141.45-56.81 2.55s-7.93 22.84 11.07 25.25c31.3 3.97 45.74-27.8 45.74-27.8z" fill="#e7b2b6"/></g></g></svg>