<svg width="652" height="488" fill="none" xmlns="http://www.w3.org/2000/svg">
  <path fill-rule="evenodd" clip-rule="evenodd" d="M77.06 466.01h410.52c110.44-64.35 127.91-144.51 112.96-181.3-25.88-63.63-48-62.23-84.72-87.48-44.14-30.36 2.1-84.32-5.65-125.81C497.9 5.57 395.7 14.97 345.96 93.69c-42.6 67.41-101.83 33.1-143.7 13.06-74.36-35.59-191.54 62.58-78.12 172.34 40.94 39.62-142.6 65.69-47.07 186.92z" fill="#fff"/>
  <path fill-rule="evenodd" clip-rule="evenodd" d="M76.83 273.88c-44.63-7.1-47.7 74.88-9.84 48.24 37.86-26.65 26.44-45.6 9.84-48.24z" fill="#F8F7FF"/>
  <path fill-rule="evenodd" clip-rule="evenodd" d="M585.41 375.43c-17.42 29.5-47.74 61.09-96.22 89.63H76.33c-21.04-26.98-28.38-49.04-27.53-67.51 63.04-7.25 71-40.74 120.46-104.3 62.97-80.93 168.31-26.55 188 12.43 19.7 38.97 35.27 90.05 104.2 78.19 49.58-8.54 85.3-14.7 123.95-8.44z" fill="#ECF1FF"/>
  <path fill-rule="evenodd" clip-rule="evenodd" d="M16.46 466.01s-25.41-26.5 6.59-41.92c32-15.43 95.67 21.41 126.6-53.03 16.71-40.24 35.3-66.6 63.09-71.85 36.56-6.9 98.73 17.68 147.28 92.7 48.55 75.04 185.11-27.48 239.7 7.3 30.59 19.5-6.27 66.8-6.27 66.8H16.46z" fill="#fff"/>
  <path opacity=".4" fill-rule="evenodd" clip-rule="evenodd" d="M-17.11 466.01s13.18-32.04 51.46-32.04c28.08 0 62.23 18.2 100.4-20.47 52.22-52.9 40.55-82.8 100.47-93.5 38.88-6.94 41.11 28.22 129.8 82.94 88.69 54.72 105.17 33.27 176.7 12.49 71.54-20.8 103.86 29.5 74.68 50.58H-17.11z" fill="#96B0F4"/>
  <path fill-rule="evenodd" clip-rule="evenodd" d="M131.51 465.07c42.83 0 57.08-57.55 86.4-62.13 70.58-11.02 62 63.07 232.94 63.07s-319.34-.94-319.34-.94z" fill="#96B0F4"/>
  <path fill-rule="evenodd" clip-rule="evenodd" d="M533.14 278.6a41.67 41.67 0 0 1-29.08-39.74v-26.18H355.71v26.18a41.67 41.67 0 0 1-29.08 39.75v23.74A179.72 179.72 0 0 0 429.9 465.07c63-29.58 103.25-93 103.25-162.72V278.6z" fill="#96B0F4"/>
  <path fill-rule="evenodd" clip-rule="evenodd" d="M533.14 278.6v23.75c0 34.85-10.06 68.14-28 96.4a179.26 179.26 0 0 1-75.25 66.31S398.4 430 398.4 347.48v-134.8h105.67v26.18a41.66 41.66 0 0 0 29.08 39.75z" fill="#ECF1FF"/>
  <path fill-rule="evenodd" clip-rule="evenodd" d="M429.9 465.06a179.7 179.7 0 0 1-103.26-162.71V278.6a41.67 41.67 0 0 0 29.08-39.75v-26.18h42.67v134.8c0 82.52 31.5 117.58 31.5 117.58z" fill="#96B0F4"/>
  <path fill-rule="evenodd" clip-rule="evenodd" d="M529.95 340.84l-1.84-.4a179.56 179.56 0 0 0 4.1-38.1V279.3a42.45 42.45 0 0 1-29.1-40.43v-25.24H356.67v25.24a42.45 42.45 0 0 1-29.09 40.43v23.06c0 1.1.01 2.2.04 3.3l-1.89.03c-.02-1.1-.03-2.22-.03-3.33v-24.43l.66-.21a40.57 40.57 0 0 0 28.42-38.85v-27.12H505v27.12a40.57 40.57 0 0 0 28.42 38.85l.66.2v24.44c0 12.93-1.39 25.88-4.13 38.5zM429.89 466.11l-.4-.19a179.7 179.7 0 0 1-91.78-98.71l1.76-.68a177.83 177.83 0 0 0 90.42 97.5 178.33 178.33 0 0 0 96.18-115.2l1.82.48a180.21 180.21 0 0 1-97.6 116.61l-.4.19zM332.2 350.49c-1-3.61-1.89-7.3-2.66-10.98l1.84-.38c.77 3.63 1.65 7.28 2.64 10.85l-1.81.5z" fill="#002C9E"/>
  <path fill-rule="evenodd" clip-rule="evenodd" d="M415.8 441.06a165.54 165.54 0 0 1-75.04-138.72v-14.42a55.61 55.61 0 0 0 29.08-49.06v-12.04h28.55v9.44h-19.14v2.6a65.16 65.16 0 0 1-29.08 54.38v9.1a156.13 156.13 0 0 0 59.48 122.7 168.43 168.43 0 0 0 6.14 16.02z" fill="#FFAA45"/>
  <path fill-rule="evenodd" clip-rule="evenodd" d="M402.79 431.62v.01a251 251 0 0 1-1.71-1.38c.56.47 1.14.92 1.7 1.37z" fill="#FFAA45"/>
  <path fill-rule="evenodd" clip-rule="evenodd" d="M509.6 293.25v9.1a156.06 156.06 0 0 1-79.7 136.23 156.03 156.03 0 0 1-79.73-136.24v-9.1a65.16 65.16 0 0 0 29.08-54.38v-2.6h101.28v2.6a65.17 65.17 0 0 0 29.08 54.38z" fill="#FFC159"/>
  <path fill-rule="evenodd" clip-rule="evenodd" d="M429.89 438.58a156.09 156.09 0 0 1-79.72-136.23v-9.1a65.16 65.16 0 0 0 29.08-54.39v-2.6h101.28v2.6c0 22.06 11 42.4 29.08 54.38v9.1a156.1 156.1 0 0 1-79.72 136.24z" fill="#FFC159"/>
  <path fill-rule="evenodd" clip-rule="evenodd" d="M509.6 293.25v9.1a156.06 156.06 0 0 1-79.7 136.23 156.03 156.03 0 0 1-79.73-136.24v-9.1a65.16 65.16 0 0 0 29.08-54.38v-2.6h101.28v2.6a65.17 65.17 0 0 0 29.08 54.38z" fill="#FFC159"/>
  <path fill-rule="evenodd" clip-rule="evenodd" d="M519.02 287.92v14.43c0 31.51-8.91 62.23-25.8 88.81a165.03 165.03 0 0 1-63.33 58.13c-.8-.41-1.6-.84-2.4-1.28a173.01 173.01 0 0 1-6.51-3.7l-1-.6-1.65-1.03c-.85-.52-1.7-1.07-2.54-1.62a168.3 168.3 0 0 1-6.14-16.01 154.11 154.11 0 0 0 20.24 13.53 156 156 0 0 0 55.4-52.47 156.05 156.05 0 0 0 24.32-83.76v-9.1a65.17 65.17 0 0 1-29.08-54.4v-2.6h-82.14v-9.43h91.55v12.04a55.62 55.62 0 0 0 29.08 49.06z" fill="#FFC159"/>
  <path fill-rule="evenodd" clip-rule="evenodd" d="M509.6 293.25v9.1a156.06 156.06 0 0 1-79.7 136.23c-7.12-3.98-13.88-8.5-20.25-13.53-6.12-18.66-11.26-44.24-11.26-77.57V236.25h82.14v2.6a65.17 65.17 0 0 0 29.08 54.4z" fill="#FFD259"/>
  <path fill-rule="evenodd" clip-rule="evenodd" d="M489.94 226.82v1.8l-9.37 12.46c-.03-.74-.04-1.48-.04-2.22v-2.6h-15.69l7.1-9.44h18z" fill="#FFD259"/>
  <path fill-rule="evenodd" clip-rule="evenodd" d="M480.57 241.08L398.4 350.24c-.02-.92-.02-1.84-.02-2.76v-22.94l66.45-88.29h15.69v2.6c0 .75.01 1.49.04 2.23z" fill="#FFE159"/>
  <path fill-rule="evenodd" clip-rule="evenodd" d="M398.4 349.07l.46.57-.45.6-.01-1.17z" fill="#FFD4CC"/>
  <path fill-rule="evenodd" clip-rule="evenodd" d="M373.1 383.87l-6.07 8.05-.49-.76a159.93 159.93 0 0 1-7.84-13.77c0-.03-.02-.05-.03-.08l6.35-8.44a156.7 156.7 0 0 0 8.08 15z" fill="#FFC159"/>
  <path fill-rule="evenodd" clip-rule="evenodd" d="M398.4 350.24l-25.3 33.63a156.7 156.7 0 0 1-8.08-15l33.37-44.33v22.94c0 .92 0 1.84.02 2.75zm115.12-65.74l-2.68 3.56c-.54.73-2.06 3.66-2.94 3.9-.54.15-2.94-2.1-3.44-2.5a65.06 65.06 0 0 1-16.6-20.47c-.47-.91-2.49-3.89-2.31-4.96.04-.29.49-.57.62-.83 1.46-2.9 4.19-5.56 6.14-8.16a55.35 55.35 0 0 0 21.21 29.46z" fill="#FFD259"/>
  <path fill-rule="evenodd" clip-rule="evenodd" d="M493.43 258.35zm14.42 33.69l-98.77 131.23c-3.89-12.23-7.3-27.31-9.18-45.47l85.65-113.77a64.93 64.93 0 0 0 22.3 28z" fill="#FFE159"/>
  <path fill-rule="evenodd" clip-rule="evenodd" d="M408.46 424.09l-5.68 7.54a165.14 165.14 0 0 1-20.84-19.92c-.73-.83-4.03-3.81-3.94-4.8.05-.59 1.29-1.72 1.65-2.2l4.14-5.5a155.7 155.7 0 0 0 24.67 24.88z" fill="#FFC159"/>
  <path fill-rule="evenodd" clip-rule="evenodd" d="M409.08 423.27l-.62.82a155.5 155.5 0 0 1-24.67-24.87l16.11-21.42c1.88 18.15 5.3 33.24 9.18 45.47z" fill="#FFD259"/>
  <path fill-rule="evenodd" clip-rule="evenodd" d="M484.45 405.22l-1.48-1.17c.88-1.11 1.74-2.24 2.58-3.38l1.51 1.13a164.8 164.8 0 0 1-2.6 3.42zm6.93-9.51l-1.56-1.06a164.58 164.58 0 0 0 28.26-92.3v-13.88A56.63 56.63 0 0 1 489 238.86v-11.09H370.77v11.09c0 4.55-.53 9.09-1.6 13.48l-1.82-.45a55.62 55.62 0 0 0 1.54-13.03v-12.98h122v12.98a54.75 54.75 0 0 0 28.58 48.22l.5.27v15a166.46 166.46 0 0 1-28.59 93.36zM364.59 264.75l-1.68-.85c.71-1.4 1.37-2.83 1.95-4.27l1.75.7c-.6 1.5-1.29 2.99-2.02 4.42zm65.3 185.6l-.44-.22a166.47 166.47 0 0 1-89.64-147.78v-15l.5-.27a54.23 54.23 0 0 0 16.97-14.35l1.49 1.16a56.1 56.1 0 0 1-17.08 14.58v13.88a164.58 164.58 0 0 0 88.2 145.88c14.7-7.7 28.1-17.52 39.82-29.23l1.33 1.34a165.77 165.77 0 0 1-40.72 29.8l-.43.22z" fill="#fff"/>
  <path fill-rule="evenodd" clip-rule="evenodd" d="M478.3 290.44l-55.7 73.99h-11.94l-.36-.44 59.94-79.63 8.06 6.08zM410.56 334.1l-11.7 15.54-.46-.57-.01-1.59v-22.94l2.2-2.93 9.97 12.49z" fill="#fff"/>
  <path fill-rule="evenodd" clip-rule="evenodd" d="M400.59 321.61l-2.2 2.93v-3.8l.91-.74 1.29 1.61zM470.24 284.36L410.3 364l-11.44-14.35 11.7-15.54 5.81 7.29 46.9-62.3 6.97 5.27z" fill="#F8F7FF"/>
  <path fill-rule="evenodd" clip-rule="evenodd" d="M398.4 349.07l-13.8-17.3 13.79-11.03v28.33z" fill="#E9E6FF"/>
  <path fill-rule="evenodd" clip-rule="evenodd" d="M398.4 349.07l-9.51-11.92 9.5-12.61v24.53z" fill="#F2F0FF"/>
  <path fill-rule="evenodd" clip-rule="evenodd" d="M423.07 365.37h-12.86l-2.56-3.2 1.47-1.18 2 2.5h11.02l42.48-56.44 1.5 1.13-43.05 57.19zM467.59 306.24l-1.5-1.14 1.8-2.4 1.51 1.13-1.81 2.41zM471.52 301.02l-1.5-1.14 7.53-10 1.5 1.13-7.53 10.01zM415.64 341.98l-17.07-21.4 1.46-1.17 17.08 21.39-1.47 1.18z" fill="#8B77E8"/>
  <path fill-rule="evenodd" clip-rule="evenodd" d="M487.5 210.35l3.92 15.86 15.83 3.93-15.83 3.94-3.93 15.85-3.92-15.85-15.83-3.94 15.83-3.93 3.93-15.86zM470.76 236.26l1.86 7.47 7.45 1.85-7.45 1.86-1.86 7.47-1.85-7.47-7.45-1.86 7.45-1.85 1.85-7.47zM485.54 258.83l1.03 4.16 4.16 1.04-4.16 1.03-1.03 4.17-1.04-4.17-4.15-1.03 4.15-1.04 1.04-4.16z" fill="#fff"/>
  <path fill-rule="evenodd" clip-rule="evenodd" d="M416.8 203.85l-5.42-1.56-58.42-16.83-37.63-44v.01a18.8 18.8 0 0 0-29.07.56 18.89 18.89 0 0 0 3.09 26.5l48.3 38.24h.01l.1.09c1.9 1.5 4.25 2.5 6.85 2.72h.1l73.7 6.4 2.06-11.07-3.67-1.06zm-149.03-57.26a18.82 18.82 0 0 0-27.42-9.71v-.01l-52.86 31.87v.02a12.87 12.87 0 0 0-3.21 19.26h-.01l41.47 49.66 3.61 4.33 2.45 2.94 9.28-6.37-28.49-51.86 43.9-15.97a18.87 18.87 0 0 0 11.28-24.16z" fill="#4F7BEB"/>
  <path fill-rule="evenodd" clip-rule="evenodd" d="M337.08 5.7h1.89V.43h-1.89V5.7zM337.08 37.45h1.89v-5.29h-1.89v5.3zM330.6 7.95l-2.63-4.58 1.63-.94L332.24 7l-1.63.94zM346.45 35.44l-2.64-4.58 1.63-.94 2.64 4.58-1.63.94zM326.12 13.14l-4.57-2.65.94-1.63 4.57 2.64-.94 1.64zM353.56 29l-4.57-2.64.94-1.63 4.57 2.64-.94 1.64zM319.54 19.88h5.28v-1.89h-5.28v1.89zM351.23 19.88h5.28v-1.89h-5.28v1.89zM322.49 29l-.94-1.63 4.57-2.64.94 1.63-4.57 2.65zM349.93 13.14l-.94-1.64 4.57-2.64.94 1.63-4.57 2.65zM329.6 35.44l-1.63-.94 2.64-4.58 1.63.94-2.64 4.58zM345.44 7.95l-1.63-.94 2.64-4.58 1.63.94-2.64 4.58zM12.56 234.8a12.57 12.57 0 0 1 6.78 6.79 12.57 12.57 0 0 1 6.78-6.8 12.56 12.56 0 0 1-6.78-6.8 12.56 12.56 0 0 1-6.78 6.8zm7.72 11.55H18.4c0-5.85-4.76-10.62-10.6-10.62v-1.88c5.84 0 10.6-4.76 10.6-10.62h1.88c0 5.86 4.75 10.62 10.6 10.62v1.88c-5.85 0-10.6 4.77-10.6 10.62zm535.35-100.4a4.77 4.77 0 1 0 .02 9.54 4.77 4.77 0 0 0-.02-9.53zm0 11.43a6.65 6.65 0 0 1 0-13.3 6.65 6.65 0 0 1 0 13.3z" fill="#96B0F4"/>
  <path fill-rule="evenodd" clip-rule="evenodd" d="M375.79 213.23l-31.26-2.71a13.7 13.7 0 0 1-6.73-2.46l-.01.01-.71-.55-31.13-24.65 1.17-1.48 31.23 24.72a11.83 11.83 0 0 0 6.34 2.53h.1l31.16 2.71-.16 1.88zM392.28 214.66l-11.94-1.04.16-1.88 11.94 1.04-.16 1.88z" fill="#002C9E"/>
  <path fill-rule="evenodd" clip-rule="evenodd" d="M236.7 147.83l3.3 94.04 68.64.95 5.9-93.92a13.2 13.2 0 0 0-12.98-14.03l-51.51-.7a13.19 13.19 0 0 0-13.35 13.66z" fill="#4F7BEB"/>
  <path fill-rule="evenodd" clip-rule="evenodd" d="M239.07 241.9l-1.5-42.6 1.88-.06 1.5 42.6-1.88.07zM237.34 192.7l-.15-4.17 1.88-.07.15 4.18-1.88.07zM310.86 222.38l-1.88-.12 3.38-53.86 1.88.12-3.38 53.85zM309.94 237.14l-1.88-.11.66-10.55 1.88.12-.66 10.54z" fill="#002C9E"/>
  <path fill-rule="evenodd" clip-rule="evenodd" d="M279.42 455.3a7.95 7.95 0 1 0 15.9.24 7.95 7.95 0 0 0-15.9-.23z" fill="#4F7BEB"/>
  <path fill-rule="evenodd" clip-rule="evenodd" d="M291.59 134.76l-.28 19.86-12.66 47.93-16-68.2 28.94.41z" fill="#fff"/>
  <path fill-rule="evenodd" clip-rule="evenodd" d="M297.89 414.15l-1.88-.12 2.51-40.02 1.88.12-2.51 40.02zM295.95 445.05l-1.88-.12 1.58-25.1 1.88.1-1.58 25.12zM286.04 174.59l-7.39 27.96-6.6-28.16 6.55-35.3 1.88.02 5.56 35.48z" fill="#002C9E"/>
  <path fill-rule="evenodd" clip-rule="evenodd" d="M262.63 134.33l23.53.33.35-25.55-23.53-.32-.35 25.54z" fill="#FF95A9"/>
  <path fill-rule="evenodd" clip-rule="evenodd" d="M225.77 456.63a7.95 7.95 0 1 1-15.71-2.41 7.95 7.95 0 0 1 15.7 2.41z" fill="#4F7BEB"/>
  <path fill-rule="evenodd" clip-rule="evenodd" d="M303.3 465.07h-23.88v-9.44h15.9l9.12 4.99a2.37 2.37 0 0 1-1.13 4.45zM297.2 90.4l-3.4.37-2.47-23 3.4-.37a11.57 11.57 0 1 1 2.47 23zm-25.64 24.75l-8.5.92c-4.7.5-8.92-2.9-9.42-7.6l-1-9.34 17-1.83 1.92 17.85z" fill="#002C9E"/>
  <path fill-rule="evenodd" clip-rule="evenodd" d="M294.83 90.07l-9.24 1-3.18-29.62 8.26-.89c5.64-.6 10.7 3.48 11.3 9.13l1.1 10.14a9.3 9.3 0 0 1-8.24 10.24z" fill="#002C9E"/>
  <path fill-rule="evenodd" clip-rule="evenodd" d="M295.03 121.4l-30.2 3.25-3.66-34.07a18.84 18.84 0 1 1 37.34-4.94l4.05 25.9a8.57 8.57 0 0 1-7.53 9.86z" fill="#FF95A9"/>
  <path fill-rule="evenodd" clip-rule="evenodd" d="M266.47 67.78l2.55-.27 3.44 32.08-19.56 2.1-1.61-15.03a17.14 17.14 0 0 1 15.18-18.88z" fill="#002C9E"/>
  <path fill-rule="evenodd" clip-rule="evenodd" d="M262.6 103.88l5.1-.55-.55-5.1a5.13 5.13 0 1 0-4.55 5.65z" fill="#FF95A9"/>
  <path fill-rule="evenodd" clip-rule="evenodd" d="M300.63 80.18l-19.38 2.09c-7.9.85-15-4.9-15.86-12.8A6.85 6.85 0 1 1 279 68c.04.4.4.68.79.63l19.37-2.08 1.47 13.63z" fill="#002C9E"/>
  <path fill-rule="evenodd" clip-rule="evenodd" d="M292.67 74.14l-9.64 1.04a6.85 6.85 0 0 1-1.47-13.63l9.64-1.04a6.85 6.85 0 0 1 1.47 13.63zm10.96 44.27a6.86 6.86 0 0 1-6.03 7.89l-13.52 1.45a13.7 13.7 0 0 1-15.07-12.17l-1.7-15.96 5.1-.55a5.7 5.7 0 0 0 6.27 5.08l22.35-2.41 2.6 16.67z" fill="#002C9E"/>
  <path fill-rule="evenodd" clip-rule="evenodd" d="M286.76 109.05a5.18 5.18 0 1 0 10.3-1.13l-10.3 1.13z" fill="#fff"/>
  <path fill-rule="evenodd" clip-rule="evenodd" d="M308.64 242.82l-13.46-.19h-.01l-41.79-.57h-.17l-13.2-.19.43 12.23-30.38 200.12L225.7 457l38.1-189.05 18.18.25-2.57 187.1 15.88.22 12.46-198.47c.05-.45.09-.9.1-1.37l-.01-.11.8-12.75z" fill="#4F7BEB"/>
  <path fill-rule="evenodd" clip-rule="evenodd" d="M256.26 310.11l-1.85-.37 9.1-45.15 1.85.37-9.1 45.15zM225.39 463.33l-1.85-.38 29.36-145.69 1.84.38-29.35 145.69z" fill="#002C9E"/>
  <path fill-rule="evenodd" clip-rule="evenodd" d="M201.97 465.07h23.9v-9.44h-15.9l-9.13 4.99a2.37 2.37 0 0 0 1.13 4.45z" fill="#002C9E"/>
  <path fill-rule="evenodd" clip-rule="evenodd" d="M250.05 237.87l-13-2.14a5.65 5.65 0 0 0-3.35 10.69l11.88 5.7a7.53 7.53 0 1 0 4.47-14.25z" fill="#FF95A9"/>
  <path fill-rule="evenodd" clip-rule="evenodd" d="M214.75 185.94l-.64-1.77 34.4-12.52.64 1.78-34.4 12.51z" fill="#002C9E"/>
  <path fill-rule="evenodd" clip-rule="evenodd" d="M231.8 244.95l9.28-6.37-5.18-9.42-10.17 8.52 6.07 7.27z" fill="#fff"/>
  <path fill-rule="evenodd" clip-rule="evenodd" d="M231.8 244.95l9.28-6.36-2.4-4.38-9.32 7.8 2.45 2.94z" fill="#FF95A9"/>
  <path fill-rule="evenodd" clip-rule="evenodd" d="M348.14 482.05h200.62v-1.89H348.14v1.89zM91.19 482.05h225.38v-1.89H91.2v1.89zM-36.1 466.95h687.6v-1.88H-36.1v1.88z" fill="#96B0F4"/>
  <path fill-rule="evenodd" clip-rule="evenodd" d="M38.1 466.95h8.64v-1.88H38.1v1.88zM357.27 466.96h105.01v-1.9H357.27v1.9zM321.82 466.95h8.65v-1.88h-8.65v1.88z" fill="#002C9E"/>
  <path fill-rule="evenodd" clip-rule="evenodd" d="M424.54 210.84a5.66 5.66 0 1 0-11.27-.98 5.66 5.66 0 0 0 11.27.98z" fill="#FF95A9"/>
  <path fill-rule="evenodd" clip-rule="evenodd" d="M424.32 212a5.66 5.66 0 1 0-10.84-3.3 5.66 5.66 0 0 0 10.84 3.3z" fill="#FF95A9"/>
  <path fill-rule="evenodd" clip-rule="evenodd" d="M434.17 201.21a7.47 7.47 0 0 0-4.18.02v-.01l-12.66 3.7a5.64 5.64 0 0 0 1.59 11.09h13.17a7.53 7.53 0 0 0 2.08-14.8z" fill="#FF95A9"/>
  <path fill-rule="evenodd" clip-rule="evenodd" d="M407.73 215.06l10.69.93 2.05-11.08-3.67-1.06-5.42-1.56-3.65 12.77z" fill="#fff"/>
  <path fill-rule="evenodd" clip-rule="evenodd" d="M420.47 204.91L418.42 216l-4.97-.43 3.36-11.7 3.66 1.05z" fill="#FF95A9"/>
  <path fill-rule="evenodd" clip-rule="evenodd" d="M470.24 466.95h10.33v-1.88h-10.33v1.88z" fill="#002C9E"/>
  <path fill-rule="evenodd" clip-rule="evenodd" d="M187.85 303.73a7.9 7.9 0 0 0-11.17 0l-4.41 4.42a5.6 5.6 0 1 1-7.91-7.93l23.5-23.54a7.93 7.93 0 0 0 0-11.2 7.9 7.9 0 0 0-11.18 0l-4.41 4.42a5.6 5.6 0 0 1-9.55-3.96v-37.17a7.91 7.91 0 1 0-15.8 0v37.16c0 5-6.03 7.5-9.55 3.97l-4.41-4.42a7.9 7.9 0 0 0-11.18 0 7.93 7.93 0 0 0 0 11.2l23.5 23.54a5.6 5.6 0 0 1-7.91 7.93l-4.41-4.42a7.9 7.9 0 0 0-11.18 0 7.93 7.93 0 0 0 0 11.2l23.5 23.54a5.6 5.6 0 0 1-7.91 7.93l-4.41-4.42a7.9 7.9 0 0 0-11.18 0 7.93 7.93 0 0 0 0 11.2l23.5 23.54a5.59 5.59 0 1 1-7.9 7.93l-4.42-4.42a7.9 7.9 0 0 0-11.18 0 7.93 7.93 0 0 0 0 11.2l33.04 33.1 33.03-33.1a7.93 7.93 0 0 0 0-11.2 7.9 7.9 0 0 0-11.17 0l-4.41 4.41a5.6 5.6 0 1 1-7.91-7.92l23.5-23.54a7.93 7.93 0 0 0 0-11.2 7.9 7.9 0 0 0-11.18 0l-4.41 4.42a5.6 5.6 0 1 1-7.91-7.93l23.5-23.54a7.93 7.93 0 0 0 0-11.2z" fill="#96B0F4"/>
  <path fill-rule="evenodd" clip-rule="evenodd" d="M153.88 466.01h1.88V284.83h-1.88v181.18z" fill="#4F7BEB"/>
  <path fill-rule="evenodd" clip-rule="evenodd" d="M57.06 390.94a11.89 11.89 0 0 0 0 23.77 11.89 11.89 0 0 0 0-23.77zm0 25.65a13.77 13.77 0 0 1 0-27.54 13.77 13.77 0 0 1 0 27.54z" fill="#002C9E"/>
  <path fill-rule="evenodd" clip-rule="evenodd" d="M11.87 465.07h90.36v-62.25H11.88v62.25z" fill="#FFB0BF"/>
  <path fill-rule="evenodd" clip-rule="evenodd" d="M92.82 465.07h9.42v-62.25h-9.42v62.25z" fill="#B05D6D"/>
  <path fill-rule="evenodd" clip-rule="evenodd" d="M11.87 434.89h80.95V433H11.87v1.89z" fill="#002C9E"/>
  <path fill-rule="evenodd" clip-rule="evenodd" d="M45.76 441.49h13.18V433H45.76v8.49z" fill="#fff"/>
  <path fill-rule="evenodd" clip-rule="evenodd" d="M12.82 465.07h-1.89v-63.19h91.3v1.89H12.83v61.3z" fill="#fff"/>
  <path fill-rule="evenodd" clip-rule="evenodd" d="M52.46 466.95h49.77v-1.88H52.46v1.88zM131.51 466.95h117.32v-1.88H131.51v1.88zM278.77 269.1l-19.38-.27.03-1.88 19.37.26-.02 1.89z" fill="#002C9E"/>
</svg>
