<svg width="89" height="72" fill="none" xmlns="http://www.w3.org/2000/svg"><path d="M7.1 4.5a1 1 0 0 1 1.3-.7L17 6a1 1 0 0 1-.5 2L8.8 6l-2 7.7a1 1 0 1 1-2-.5l2.3-8.7zM85.5 62l-.2 1h-.1a44 44 0 0 1-1.9-.5l.5-2a79.7 79.7 0 0 0 2 .5l-.3 1zm-6-.6l-4-1.2.7-2c1.4.5 2.6 1 3.8 1.3l-.6 1.9zm-7.8-2.6l-3.8-1.4.7-1.8 3.8 1.4-.7 1.8zM64 56l-3.7-1.6.8-1.8L65 54l-.8 1.8zm-7.4-3.4l-3.6-1.8 1-1.8 3.5 1.9-.9 1.7zm-7.2-3.8l-3.5-2 1.1-1.8 3.4 2-1 1.8zm-6.9-4.3a92 92 0 0 1-1.6-1.2l1.1-1.6 1.7 1.1-1.2 1.7zM41 43.2L39.3 42l1.2-1.6 1.6 1.3-1.1 1.6zm-5-4c-1.2-.8-2.2-1.8-3.3-2.7l1.4-1.5 3.1 2.7-1.3 1.6zm-6.4-5.7l-3-3 1.5-1.4 3 3-1.5 1.4zm-5.8-6.1L21 24.2l1.5-1.3 2.7 3.1-1.4 1.4zm-5.5-6.5a164 164 0 0 1-2.6-3.4l1.6-1.2 2.5 3.3-1.5 1.3zM13 14a161 161 0 0 1-2.4-3.5l1.7-1 2.4 3.4L13 14zm-4.7-7a92.2 92.2 0 0 1-1.1-1.8l.8-.5.9-.5a10.6 10.6 0 0 0 .2.4l.9 1.3-1.7 1z" fill="#CED2DC"/></svg>
