<svg width="78" height="20" fill="none" xmlns="http://www.w3.org/2000/svg"><path d="M0 .3h5.4l4.72 9.85L14.82.3h5.36v19.4h-5.55V10l-3.03 6.39H8.62L5.55 10v9.7H0V.3zM32.3 20c-2.72 0-4.9-.67-6.56-2.02-1.63-1.36-2.45-3.28-2.45-5.75V.3h5.55v11.33c0 2.37 1.15 3.55 3.45 3.55 2.28 0 3.42-1.18 3.42-3.55V.3h5.55v11.93c0 1.65-.37 3.05-1.12 4.22a7.04 7.04 0 0 1-3.16 2.65c-1.36.6-2.92.9-4.69.9zM44.37.3h9.89c2.24 0 3.93.62 5.07 1.87 1.14 1.24 1.71 2.92 1.71 5.03 0 1.28-.31 2.43-.94 3.43a6.37 6.37 0 0 1-2.57 2.3c.22.17.4.38.56.62.16.25.34.6.53 1.06l2.19 5.09h-5.79l-2-4.67a1.56 1.56 0 0 0-.6-.75 1.57 1.57 0 0 0-.94-.24h-1.56v5.66h-5.55V.3zm8.47 9.4c.8 0 1.43-.21 1.86-.63a2.5 2.5 0 0 0 .68-1.87c0-1.7-.79-2.56-2.36-2.56h-3.1V9.7h2.92zM69.92 20c-1.3 0-2.52-.1-3.66-.3a11.8 11.8 0 0 1-2.9-.9v-4.67a15.82 15.82 0 0 0 6 1.41c1.06 0 1.81-.09 2.27-.27.47-.2.7-.58.7-1.14 0-.36-.11-.66-.35-.88a2.41 2.41 0 0 0-.97-.6 27.97 27.97 0 0 0-2.78-.93c-1.3-.42-2.32-.89-3.06-1.39a4.6 4.6 0 0 1-1.6-1.8 6.72 6.72 0 0 1-.47-2.69c0-1.9.67-3.35 2-4.33C66.45.5 68.42 0 71 0c1.01 0 2.06.09 3.16.27 1.13.16 2.05.36 2.78.6v4.7a13.37 13.37 0 0 0-5.05-1.05c-1.04 0-1.83.08-2.36.24-.5.16-.77.51-.77 1.05 0 .34.11.62.33.82.22.2.54.38.97.54.46.14 1.21.35 2.28.63 1.51.42 2.67.93 3.48 1.54.82.58 1.4 1.25 1.7 2.02.32.76.48 1.68.48 2.77 0 1.8-.69 3.24-2.07 4.3-1.35 1.05-3.36 1.57-6.01 1.57z" fill="#1276ED"/></svg>