<svg width="176" height="41" fill="none" xmlns="http://www.w3.org/2000/svg">
  <path d="M15.95 14.06c-.16.26-.33.45-.5.58-.16.11-.37.17-.63.17-.25 0-.52-.09-.81-.26a9.15 9.15 0 0 0-2.33-1.14 5.12 5.12 0 0 0-1.75-.27c-1.18 0-2.06.27-2.65.8-.6.52-.89 1.2-.89 2.06a2 2 0 0 0 .48 1.36c.33.35.75.65 1.27.91.54.27 1.14.5 1.8.7.67.2 1.36.43 2.06.68.7.24 1.39.52 2.06.85.67.33 1.26.74 1.78 1.24.54.5.96 1.11 1.28 1.84.33.71.5 1.59.5 2.62a8.4 8.4 0 0 1-.6 3.16 7.48 7.48 0 0 1-1.69 2.57 7.88 7.88 0 0 1-2.73 1.71c-1.08.42-2.3.63-3.67.63-.79 0-1.57-.08-2.35-.24a12.52 12.52 0 0 1-4.27-1.68 8.93 8.93 0 0 1-1.66-1.32l1.5-2.42c.12-.18.28-.33.48-.44.2-.13.42-.19.65-.19.3 0 .63.12.97.34.34.23.73.48 1.17.75.45.27.96.52 1.53.75.6.22 1.3.34 2.11.34 1.2 0 2.1-.27 2.75-.82.66-.54 1-1.35 1-2.43 0-.62-.17-1.13-.5-1.51a3.8 3.8 0 0 0-1.26-.97 9.62 9.62 0 0 0-1.79-.66c-.66-.2-1.35-.4-2.05-.63-.7-.23-1.39-.5-2.06-.82a6.07 6.07 0 0 1-3.06-3.2 7.58 7.58 0 0 1-.47-2.87 6.81 6.81 0 0 1 2.14-4.96c.7-.67 1.56-1.2 2.58-1.62a9.56 9.56 0 0 1 3.54-.6c1.48 0 2.85.22 4.11.69a9.13 9.13 0 0 1 3.21 1.9l-1.25 2.4zM29.6 26.67c-1.15.06-2.1.16-2.86.3-.76.14-1.37.33-1.82.55-.44.23-.76.49-.95.79-.18.28-.27.59-.27.93 0 .68.18 1.16.56 1.45.38.28.92.42 1.6.42.78 0 1.45-.14 2.02-.4a6.23 6.23 0 0 0 1.72-1.32v-2.72zm-9.56-7.77a10.37 10.37 0 0 1 3.42-2.07c1.24-.46 2.6-.7 4.04-.7a7.2 7.2 0 0 1 2.8.51 6.07 6.07 0 0 1 3.42 3.59c.3.84.45 1.76.45 2.75V34h-2.14c-.45 0-.79-.06-1.02-.19-.23-.12-.42-.38-.56-.78l-.38-1.12c-.44.38-.87.72-1.3 1.02-.4.3-.82.54-1.27.75a7 7 0 0 1-1.42.44 8.43 8.43 0 0 1-3.8-.15 4.14 4.14 0 0 1-2.7-2.41c-.25-.6-.37-1.3-.37-2.08 0-.65.16-1.3.5-1.94.32-.65.88-1.23 1.67-1.75.8-.53 1.87-.97 3.2-1.31 1.34-.35 3-.55 5.02-.6v-.9c0-1.1-.24-1.9-.7-2.41-.47-.52-1.14-.78-2-.78-.65 0-1.2.08-1.62.24-.43.14-.81.3-1.14.49-.32.17-.62.33-.9.5a2.1 2.1 0 0 1-.99.21c-.33 0-.6-.08-.83-.23-.22-.18-.4-.37-.55-.6l-.83-1.5zM37.83 34V16.47h2.9c.58 0 .97.28 1.16.82l.28 1.14c.3-.32.61-.61.93-.89a5.85 5.85 0 0 1 3.69-1.34c1.08 0 1.97.29 2.67.87.7.56 1.23 1.32 1.6 2.28a5.38 5.38 0 0 1 2.4-2.42 7.58 7.58 0 0 1 5.85-.29c.75.3 1.39.73 1.9 1.31.52.57.91 1.27 1.19 2.1.27.82.4 1.76.4 2.81V34h-4.69V22.86c0-2.05-.88-3.07-2.63-3.07-.4 0-.77.07-1.1.2a2.49 2.49 0 0 0-1.49 1.55c-.13.38-.2.83-.2 1.32V34h-4.7V22.86c0-1.1-.21-1.9-.66-2.36-.43-.47-1.07-.71-1.92-.71-.54 0-1.06.13-1.54.39a5 5 0 0 0-1.35 1.05V34h-4.69zM81.9 16.47V34h-2.89c-.6 0-.98-.27-1.15-.82l-.3-1.22c-.36.34-.72.65-1.1.94a6.85 6.85 0 0 1-6.73.88 5.12 5.12 0 0 1-1.85-1.38c-.5-.59-.88-1.29-1.14-2.1a8.79 8.79 0 0 1-.4-2.7V16.48h4.7v11.14c0 .97.22 1.73.66 2.28.46.53 1.13.8 2 .8.67 0 1.28-.15 1.86-.43.58-.3 1.13-.7 1.65-1.19v-12.6h4.7zM90.18 19.36c.55-1 1.2-1.78 1.92-2.36a3.97 3.97 0 0 1 2.55-.87c.8 0 1.44.19 1.94.56l-.3 3.47c-.06.23-.16.39-.28.48a.82.82 0 0 1-.48.12 6.4 6.4 0 0 1-.78-.07 5.8 5.8 0 0 0-.95-.09c-.43 0-.82.07-1.16.2-.32.12-.62.3-.88.52a4 4 0 0 0-.71.83c-.2.33-.4.7-.58 1.12V34h-4.7V16.47h2.78c.47 0 .8.09.98.26.18.17.31.46.4.88l.25 1.75zM107.56 26.67c-1.15.06-2.1.16-2.86.3-.76.14-1.37.33-1.82.55-.44.23-.76.49-.95.79-.18.28-.27.59-.27.93 0 .68.18 1.16.56 1.45.38.28.92.42 1.6.42.78 0 1.45-.14 2.02-.4a6.24 6.24 0 0 0 1.72-1.32v-2.72zM98 18.9a10.36 10.36 0 0 1 3.42-2.07c1.25-.46 2.6-.7 4.05-.7a7.2 7.2 0 0 1 2.78.51 6.07 6.07 0 0 1 3.42 3.59c.3.84.46 1.76.46 2.75V34h-2.14c-.44 0-.78-.06-1.02-.19-.23-.12-.42-.38-.56-.78l-.38-1.12c-.44.38-.87.72-1.29 1.02-.4.3-.83.54-1.27.75a7 7 0 0 1-1.43.44 8.44 8.44 0 0 1-3.8-.15 4.13 4.13 0 0 1-2.7-2.41c-.25-.6-.37-1.3-.37-2.08 0-.65.16-1.3.5-1.94.32-.65.88-1.23 1.68-1.75.8-.53 1.87-.97 3.2-1.31 1.33-.35 3-.55 5-.6v-.9c0-1.1-.23-1.9-.7-2.41-.46-.52-1.12-.78-2-.78-.64 0-1.18.08-1.61.24-.43.14-.81.3-1.14.49-.32.17-.62.33-.9.5a2.1 2.1 0 0 1-.99.21c-.33 0-.6-.08-.83-.23-.22-.18-.4-.37-.54-.6L98 18.9zM120.62 16.47V34h-4.7V16.47h4.7zm.56-4.98c0 .4-.08.77-.24 1.1a3 3 0 0 1-3.82 1.52 3.12 3.12 0 0 1-1.53-1.51c-.15-.34-.22-.71-.22-1.1a2.74 2.74 0 0 1 .85-2.03 2.88 2.88 0 0 1 4.08 0c.27.26.48.57.64.92.16.34.24.7.24 1.1zM134.35 31.38c.94 0 1.75-.1 2.43-.32a4.5 4.5 0 0 0 1.66-.9c.45-.4.77-.86.97-1.4.2-.54.31-1.14.31-1.78 0-1.26-.45-2.25-1.34-2.98-.9-.73-2.24-1.1-4.03-1.1h-5.27v8.48h5.27zm-5.27-19.14v8.31h4.35c.93 0 1.73-.1 2.41-.3.7-.2 1.26-.49 1.7-.85.46-.37.8-.8 1-1.31.22-.52.33-1.09.33-1.7 0-1.44-.43-2.49-1.3-3.15-.85-.67-2.2-1-4-1h-4.5zm4.49-2.6c1.5 0 2.78.15 3.86.44a7.4 7.4 0 0 1 2.66 1.26c.7.54 1.22 1.21 1.55 2 .33.79.5 1.67.5 2.66a5.27 5.27 0 0 1-1.13 3.26c-.37.48-.85.9-1.43 1.3-.56.37-1.23.67-2 .91 1.79.34 3.13.98 4.03 1.92.9.93 1.36 2.16 1.36 3.67 0 1.04-.2 1.98-.58 2.83a5.93 5.93 0 0 1-1.67 2.19 7.79 7.79 0 0 1-2.68 1.43c-1.07.33-2.28.49-3.64.49h-8.6V9.64h7.77zM154.06 16.5c1.25 0 2.39.22 3.4.64a7.28 7.28 0 0 1 4.21 4.59c.39 1.08.58 2.3.58 3.65 0 1.36-.2 2.59-.58 3.67a7.28 7.28 0 0 1-4.22 4.57 9 9 0 0 1-3.4.62c-1.26 0-2.4-.2-3.43-.61a7.3 7.3 0 0 1-2.58-1.79 7.96 7.96 0 0 1-1.65-2.79 11.25 11.25 0 0 1-.56-3.67c0-1.35.18-2.57.56-3.65.39-1.1.93-2.04 1.65-2.8a7.3 7.3 0 0 1 2.58-1.8 8.96 8.96 0 0 1 3.44-.62zm0 15.38c1.7 0 2.97-.57 3.8-1.7.84-1.15 1.26-2.74 1.26-4.78 0-2.05-.42-3.65-1.26-4.8-.83-1.14-2.1-1.71-3.8-1.71a5.4 5.4 0 0 0-2.27.44c-.63.3-1.16.72-1.6 1.27a5.87 5.87 0 0 0-.94 2.06c-.2.8-.31 1.72-.31 2.74 0 2.04.42 3.63 1.26 4.78.85 1.13 2.13 1.7 3.86 1.7zM171.08 34.27c-1.36 0-2.41-.38-3.15-1.14-.72-.76-1.09-1.85-1.09-3.28V19.31h-2.07a.7.7 0 0 1-.46-.15c-.12-.11-.19-.28-.19-.51v-1.2l2.83-.36.7-5.33c.03-.17.1-.3.21-.4a.68.68 0 0 1 .48-.17h1.53v5.93h4.98v2.2h-4.98v10.33c0 .72.17 1.26.53 1.61.35.35.8.53 1.36.53a2.48 2.48 0 0 0 1.43-.4l.42-.28c.12-.1.23-.14.32-.14.16 0 .3.1.43.3l.88 1.44c-.52.49-1.15.87-1.89 1.15-.73.28-1.5.41-2.27.41z" fill="#26272B"/>
</svg>
