<svg width="395" height="375" fill="none" xmlns="http://www.w3.org/2000/svg">
  <path d="M382.78 283.2c-9.3 21.73-29.55 45.89-69.5 69.14H76.11c-23.84-23.88-32.65-42.57-33.02-57.67-.37-15.1 7.7-26.75 17.92-36.53 5.12-4.89 10.75-9.3 16.11-13.42l1.37-1.04c4.85-3.73 9.43-7.25 13.08-10.69 4-3.75 6.95-7.48 7.95-11.37 1.01-3.94-.01-7.95-3.77-12.2-46.06-52.05-46.67-89.45-32.38-112.5 7.16-11.56 18.1-19.59 29.1-24.08 11.02-4.5 22-5.44 29.23-2.93 15.93 5.53 41.85 12.3 66.36 10.9 24.53-1.4 47.76-11 58.08-38.28 7-18.53 18.04-30.16 30.47-36.25s26.3-6.64 38.98-2.91c25.38 7.46 45.96 32.02 40.89 63.49-5.24 32.44-17.15 49.74-25.82 62.33l-2 2.93c-4.37 6.41-7.63 11.8-8.05 17.72-.43 5.95 2.01 12.33 8.74 20.75 8.12 10.17 17.41 15.94 26.19 21.38 2.18 1.36 4.33 2.7 6.43 4.08 10.51 6.92 19.7 14.98 24.58 32.23 3.9 13.75 5.54 33.15-3.77 54.91z" fill="#ECF1FF" stroke="#fff"/>
  <path fill-rule="evenodd" clip-rule="evenodd" d="M59.4 201.4c-.44-4.09-1.63-6.87-4.46-8.4-8.39-4.55-29.43 2.82-38.18 14.2-12.2 15.87-1.08 40.27 10.78 41.83 13.79 1.8 34.2-26.56 31.87-47.64z" fill="#F8F7FF"/>
  <path fill-rule="evenodd" clip-rule="evenodd" d="M271.02 120.86L247.24 77.1l-7.53 3.13 14.19 47.73 17.12-7.1z" fill="#4F7BEB"/>
  <path fill-rule="evenodd" clip-rule="evenodd" d="M335.25 97.45l-254.2 46.06-5.48-30.24 254.2-46.06 5.48 30.24z" fill="#FFD259"/>
  <path fill-rule="evenodd" clip-rule="evenodd" d="M89.92 144.38l-1.25-.55a30.8 30.8 0 0 0-4.83-32.16l1.04-.88a32.16 32.16 0 0 1 5.04 33.59z" fill="#fff"/>
  <path fill-rule="evenodd" clip-rule="evenodd" d="M29.45 122.79l.83-2.24a32.3 32.3 0 0 1 30.19-21.03c7.38 0 14.59 2.57 20.3 7.24l-.87 1.06a30.78 30.78 0 0 0-48.33 13.2l16.94-3.07.25 1.34-19.3 3.5z" fill="#7760DB"/>
  <path fill-rule="evenodd" clip-rule="evenodd" d="M60.4 163.74a32.03 32.03 0 0 1-24.65-11.56l-1.5-1.8 29.22-5.3 5.46-15.21-10.46-12.34-4.37.8-.24-1.35 5.14-.93 11.48 13.54-6 16.7-27.68 5.02a30.66 30.66 0 0 0 29.12 10.56 30.8 30.8 0 0 0 9.07-3.15l.65 1.2a32.14 32.14 0 0 1-15.24 3.82zm20.76-7.57l-.89-1.04c.98-.82 1.91-1.72 2.78-2.67l1 .93c-.9.98-1.87 1.92-2.9 2.78z" fill="#7760DB"/>
  <path fill-rule="evenodd" clip-rule="evenodd" d="M97.32 140.57l12.02-2.18c6.8-1.24 18.6-14.71 25.66-17.03 17.48-5.75 55.48-1.9 70.28-8.12 21.18-8.9 26.31-19.7 45.21-15.37 9.82 2.24 19.65 1.43 24.83-1.9 13.33-8.6 14.54-21.53 34.06-25.07l20.39-3.7 5.48 30.25-237.93 43.12z" fill="#FFC359"/>
  <path fill-rule="evenodd" clip-rule="evenodd" d="M46.7 354.2h280.02v-1.36H46.7v1.36z" fill="#C4B8FF"/>
  <path fill-rule="evenodd" clip-rule="evenodd" d="M95.47 137.43l-.25-1.34 3.95-.72.25 1.34-3.95.72zM104.4 135.81l-.24-1.34 98.2-17.8.25 1.35-98.2 17.8zM234.78 112.19l-.25-1.35 83.35-15.1.24 1.35-83.34 15.1z" fill="#E6659B"/>
  <path fill-rule="evenodd" clip-rule="evenodd" d="M291 79.1l-.25-1.35 18.5-3.35.25 1.34L291 79.1zM80.45 117.24l-.24-1.34 206.43-37.4.24 1.34-206.43 37.4z" fill="#fff"/>
  <path fill-rule="evenodd" clip-rule="evenodd" d="M224.08 87.05l-.24-1.34 35.23-6.39.24 1.35-35.23 6.38z" fill="#7760DB"/>
  <path fill-rule="evenodd" clip-rule="evenodd" d="M239.65 80a4.1 4.1 0 1 0 7.98-1.9 4.1 4.1 0 0 0-7.98 1.9z" fill="#FF95A9"/>
  <path fill-rule="evenodd" clip-rule="evenodd" d="M229.34 83.87a5.46 5.46 0 1 1 10.63-2.54 5.46 5.46 0 0 1-10.63 2.54z" fill="#FF95A9"/>
  <path fill-rule="evenodd" clip-rule="evenodd" d="M237.37 87.35l8.3-4.73-2.98-7.55-9.3 2.21 3.98 10.07z" fill="#FF95A9"/>
  <path fill-rule="evenodd" clip-rule="evenodd" d="M133.85 134.64l-.24-1.34 149.88-26.75.24 1.35-149.88 26.74z" fill="#40327A"/>
  <path fill-rule="evenodd" clip-rule="evenodd" d="M181.72 374.86h23.03v-1.37h-23.03v1.37zM211.56 374.86h6.95v-1.37h-6.95v1.37zM138.17 364.45h105.02v-1.36H138.17v1.36zM90.95 364.45h34.7v-1.36h-34.7v1.36zM260.61 364.45h13.34v-1.36h-13.34v1.36z" fill="#DDD6FF"/>
  <path fill-rule="evenodd" clip-rule="evenodd" d="M259.52 116.61a9.32 9.32 0 1 0 6.61 17.42 9.32 9.32 0 0 0-6.6-17.42z" fill="#4F7BEB"/>
  <path fill-rule="evenodd" clip-rule="evenodd" d="M119.15 354.2h57.09v-1.36h-57.1v1.36zM98.59 354.2h4.95v-1.36h-4.95v1.36zM278.03 354.2h6.95v-1.36h-6.95v1.36zM232.13 354.2h33.35v-1.36h-33.35v1.36z" fill="#40327A"/>
  <path fill-rule="evenodd" clip-rule="evenodd" d="M172.05 198.98l-34.74 145.68 11.15 2.95 41.63-143.87-18.04-4.76z" fill="#4F7BEB"/>
  <path fill-rule="evenodd" clip-rule="evenodd" d="M137.15 346a5.77 5.77 0 1 0 11.53 0 5.77 5.77 0 0 0-11.53 0z" fill="#7760DB"/>
  <path fill-rule="evenodd" clip-rule="evenodd" d="M131.34 352.84h17.35V346h-11.54l-6.63 3.6a1.71 1.71 0 0 0 .82 3.23z" fill="#40327A"/>
  <path fill-rule="evenodd" clip-rule="evenodd" d="M225.82 126.14a13.66 13.66 0 1 1-27.3 1.1 13.66 13.66 0 0 1 27.3-1.1zm-80.68 38.4a9.32 9.32 0 1 1-9.7-15.93 9.32 9.32 0 0 1 9.7 15.92z" fill="#4F7BEB"/>
  <path fill-rule="evenodd" clip-rule="evenodd" d="M182.76 139.55l-37.3 24.79-11.73-14.38 31.84-31.49 17.2 21.08z" fill="#4F7BEB"/>
  <path fill-rule="evenodd" clip-rule="evenodd" d="M164.4 136.55a13.67 13.67 0 1 0 21.6-16.78 13.67 13.67 0 0 0-21.6 16.78z" fill="#7760DB"/>
  <path fill-rule="evenodd" clip-rule="evenodd" d="M161.54 128.72a13.66 13.66 0 1 0 27.3-1.1 13.66 13.66 0 0 0-27.3 1.1zm64.29-1.77a13.66 13.66 0 1 1-27.33-.53 13.66 13.66 0 0 1 27.33.53zm-35.38 74.2a9.33 9.33 0 1 1-18.65 0 9.33 9.33 0 0 1 18.66 0zm30.27 0a9.33 9.33 0 1 1-18.65 0 9.33 9.33 0 0 1 18.65 0z" fill="#4F7BEB"/>
  <path fill-rule="evenodd" clip-rule="evenodd" d="M221.77 122.67l-.6 68.16-49.8 2-6.07-67.9a9.56 9.56 0 0 1 9.15-10.4l37.37-1.5a9.57 9.57 0 0 1 9.95 9.64z" fill="#4F7BEB"/>
  <path fill-rule="evenodd" clip-rule="evenodd" d="M221.18 191.83l-.48 9.78a9.33 9.33 0 0 1-9.32 8.86h-30.23a9.33 9.33 0 0 1-9.32-8.86l-.48-9.78h49.83zM213.6 346a5.77 5.77 0 1 1-11.53 0 5.77 5.77 0 0 1 11.53 0z" fill="#4F7BEB"/>
  <path fill-rule="evenodd" clip-rule="evenodd" d="M185.62 114.08l14.26 48.7 7.3-35.17-.57-14.37-21 .84z" fill="#fff"/>
  <path fill-rule="evenodd" clip-rule="evenodd" d="M206.61 113.24l.58 14.37-7.3 35.17-14.27-48.7 20.99-.84z" fill="#fff"/>
  <path fill-rule="evenodd" clip-rule="evenodd" d="M217.88 259.03l2.84-57.88h-18.66l.01 57.88v86.98h11.53l4.23-86.1c.03-.29.05-.58.05-.88z" fill="#4F7BEB"/>
  <path fill-rule="evenodd" clip-rule="evenodd" d="M221.16 190.83a24.91 24.91 0 1 1-49.78 1.98 24.91 24.91 0 0 1 49.78-1.98z" fill="#4F7BEB"/>
  <path fill-rule="evenodd" clip-rule="evenodd" d="M204.14 142.26l-4.26 20.52-5.88-20.11 3.36-25.8 1.36-.05 5.42 25.44zM219.4 352.84h-17.34V346h11.54l6.63 3.6a1.71 1.71 0 0 1-.82 3.23z" fill="#40327A"/>
  <path fill-rule="evenodd" clip-rule="evenodd" d="M202.69 113.4l-17.07.68-.74-18.49 17.07-.68.74 18.49z" fill="#FF95A9"/>
  <path fill-rule="evenodd" clip-rule="evenodd" d="M211.36 79.99l-2.47.3-2.01-16.64 2.47-.3a8.38 8.38 0 1 1 2.01 16.64zM193 98.16l-6.17.75a6.21 6.21 0 0 1-6.91-5.42l-.82-6.75 12.34-1.5 1.56 12.92z" fill="#40327A"/>
  <path fill-rule="evenodd" clip-rule="evenodd" d="M209.64 79.76l-6.7.81-2.59-21.41 5.99-.73a7.45 7.45 0 0 1 8.3 6.5l.88 7.33a6.74 6.74 0 0 1-5.88 7.5z" fill="#40327A"/>
  <path fill-rule="evenodd" clip-rule="evenodd" d="M210.09 102.45l-21.9 2.64-2.98-24.64a13.67 13.67 0 0 1 27.06-3.94l3.2 18.73a6.2 6.2 0 0 1-5.38 7.2z" fill="#FF95A9"/>
  <path fill-rule="evenodd" clip-rule="evenodd" d="M188.84 63.9l1.85-.23 2.8 23.2-14.17 1.72L178 77.7c-.82-6.8 4.03-13 10.84-13.82z" fill="#40327A"/>
  <path fill-rule="evenodd" clip-rule="evenodd" d="M186.38 90.08l3.7-.45-.45-3.7a3.73 3.73 0 1 0-3.25 4.15z" fill="#FF95A9"/>
  <path fill-rule="evenodd" clip-rule="evenodd" d="M213.76 72.54l-14.05 1.7c-5.72.7-10.94-3.4-11.64-9.12a4.97 4.97 0 0 1 9.87-1.2c.03.3.3.5.58.46l14.04-1.7 1.2 9.86z" fill="#40327A"/>
  <path fill-rule="evenodd" clip-rule="evenodd" d="M207.92 68.25l-6.99.84a4.97 4.97 0 0 1-1.2-9.86l7-.84a4.97 4.97 0 1 1 1.19 9.86zm8.4 31.95a4.97 4.97 0 0 1-4.31 5.77l-9.8 1.18a9.94 9.94 0 0 1-11.06-8.66l-1.4-11.54 3.7-.45a4.14 4.14 0 0 0 4.6 3.61l16.2-1.96 2.07 12.05z" fill="#40327A"/>
  <path fill-rule="evenodd" clip-rule="evenodd" d="M212.74 91.73a3.76 3.76 0 0 1-7.46.96l7.46-.96z" fill="#fff"/>
  <path fill-rule="evenodd" clip-rule="evenodd" d="M187.4 203.31a5.47 5.47 0 1 0-10.8-1.58 5.47 5.47 0 0 0 10.8 1.58z" fill="#FF95A9"/>
  <path fill-rule="evenodd" clip-rule="evenodd" d="M176.8 200.37a4.1 4.1 0 1 1-8.12-1.2 4.1 4.1 0 0 1 8.12 1.2z" fill="#FF95A9"/>
  <path fill-rule="evenodd" clip-rule="evenodd" d="M179.72 207.49l-8.7-3.99 2.31-7.78 9.46 1.4-3.07 10.37z" fill="#FF95A9"/>
  <path fill-rule="evenodd" clip-rule="evenodd" d="M169.7 202.55l6.54-4.9-27.99-45.92-14.84 11.15 31.67 34.6 2.76 3.02 1.87 2.05z" fill="#4F7BEB"/>
  <path fill-rule="evenodd" clip-rule="evenodd" d="M169.7 202.55l6.54-4.9-4.06-6.66-7.1 6.49 2.76 3.02 1.87 2.05z" fill="#fff"/>
  <path fill-rule="evenodd" clip-rule="evenodd" d="M169.71 202.55l6.53-4.9-1.89-3.1-6.5 5.95 1.86 2.05z" fill="#FF95A9"/>
  <path fill-rule="evenodd" clip-rule="evenodd" d="M212.97 113.05l50.41 2.97.5 18.56-50.16 5.68-.75-27.2z" fill="#4F7BEB"/>
  <path fill-rule="evenodd" clip-rule="evenodd" d="M201.38 335.54h1.37v-12.72h-1.37v12.72zM201.38 318.12h1.37v-49.3h-1.37v49.3z" fill="#40327A"/>
  <path fill-rule="evenodd" clip-rule="evenodd" d="M168.96 211.94l-9.89 41.46 9.9-41.46z" fill="#fff"/>
  <path fill-rule="evenodd" clip-rule="evenodd" d="M159.74 253.56l-1.33-.32 9.89-41.46 1.33.31-9.9 41.47z" fill="#40327A"/>
  <path fill-rule="evenodd" clip-rule="evenodd" d="M158.46 255.98l-1.12 4.67 1.12-4.67z" fill="#fff"/>
  <path fill-rule="evenodd" clip-rule="evenodd" d="M158 260.81l-1.32-.31 1.11-4.68 1.33.31-1.11 4.68z" fill="#40327A"/>
  <path fill-rule="evenodd" clip-rule="evenodd" d="M140.37 331.84l-1.21 5.08 1.2-5.08z" fill="#fff"/>
  <path fill-rule="evenodd" clip-rule="evenodd" d="M139.82 337.07l-1.33-.31 1.21-5.08 1.33.32-1.2 5.07z" fill="#40327A"/>
  <path fill-rule="evenodd" clip-rule="evenodd" d="M143.64 318.12L141 329.2l2.64-11.07z" fill="#fff"/>
  <path fill-rule="evenodd" clip-rule="evenodd" d="M141.66 329.35l-1.33-.32 2.64-11.07 1.33.32-2.64 11.07z" fill="#40327A"/>
  <path fill-rule="evenodd" clip-rule="evenodd" d="M161.25 153.84l11.85-7.87-11.85 7.87z" fill="#fff"/>
  <path fill-rule="evenodd" clip-rule="evenodd" d="M161.63 154.41l-.76-1.13 11.85-7.88.75 1.14-11.84 7.87z" fill="#40327A"/>
  <path fill-rule="evenodd" clip-rule="evenodd" d="M154.82 158.11l3.43-2.27-3.43 2.27z" fill="#fff"/>
  <path fill-rule="evenodd" clip-rule="evenodd" d="M155.2 158.68l-.75-1.14 3.42-2.27.75 1.14-3.42 2.27z" fill="#40327A"/>
  <path fill-rule="evenodd" clip-rule="evenodd" d="M231.88 138.2l27.3-3.09-27.3 3.1z" fill="#fff"/>
  <path fill-rule="evenodd" clip-rule="evenodd" d="M231.96 138.88l-.15-1.35 27.3-3.1.15 1.36-27.3 3.1z" fill="#40327A"/>
  <path fill-rule="evenodd" clip-rule="evenodd" d="M223.46 139.16l4.9-.56-4.9.56z" fill="#fff"/>
  <path fill-rule="evenodd" clip-rule="evenodd" d="M223.54 139.84l-.16-1.36 4.9-.55.16 1.35-4.9.56z" fill="#40327A"/>
  <path fill-rule="evenodd" clip-rule="evenodd" d="M167.5 149.52l1.86 20.76-1.85-20.76z" fill="#fff"/>
  <path fill-rule="evenodd" clip-rule="evenodd" d="M168.68 170.34l-1.85-20.76 1.36-.12 1.85 20.76-1.36.12z" fill="#40327A"/>
  <path fill-rule="evenodd" clip-rule="evenodd" d="M169.82 175.16l.23 2.5-.23-2.5z" fill="#fff"/>
  <path fill-rule="evenodd" clip-rule="evenodd" d="M169.37 177.73l-.23-2.51 1.36-.12.23 2.5-1.36.13z" fill="#40327A"/>
  <path fill-rule="evenodd" clip-rule="evenodd" d="M379 89.3a30.75 30.75 0 0 1-59.3-4.65 30.74 30.74 0 0 1 53.57-25.55l-27.43 4.97-6 16.7 11.49 13.55L379 89.3z" fill="#FFC359"/>
  <path fill-rule="evenodd" clip-rule="evenodd" d="M317.85 79.7c-.07-3.75.51-7.45 1.74-10.99l1.3.45a30.3 30.3 0 0 0-1.67 10.51l-1.37.03zm7.63 20.26a32.17 32.17 0 0 1-7.2-15.6l1.35-.21.08.5a30.79 30.79 0 0 0 6.82 14.42l-1.05.89z" fill="#fff"/>
  <path fill-rule="evenodd" clip-rule="evenodd" d="M349.94 111.28a31.86 31.86 0 0 1-18.84-6.12l.8-1.1a30.5 30.5 0 0 0 23.56 5.35A30.81 30.81 0 0 0 379 89.31l-13.15 2.38-.25-1.35 15.46-2.8-.77 2.21a32.19 32.19 0 0 1-30.36 21.53zm1.39-16.96l-11.48-13.54 5.99-16.7 27.44-4.98a30.75 30.75 0 0 0-33.69-8.87l-.45-1.3A32.65 32.65 0 0 1 350 47.07c9.32 0 18.18 4.06 24.3 11.15l1.56 1.81-29.01 5.26-5.46 15.22 10.46 12.33 6.55-1.18.24 1.34-7.32 1.33zM332.6 53.79l-.78-1.13a31.86 31.86 0 0 1 4.02-2.34l.6 1.23c-1.33.65-2.62 1.4-3.84 2.24zm-11.72 15.37l-1.29-.45a32.32 32.32 0 0 1 9.7-14.13l.89 1.05a30.92 30.92 0 0 0-9.3 13.53z" fill="#7760DB"/>
  <path fill-rule="evenodd" clip-rule="evenodd" d="M341.47 354.2h12.2v-1.36h-12.2v1.36zM29.45 354.2h6.08v-1.36h-6.08v1.36z" fill="#C4B8FF"/>
  <path fill-rule="evenodd" clip-rule="evenodd" d="M6.34 182.07a4.45 4.45 0 1 0 0 8.9 4.45 4.45 0 0 0 0-8.9zm0 10.25a5.81 5.81 0 1 1 0-11.63 5.81 5.81 0 0 1 0 11.63zM124.97 22.92h1.37v-4.4h-1.37v4.4zM124.97 49.27h1.37v-4.4h-1.37v4.4zM119.57 24.73l-2.2-3.8 1.19-.68 2.2 3.8-1.19.68zM132.75 47.55l-2.2-3.8 1.19-.69 2.2 3.8-1.19.69zM115.8 29l-3.8-2.2.68-1.18 3.8 2.2-.68 1.18zM138.63 42.17l-3.8-2.2.68-1.18 3.8 2.2-.68 1.18zM110.28 34.58h4.4v-1.37h-4.4v1.37zM136.64 34.58h4.4v-1.37h-4.4v1.37zM112.68 42.17L112 41l3.8-2.2.69 1.19-3.81 2.2zM135.5 29l-.68-1.18 3.8-2.2.7 1.18-3.81 2.2zM118.56 47.55l-1.19-.68 2.2-3.8 1.19.68-2.2 3.8zM131.74 24.73l-1.19-.68 2.2-3.8 1.19.68-2.2 3.8zM379.25 155.65a10.3 10.3 0 0 1 5.89 5.88 10.3 10.3 0 0 1 5.88-5.88 10.3 10.3 0 0 1-5.88-5.88 10.3 10.3 0 0 1-5.89 5.88zm6.57 9.56h-1.37a8.9 8.9 0 0 0-8.88-8.88v-1.36a8.9 8.9 0 0 0 8.88-8.88h1.37a8.9 8.9 0 0 0 8.88 8.88v1.37a8.9 8.9 0 0 0-8.88 8.87z" fill="#DDD6FF"/>
  <path fill-rule="evenodd" clip-rule="evenodd" d="M36.8 151.3a30.74 30.74 0 1 0-5.24-30.29L59 116.06l11.48 13.54-6 16.7-27.68 5.02z" fill="#FFD259"/>
</svg>
