<svg xmlns="http://www.w3.org/2000/svg" width="180" height="188" fill="none"><g clip-path="url(#clip0)"><path fill="#4F7BEB" fill-rule="evenodd" d="M50.76 119.13c3.72 0 7.35-1.25 10.32-3.62l12.08-9.62a19.28 19.28 0 0 1 9.87-4.09l4.89-.55-1.22-10.78-4.9.55c-5.65.64-10.99 2.85-15.44 6.4l-12.07 9.61a5.68 5.68 0 0 1-8.62-1.85l-8.85-17.34-9.7 4.92 8.85 17.34a16.5 16.5 0 0 0 14.8 9.03z" clip-rule="evenodd"/><path fill="#4E346B" fill-rule="evenodd" d="M84.02 227.54H73.14v-79.69h10.88v79.7zM91.78 148.49l15.82 85.37 10.7-1.97-15.82-85.37-10.7 1.97z" clip-rule="evenodd"/><path fill="#4F7BEB" fill-rule="evenodd" d="M111.79 151.84c5.7 0 11.26-2.1 15.53-5.95l8.65-7.78c3.39-3.05 5.38-7.4 5.47-11.96A16.54 16.54 0 0 0 136.4 114l-11.4-11.04a36.81 36.81 0 0 0-14.68-8.67L94.1 89.27l-3.22 10.36 16.24 5.02a25.86 25.86 0 0 1 10.31 6.1l11.41 11.03a5.6 5.6 0 0 1 1.73 4.17 5.61 5.61 0 0 1-1.88 4.11l-8.65 7.77a12.34 12.34 0 0 1-9.57 3.09l-5.41-.6-1.19 10.8 5.41.58c.84.1 1.68.14 2.52.14z" clip-rule="evenodd"/><path fill="#fff" fill-rule="evenodd" d="M85.5 90.84l-3.37 30.82 24.54-28.5v-.01l-3.42-5.33-10 1.86-5.56-.6a1.97 1.97 0 0 0-2.18 1.74v.03z" clip-rule="evenodd"/><path fill="#CFB13C" fill-rule="evenodd" d="M84.72 98.04l-.37 3.37 4.74-5.28c.22-.25.52-.4.84-.42.3-.02.59.09.82.3l7.65 6.74 1.29-1.5-7.63-6.72a3.1 3.1 0 0 0-2.26-.79c-.83.06-1.63.45-2.19 1.08l-2.9 3.22z" clip-rule="evenodd"/><path fill="#002C9E" fill-rule="evenodd" d="M83.14 112.4l-1.01 9.26 8.12-9.45-.14-10.07 5.08-4.86-3.13-2.75a3.14 3.14 0 0 0-5.19 2l-.57 5.18v.01l-3.16 10.68z" clip-rule="evenodd"/><path fill="#002C9E" fill-rule="evenodd" d="M86.3 101.72l3.81.42 5.08-4.86-3.13-2.75a3.14 3.14 0 0 0-5.19 2l-.57 5.18v.01z" clip-rule="evenodd"/><path fill="#4E346B" fill-rule="evenodd" d="M79.78 160.64l20.86 2.28c1.8.2 3.4-1.1 3.6-2.88l.3-2.7-27.36-2.99-.3 2.7a3.26 3.26 0 0 0 2.9 3.6z" clip-rule="evenodd"/><path fill="#FF95A9" fill-rule="evenodd" d="M89.28 74.6l-1.6 14.48 3.5 3.45 12.07-4.71 1.27-11.56-15.24-1.66z" clip-rule="evenodd"/><path fill="#4F7BEB" fill-rule="evenodd" d="M76.42 92.27l-6.32 57.58a3.7 3.7 0 0 0 3.29 4.09l31.53 3.44a3.72 3.72 0 0 0 4.1-3.29l6.33-57.57-8.65-3.36-.03-.01-24.55 28.5 3.39-30.81-9.1 1.43z" clip-rule="evenodd"/><path fill="#262763" fill-rule="evenodd" d="M79.63 133.09c-.08.68.41 1.28 1.1 1.36a1.24 1.24 0 1 0-1.1-1.36zm-.82 7.47c-.08.68.41 1.29 1.1 1.36a1.24 1.24 0 1 0-1.1-1.36z" clip-rule="evenodd"/><path fill="#4E346B" fill-rule="evenodd" d="M76.05 160.24l24.09 2.62a3.22 3.22 0 0 0 3.55-2.84l.3-2.74-30.49-3.33-.3 2.74a3.21 3.21 0 0 0 2.85 3.55z" clip-rule="evenodd"/><path fill="#262763" fill-rule="evenodd" d="M73.14 153.91v1l10.88 1.18 9.35 1.02 11.3 1.23-.19-1.01-11.3-1.23-9.16-1-10.88-1.19z" clip-rule="evenodd"/><path fill="#FFB18F" fill-rule="evenodd" d="M106.67 145.15c.54.06 1.1-.14 1.5-.59.62-.72.54-1.8-.18-2.43l-5.18-4.47c-.27-.23-.6-.38-.95-.41l-9.29-1.02a1.73 1.73 0 1 0-.38 3.43l8.76.96 4.77 4.12c.28.24.6.37.95.4z" clip-rule="evenodd"/><path fill="#FFB18F" fill-rule="evenodd" d="M106.33 148.23a1.73 1.73 0 0 0 1.32-3.02l-5.18-4.47c-.27-.23-.6-.38-.95-.41l-9.29-1.02a1.73 1.73 0 1 0-.37 3.43l8.75.96 4.77 4.12c.28.24.61.37.95.41z" clip-rule="evenodd"/><path fill="#FFB18F" fill-rule="evenodd" d="M104.62 149.61a1.72 1.72 0 0 0 1.29-3.05l-3.95-3.22c-.25-.2-.55-.33-.87-.37l-1.38-.18c-.27-.03-.54 0-.79.08l-3.94 1.37a1.72 1.72 0 1 0 1.13 3.26l3.56-1.24.48.07 3.56 2.9c.27.22.59.35.91.38z" clip-rule="evenodd"/><path fill="#FFB18F" fill-rule="evenodd" d="M99.04 145.12a5.43 5.43 0 0 0 4.8 5.98l5.43.6 1.19-10.78-5.41-.6h-.01a5.44 5.44 0 0 0-6 4.8z" clip-rule="evenodd"/><path fill="#fff" fill-rule="evenodd" d="M106.03 140.43l-1.18 10.79 4.42.48 1.19-10.78-4.43-.49z" clip-rule="evenodd"/><path fill="#FF9280" fill-rule="evenodd" d="M41.6 93.5a1.97 1.97 0 0 0 .62-3.84l-7.18-2.38a1.97 1.97 0 1 0-1.24 3.74l7.18 2.37c.2.07.42.1.62.1z" clip-rule="evenodd"/><path fill="#002C9E" fill-rule="evenodd" d="M38.6 88.88L56 73.43l-3.3-3.68L35.3 85.2l3.3 3.68z" clip-rule="evenodd"/><path fill="#FFD259" fill-rule="evenodd" d="M5.62 107.6l7.24 8.1 35.47-31.5-7.24-8.1-35.47 31.5z" clip-rule="evenodd"/><path fill="#FFD259" fill-rule="evenodd" d="M5.62 107.6l1.98 2.22 13.64-12.13-1.97-2.2L5.62 107.6zM10.89 113.5l1.97 2.2 35.47-31.5-1.98-2.2-35.46 31.5z" clip-rule="evenodd"/><path fill="#FFB18F" fill-rule="evenodd" d="M34.26 93.86l3.83-3.4a4.24 4.24 0 0 0 .35-6l-2.63-2.94a4.27 4.27 0 0 0-6.02-.35l-3.83 3.4a4.24 4.24 0 0 0-.35 6l2.63 2.95a4.27 4.27 0 0 0 6.02.34z" clip-rule="evenodd"/><path fill="#fff" stroke="#002C9E" stroke-width="5" d="M89 86.5c-22.89 0-41.5-18.33-41.5-41s18.61-41 41.5-41 41.5 18.33 41.5 41-18.61 41-41.5 41z"/><mask id="mask0" width="78" height="77" x="50" y="7" mask-type="alpha" maskUnits="userSpaceOnUse"><ellipse fill="#C4C4C4" rx="39" ry="38.5" transform="matrix(-1 0 0 1 89 45.5)"/></mask><g mask="url(#mask0)"><path fill="#FF95A9" fill-rule="evenodd" d="M82.08 94l25.2 1 1.09-27.3-25.2-1L82.08 94z" clip-rule="evenodd"/><path fill="#fff" fill-rule="evenodd" d="M76.42 45.38l3.74-16.54a17.39 17.39 0 0 1 7.72-10.94c3.96-2.5 8.64-3.3 13.2-2.28l.2-.9a18.3 18.3 0 0 0-13.9 2.39 18.3 18.3 0 0 0-8.13 11.52L75.5 45.17l.91.2z" clip-rule="evenodd"/><path fill="#002C9E" fill-rule="evenodd" d="M73.92 43.08l3.57.81 5.45-24.12-3.57-.8a12.36 12.36 0 0 0-5.45 24.11zm23.82 31.45l8.94 2.02a9.17 9.17 0 0 0 10.96-6.92l2.21-9.8-17.88-4.04-4.23 18.74z" clip-rule="evenodd"/><path fill="#002C9E" fill-rule="evenodd" d="M76.49 43.04l9.7 2.19 7.02-31.07-8.68-1.96a11 11 0 0 0-13.15 8.3l-2.4 10.64a9.95 9.95 0 0 0 7.5 11.9z" clip-rule="evenodd"/><path fill="#FF95A9" fill-rule="evenodd" d="M65.17 66.88a9.17 9.17 0 0 0 6.8 11.39l31.76 7.17 8.07-35.76a20.19 20.19 0 0 0-39.14-9.84l-5.32 19.21-1.72 6.2-.45 1.63z" clip-rule="evenodd"/><path fill="#002C9E" fill-rule="evenodd" d="M109.4 22.85l-2.67-.61-7.6 33.66 20.56 4.65 3.56-15.78a18.33 18.33 0 0 0-13.84-21.92z" clip-rule="evenodd"/><path fill="#FF95A9" fill-rule="evenodd" d="M108.66 63.65l-5.37-1.21 1.21-5.37a5.5 5.5 0 1 1 4.16 6.58z" clip-rule="evenodd"/><path fill="#002C9E" fill-rule="evenodd" d="M82.7 26.83l10.14 2.29a7.33 7.33 0 1 0 3.23-14.31l-10.13-2.3a7.33 7.33 0 1 0-3.23 14.32zm-19.52 47.2a7.34 7.34 0 0 0 5.46 9.12l14.2 3.21a14.67 14.67 0 0 0 17.55-11.07l4.22-18.72-5.36-1.21-2.76 12.23-29.67-6.7-3.64 13.14z" clip-rule="evenodd"/><path fill="#002C9E" fill-rule="evenodd" d="M71.52 31.82l20.37 4.6a15.45 15.45 0 0 0 18.46-11.66 7.33 7.33 0 1 0-14.3-3.23c-.1.42-.51.68-.93.58l-20.37-4.6-3.23 14.31zm1.26 15.6a1.51 1.51 0 1 0 2.95.67 1.51 1.51 0 0 0-2.95-.67zm16.07-1.6a5.09 5.09 0 1 1 0 10.18 5.09 5.09 0 0 1 0-10.18zm.01 12.02a6.95 6.95 0 1 0-.02-13.9 6.95 6.95 0 0 0 .02 13.9z" clip-rule="evenodd"/><path fill="#40327A" fill-rule="evenodd" d="M90.48 52.72l1.62-.93a4.68 4.68 0 0 0-6.44-1.67l.96 1.6a2.79 2.79 0 0 1 3.86 1zM73.55 42.37a5.11 5.11 0 0 1 4.3 2.37 5.08 5.08 0 1 1-4.3-2.37zm0 12.02a6.95 6.95 0 0 0 1.53-13.71 6.9 6.9 0 0 0-8.3 5.24 6.9 6.9 0 0 0 6.77 8.47zM101.27 54.66l.4-1.82-6.74-1.52-.41 1.82 6.75 1.52z" clip-rule="evenodd"/><path fill="#40327A" fill-rule="evenodd" d="M79.08 61.74l.4-1.82-2.38-.54a1.63 1.63 0 0 1-1.14-.94 1.63 1.63 0 0 1 .09-1.49l3.5-6-1.6-.94-3.51 6a3.47 3.47 0 0 0-.19 3.17 3.47 3.47 0 0 0 2.44 2.02l2.39.54z" clip-rule="evenodd"/><path fill="#002C9E" fill-rule="evenodd" d="M65.62 65.25l31.63 7.15 1.42-6.27-31.33-7.08-1.72 6.2z" clip-rule="evenodd"/><path fill="#fff" fill-rule="evenodd" d="M83.13 65.69a5.36 5.36 0 1 1-10.46-2.37l10.46 2.37z" clip-rule="evenodd"/><path stroke="#fff" stroke-width="3" d="M51.5 45.5c0 20.42 16.77 37 37.5 37s37.5-16.58 37.5-37-16.77-37-37.5-37-37.5 16.58-37.5 37z"/></g></g><path fill="#fff" d="M20 159h143v20H20z" filter="url(#filter0_d)"/><path fill="#fff" d="M8 159h160v28H8z"/><defs><filter id="filter0_d" width="175" height="52" x="4" y="136" color-interpolation-filters="sRGB" filterUnits="userSpaceOnUse"><feFlood flood-opacity="0" result="BackgroundImageFix"/><feColorMatrix in="SourceAlpha" type="matrix" values="0 0 0 0 0 0 0 0 0 0 0 0 0 0 0 0 0 0 127 0"/><feOffset dy="-7"/><feGaussianBlur stdDeviation="8"/><feColorMatrix type="matrix" values="0 0 0 0 0 0 0 0 0 0.173624 0 0 0 0 0.620087 0 0 0 0.07 0"/><feBlend in2="BackgroundImageFix" mode="normal" result="effect1_dropShadow"/><feBlend in="SourceGraphic" in2="effect1_dropShadow" mode="normal" result="shape"/></filter><clipPath id="clip0"><path fill="#fff" d="M0 0h180v160H0z" transform="matrix(-1 0 0 1 180 0)"/></clipPath></defs></svg>