<svg width="208" height="238" fill="none" xmlns="http://www.w3.org/2000/svg"><path d="M33.1 226.35h129.72c39.53-22.98 45.79-51.63 40.43-64.77-9.25-22.74-17.17-22.25-30.32-31.26-15.81-10.85.77-30.14-2.01-44.95-4.38-23.54-32.86-30.7-66.16 28.16-14.05 24.82-33.28-21.52-49-26.98-14.56-5.04-58.54 17.8-13.07 69.22 14.5 16.38-56.91 23.26-9.6 70.58z" fill="#F7FAFF"/><path d="M28.23 34.47h-.7v1.94h.7v-1.94zM28.23 46.18h-.7v1.95h.7v-1.95zM24.78 35.22l-.6.35.97 1.68.6-.35-.97-1.68zM30.61 45.34l-.6.35.97 1.69.6-.35-.97-1.69zM22.15 37.61l-.34.6 1.68.98.35-.6-1.69-.98zM32.29 43.44l-.35.6 1.69.98.34-.6-1.68-.98zM23.02 40.97h-1.95v.7h1.95v-.7zM34.7 40.97h-1.95v.7h1.95v-.7zM23.48 43.45l-1.69.97.35.6 1.69-.97-.35-.6zM33.63 37.6l-1.68.97.35.6 1.68-.97-.35-.6zM25.13 45.34l-.97 1.69.6.35.97-1.69-.6-.35zM31 35.23l-.98 1.68.6.35.98-1.69-.6-.34z" fill="#ECF1FF"/><path d="M192.16 77.61h-.7a3.92 3.92 0 0 0-3.92-3.93v-.7a3.92 3.92 0 0 0 3.93-3.92h.7a3.92 3.92 0 0 0 3.92 3.93v.7a3.95 3.95 0 0 0-3.93 3.92zm-2.85-4.27a4.54 4.54 0 0 1 2.5 2.5 4.54 4.54 0 0 1 2.5-2.5 4.54 4.54 0 0 1-2.5-2.5 4.43 4.43 0 0 1-2.5 2.5zM15.05 143.5a2.48 2.48 0 0 1-2.46-2.47 2.48 2.48 0 0 1 2.46-2.47 2.48 2.48 0 0 1 2.47 2.47 2.48 2.48 0 0 1-2.47 2.47zm0-4.2c-.97 0-1.77.8-1.77 1.76 0 .98.8 1.78 1.77 1.78.98 0 1.78-.8 1.78-1.78 0-1-.8-1.77-1.78-1.77zM47.94 22.96c.46-3.96 1.6-6.64 4.32-8.14 8.1-4.38 28.44 2.75 36.88 13.74 11.79 15.33 1.05 38.94-10.43 40.43-13.31 1.77-33.03-25.66-30.77-46.03zM186.94 105.81c6.4-3.23 13.74 4.52 14.2 9.73.62 7.27-7.24 11.48-11.52 10.71-8.24-1.46-9.6-16.96-2.68-20.44z" fill="#F7FAFF"/><path d="M119.8 178.58L91.65 205l.95 1.01 28.13-26.42-.95-1.01z" fill="#002C9E"/><path d="M122.08 177.98a2.92 2.92 0 1 0-5.06-2.9 2.92 2.92 0 0 0 5.06 2.9z" fill="#96B0F4"/><path d="M117 175.07l22.07-38.39 6.95 4-23.95 37.3-5.08-2.91z" fill="#96B0F4"/><path d="M122.9 182.47l-7.65-4.38 1.74-3.02 5.08 2.92 2.02 3.27c.17.27.17.62 0 .9-.21.42-.77.56-1.19.31z" fill="#002C9E"/><path d="M106.94 226a34.45 34.45 0 0 1-34.41-34.42 34.45 34.45 0 0 1 34.41-34.42 34.45 34.45 0 0 1 34.43 34.42A34.45 34.45 0 0 1 106.94 226zm0-66.06a31.66 31.66 0 0 0-31.63 31.64 31.66 31.66 0 0 0 31.63 31.64 31.66 31.66 0 0 0 31.64-31.64 31.66 31.66 0 0 0-31.64-31.64z" fill="#4F7BEB"/><path d="M106.94 221.48a29.94 29.94 0 0 1-29.9-29.9 29.94 29.94 0 0 1 29.9-29.9 29.94 29.94 0 0 1 29.9 29.9 29.94 29.94 0 0 1-29.9 29.9zm0-59.1c-16.1 0-29.2 13.1-29.2 29.2s13.1 29.2 29.2 29.2 29.21-13.1 29.21-29.2-13.1-29.2-29.2-29.2z" fill="#4F7BEB"/><path d="M69.15 179.62l-.66-.2a41.65 41.65 0 0 1 2.33-5.78l.63.32c-.9 1.8-1.67 3.72-2.3 5.66zM68.63 181.4l-.66-.18c.1-.31.17-.66.28-.97l.66.2c-.1.28-.17.63-.28.95zM70.27 188.18l-.7-.08a36.78 36.78 0 0 1 4.83-15.19l.6.35a36.3 36.3 0 0 0-4.73 14.92z" fill="#ECF1FF"/><path d="M106.94 226a34.45 34.45 0 0 1-34.41-34.42 34.45 34.45 0 0 1 34.41-34.42 34.45 34.45 0 0 1 34.43 34.42A34.45 34.45 0 0 1 106.94 226zm0-66.06a31.66 31.66 0 0 0-31.63 31.64 31.66 31.66 0 0 0 31.63 31.64 31.66 31.66 0 0 0 31.64-31.64 31.66 31.66 0 0 0-31.64-31.64z" fill="#4F7BEB"/><path d="M107.99 145.55h-2.09v48.22H108v-48.22z" fill="#002C9E"/><path d="M99.82 147.6l16.37-2.22a2.66 2.66 0 0 0 2.3-2.65H96.76v2.23a2.73 2.73 0 0 0 3.06 2.64z" fill="#002C9E"/><path d="M160.74 114.73a2.78 2.78 0 1 0-5.45-1.1 2.78 2.78 0 0 0 5.45 1.1z" fill="#FF95A9"/><path d="M155.16 114.3a2.09 2.09 0 1 0-4.08-.83 2.09 2.09 0 0 0 4.08.83z" fill="#FF95A9"/><path d="M157.81 111.4l-4.87.39-.24 4.14 4.76.97.35-5.5z" fill="#FF95A9"/><path d="M153.7 115.9l-.76-4.08-1.39.14-2.08.18-20.73 1.8-9.49-17.27-11.44 7.78 14.6 17.5a4.78 4.78 0 0 0 4.94 1.52h.04l26.32-7.58z" fill="#96B0F4"/><path d="M127.42 123.44l-.24-.63.03-.03 18.15-5.22.21.66-18.15 5.22z" fill="#4F7BEB"/><path d="M152.94 111.8l.77 4.1-3.83 1.07-.41-4.87 2.08-.17 1.4-.14z" fill="#fff"/><path d="M152.94 111.8l.77 4.1-1.78.48-.38-4.45 1.4-.14z" fill="#FF95A9"/><path d="M117.63 105.33a6.95 6.95 0 1 0-8.92-10.67 6.95 6.95 0 0 0 8.92 10.67z" fill="#96B0F4"/><path d="M50.01 101.33a2.78 2.78 0 1 0-.03-5.57 2.78 2.78 0 0 0 .03 5.57z" fill="#FF95A9"/><path d="M54.88 101.33a2.09 2.09 0 1 0-.03-4.18 2.09 2.09 0 0 0 .03 4.18z" fill="#FF95A9"/><path d="M50.76 95.87l4.7 1.35-.56 4.1h-4.87l.73-5.45z" fill="#FF95A9"/><path d="M80.37 118.9a4.73 4.73 0 1 0-6.99-6.37 4.73 4.73 0 0 0 6.99 6.38z" fill="#96B0F4"/><path d="M98.32 106.64l-18.74 12.97-6.12-7.2L89.4 96.09l8.93 10.56z" fill="#96B0F4"/><path d="M73.67 119.2l-20.2-18.43 2.5-3.34 1.19.73 1.77 1.08 20.41 12.41-5.67 7.55z" fill="#96B0F4"/><path d="M56.4 103.45l-2.93-2.68 2.5-3.34 1.19.73 1.77 1.08-2.54 4.2z" fill="#fff"/><path d="M55.94 97.43l-2.47 3.34 1.36 1.25 2.33-3.86-1.22-.73z" fill="#FF95A9"/><path d="M98.33 106.66a6.95 6.95 0 1 0-7.91-11.44 6.95 6.95 0 0 0 7.9 11.44zM113.1 133.2l29.45 1.47v8.03H113.1v-9.5zM99.93 142.18a4.74 4.74 0 0 0 1.94-6.42 4.75 4.75 0 0 0-6.41-1.99 4.75 4.75 0 0 0-1.94 6.42 4.75 4.75 0 0 0 6.41 2z" fill="#96B0F4"/><path d="M113.1 142.7a4.73 4.73 0 1 0 0-9.46 4.73 4.73 0 0 0 0 9.46z" fill="#96B0F4"/><path d="M118.04 97.92l.03 36.5-25.34-.55-3.41-34.53A4.86 4.86 0 0 1 93.9 94l19.02-.94a4.87 4.87 0 0 1 5.1 4.87z" fill="#96B0F4"/><path d="M118.07 133.24l-.24 4.73v.24a4.76 4.76 0 0 1-4.73 4.52H97.7a4.72 4.72 0 0 1-4.73-4.52v-.24l-.24-4.73h25.34z" fill="#96B0F4"/><path d="M101.87 135.75l13.84 26-7.1 3.8L93.5 140.2l8.38-4.45z" fill="#96B0F4"/><path d="M104.6 140.87l-.62.33 7.46 14.03.61-.33-7.46-14.03z" fill="#4F7BEB"/><path d="M94.31 204.35a2.92 2.92 0 1 0-5.11-2.82 2.92 2.92 0 0 0 5.11 2.82z" fill="#96B0F4"/><path d="M99.6 93.71l7.48 24.72 3.55-17.94-.35-7.3-10.67.52z" fill="#fff"/><path d="M110.28 93.19l.35 7.3-1.46 7.48-2.09 10.46-3.09-10.22-4.38-14.5 10.67-.52z" fill="#fff"/><path d="M146.06 140.7a4.03 4.03 0 1 0-7-4.02 4.03 4.03 0 0 0 7 4.02zM115.7 165.6a4.03 4.03 0 1 0-7.06-3.9 4.03 4.03 0 0 0 7.07 3.9z" fill="#96B0F4"/><path d="M89.18 201.53l19.47-39.81 7.02 3.86-21.35 38.8-5.14-2.85z" fill="#96B0F4"/><path d="M109.17 107.97l-2.09 10.46-3.09-10.22 1.6-13.14.7-.04 2.88 12.94zM95.23 208.83l-7.72-4.25 1.67-3.06 5.14 2.82 2.06 3.23c.17.28.17.63.03.9-.24.43-.76.6-1.18.36z" fill="#002C9E"/><path d="M107.82 83.87l-8.68.43.47 9.42 8.68-.44-.47-9.4z" fill="#FF95A9"/><path d="M45.4 70.94l4.07 3.4 7.24.98a2.5 2.5 0 1 1-1.6 4.62l-6.26-3.75-5.32.14a21.13 21.13 0 0 1-14.78-5.53 2.72 2.72 0 0 1-.73-2.89 2.66 2.66 0 0 1 2.4-1.8 21.18 21.18 0 0 1 14.99 4.83z" fill="#FFC359"/><path d="M56.4 80.3c-.46 0-.91-.15-1.3-.36l-6.25-3.75-4.24.1v-.7l4.45-.1 6.43 3.86c.28.18.59.25.94.25a1.8 1.8 0 0 0 1.7-1.22c.1-.31.14-.66.07-.97l.7-.14c.1.45.07.9-.07 1.35a2.63 2.63 0 0 1-2.44 1.67z" fill="#4F7BEB"/><path d="M42.2 71.18c-.2-.14-.4-.28-.62-.38l.35-.6c.2.15.45.29.66.43l-.38.55zm-1.31-.8a19.28 19.28 0 0 0-10.02-2.26l-.03-.7c3.61-.17 7.2.63 10.36 2.34l-.31.62z" fill="#fff"/><path d="M37.3 75.56a21.45 21.45 0 0 1-8.55-4.76 2.7 2.7 0 0 1 1.67-4.7c.94-.06 1.91-.06 2.89 0l-.04.7c-.94-.07-1.84-.07-2.78 0-.8.07-1.5.6-1.77 1.36a2 2 0 0 0 .52 2.15 20.28 20.28 0 0 0 8.27 4.6l-.2.65zM39.11 75.98l-.97-.2.17-.67.94.2-.14.67z" fill="#4F7BEB"/><path d="M122.9 21.26l-3.93 3.58-1.9 7.05a2.5 2.5 0 1 1-4.38-2.23l4.55-5.7.59-5.28a21.2 21.2 0 0 1 7.44-13.94 2.74 2.74 0 0 1 4.45 2.3 21.1 21.1 0 0 1-6.82 14.22z" fill="#FF809F"/><path d="M124.43 8.5l-.52-.46c.07-.07.1-.14.18-.2l.52.45v.03c-.07.07-.1.14-.18.18zm.21-.21l-.52-.45c.52-.6 1.11-1.15 1.7-1.7l.46.51c-.6.52-1.15 1.08-1.64 1.64zM119.98 18.23l-.7-.1.11-.63.7.14c-.04.17-.07.38-.1.6zm.25-1.32l-.7-.14c.63-2.92 1.91-5.6 3.76-7.96l.55.42a18.88 18.88 0 0 0-3.61 7.68z" fill="#fff"/><path d="M114.66 33.74c-.38 0-.76-.1-1.1-.28a2.62 2.62 0 0 1-1.33-1.7c-.07-.35-.07-.7 0-1.05l.7.14a1.75 1.75 0 0 0 .94 1.95c.24.14.52.2.8.2.8 0 1.52-.55 1.73-1.31l1.98-7.24 1.7-1.56.5.52-1.57 1.43-1.91 7.05a2.57 2.57 0 0 1-2.44 1.85zM121.58 22.47l-.48-.52 1.32-1.22a20.6 20.6 0 0 0 6.43-12.13l.7.1c-.7 4.8-3.07 9.25-6.65 12.56l-1.32 1.21zM129.68 7.73l-.7-.07c.04-.2.04-.45.08-.66l.7.04c-.04.24-.08.48-.08.7z" fill="#4F7BEB"/><path d="M168.24 98.2l-5.25.73-5.56 4.72c-1.22 1.01-3.06.7-3.83-.69a2.5 2.5 0 0 1 1.46-3.58l7-2.12 3.47-4.04a21.3 21.3 0 0 1 14.04-7.26 2.7 2.7 0 0 1 2.36 4.35 21.25 21.25 0 0 1-13.69 7.89z" fill="#96B0F4"/><path d="M166.09 95.73l-.53-.45.49-.56.52.45-.48.56zm.93-1.08l-.52-.45.07-.1a20.18 20.18 0 0 1 8.66-5.85l.2.66a18.78 18.78 0 0 0-8.34 5.64l-.07.1zm9.18-5.98l-.2-.66c.86-.24 1.73-.45 2.64-.56l.1.7c-.83.1-1.7.28-2.54.52z" fill="#fff"/><path d="M155.8 104.25c-.91 0-1.78-.5-2.2-1.33a2.63 2.63 0 0 1-.31-1l.7-.07c.03.24.1.48.2.73.32.59.94.94 1.6.94.42 0 .84-.14 1.19-.42l2.08-1.77.45.52-2.08 1.77c-.49.42-1.05.63-1.64.63zM160.17 101.29l-.45-.52 2.96-2.5 5.46-.77a20.36 20.36 0 0 0 11.37-5.56l.48.48a21 21 0 0 1-11.75 5.74l-5.25.73-2.82 2.4zM180.62 91.83l-.49-.48c.45-.46.87-.98 1.29-1.46l.2-.32.63.32a2 2 0 0 1-.28.45l-1.35 1.5z" fill="#4F7BEB"/><path d="M106.94 193.67a2.09 2.09 0 1 0 0-4.17 2.09 2.09 0 0 0 0 4.17z" fill="#fff"/><path d="M106.94 194.36a2.79 2.79 0 0 1-2.78-2.78 2.79 2.79 0 0 1 2.78-2.78 2.79 2.79 0 0 1 2.79 2.78 2.79 2.79 0 0 1-2.79 2.78zm0-4.17a1.4 1.4 0 1 0 0 2.78c.77 0 1.4-.62 1.4-1.39 0-.76-.63-1.39-1.4-1.39z" fill="#002C9E"/><path d="M43.7 53.31l-.59-.38a72.81 72.81 0 0 1 47.56-31.67l.14.7a71.72 71.72 0 0 0-47.1 31.35zM173.04 74.24a72.15 72.15 0 0 0-35.22-44.85l.35-.62a72.65 72.65 0 0 1 35.56 45.26l-.7.21z" fill="#ECF1FF"/><path d="M71.24 31.72l-.31-.63a69.27 69.27 0 0 1 19.78-7.02l.14.7a69.1 69.1 0 0 0-19.61 6.95zM67.24 34.05l-.38-.6c1-.62 2.01-1.24 3.06-1.8l.35.6c-1.01.58-2.02 1.17-3.03 1.8zM34.45 99.03a69.27 69.27 0 0 1 .42-16.72l.7.1A69.07 69.07 0 0 0 35.15 99l-.7.03zM34.66 100.77l-.1-.87.7-.07.1.87-.7.07zM168.87 116.76l-.66-.24a64.64 64.64 0 0 0 3.2-11.61l.69.14c-.7 3.96-1.8 7.89-3.23 11.71zM169.63 72.5a68.19 68.19 0 0 0-7.9-17.1l.6-.38a69.54 69.54 0 0 1 7.96 17.27l-.66.21zM161.15 54.46c-.56-.84-1.15-1.67-1.74-2.5l.56-.42c.59.83 1.18 1.67 1.73 2.54l-.55.38z" fill="#ECF1FF"/><path d="M110.46 75.18l-1.18.42-2.93-8 1.19-.42c2.22-.8 4.65.32 5.45 2.54a4.22 4.22 0 0 1-2.53 5.46zM103.47 86.3l-2.96 1.08a3.2 3.2 0 0 1-4.06-1.87l-1.19-3.24 5.95-2.15 2.26 6.19z" fill="#002C9E"/><path d="M109.59 75.25l-3.24 1.18-3.75-10.32 2.89-1.05a3.77 3.77 0 0 1 4.86 2.26l1.29 3.55a3.43 3.43 0 0 1-2.05 4.38z" fill="#002C9E"/><path d="M112.44 86.45L101.9 90.3l-4.34-11.85a6.96 6.96 0 0 1 12.93-5.11l3.76 8.9c.73 1.7-.1 3.61-1.81 4.2z" fill="#FF95A9"/><path d="M97.45 69.83l.9-.32 4.08 11.16-6.82 2.5-1.91-5.24a6.27 6.27 0 0 1 3.75-8.1z" fill="#002C9E"/><path d="M99.26 83.07l1.77-.66-.66-1.77a1.88 1.88 0 0 0-2.43-1.11 1.88 1.88 0 0 0-1.11 2.43c.35.97 1.46 1.5 2.43 1.11z" fill="#FF95A9"/><path d="M110.8 71.22l-6.74 2.47c-2.75 1-5.8-.42-6.81-3.17a2.53 2.53 0 0 1 1.49-3.23c1.32-.49 2.75.2 3.23 1.5.04.13.21.2.35.17l6.75-2.47 1.73 4.73z" fill="#002C9E"/><path d="M107.4 69.76l-3.38 1.21a2.53 2.53 0 0 1-3.23-1.5 2.53 2.53 0 0 1 1.5-3.22l3.37-1.22c1.32-.49 2.75.2 3.23 1.5a2.5 2.5 0 0 1-1.5 3.23zM115.25 84.64A2.56 2.56 0 0 1 113.8 88l-4.72 1.74a5.01 5.01 0 0 1-6.47-3.03l-2.02-5.56 1.78-.66a2.1 2.1 0 0 0 2.7 1.25l7.8-2.85 2.4 5.74z" fill="#002C9E"/><path d="M108.3 82.13a1.9 1.9 0 0 0 2.44 1.15 1.9 1.9 0 0 0 1.14-2.43l-3.58 1.28z" fill="#fff"/><path d="M106.14 231.56H47.77v.7h58.37v-.7zM65.26 236.88h-24.1v.7h24.1v-.7zM131.1 236.88H80.78v.7h50.34v-.7zM37.65 231.67H22.43v.7h15.22v-.7zM162.71 231.56H117.8v.7h44.92v-.7z" fill="#ECF1FF"/><path d="M188.27 226H6.05v.7h182.22v-.7z" fill="#C8D7FF"/><path d="M126.66 226H73.92v.7h52.74v-.7zM137.96 226h-7.83v.7h7.83v-.7zM64.53 226h-3.9v.7h3.9v-.7z" fill="#002C9E"/><path d="M83.03 116.37l-.75.52.4.57.74-.52-.4-.57zM93.16 109.37l-9.26 6.4.4.58 9.26-6.4-.4-.58zM126.1 123.65a4.8 4.8 0 0 1-3.65-1.7l-.17-.22-3.24-3.86.53-.45 3.44 4.1a4 4 0 0 0 3.1 1.47v.66zM138.17 142h-17.5v.7h17.5v-.7z" fill="#4F7BEB"/></svg>