<svg width="285" height="165" fill="none" xmlns="http://www.w3.org/2000/svg"><g clip-path="url(#clip0)"><path d="M30.8 157.37h229.3c35.93-20.89 23.47-41.25 13.51-48.43-13.6-9.85-8.04-3.98-19.76-13.24-24.26-19.2 14.91-61.43-16.98-74.05-20.75-8.2-43.33 17.68-68.2-1.36-26.69-20.45-51.5-23.57-72.05 2.77-15.95 20.43-39.52 9.25-54.47 7.26-20.94-2.8-39.08 22.74-18.83 49.06 12.13 15.74-63.35 39.33 7.48 78z" fill="#F7FAFF"/><path d="M83.6 4.48c-.2-1.82-.73-3.07-2-3.76-3.77-2.04-13.2 1.27-17.1 6.37-5.48 7.12-.49 18.05 4.83 18.75 6.2.8 15.34-11.93 14.28-21.36z" fill="#F7FAFF"/><path d="M241.15 81.5c-.68 3.15-1.83 6.18-2.73 9.27-.93 3.2-1.87 6.43-1.87 9.73.02 4.32 1.73 8.6 4.69 11.74 1.15 1.23 2.52 2.31 3.42 3.75.9 1.43 1.22 3.4.23 4.76-1.43 1.96-4.53 1.54-6.63 2.77-2.66 1.55-3.03 5.5-1.5 8.16 1.5 2.68 8.38 10.3 18.2 8.43 4.4-.85 10.36-5.04 10.2-9.5-.19-4.66-4.63-8.43-4.49-13.08.1-3.05 2.15-5.64 3.93-8.1 1.78-2.48 3.42-5.5 2.61-8.47-1.2-4.32-6.77-5.66-9.47-9.26-1.74-2.31-2.13-5.36-2.24-8.25-.12-2.9-.03-5.85-1-8.6-2.35-6.6-10.65-5.82-13.35 6.66z" fill="#C8D7FF"/><path d="M251.7 98.17h-.46v50.2h.47v-50.2z" fill="#002C9E"/><path d="M251.7 112.68l-.46-.07c.74-4.55 5.92-7.37 6.13-7.49l.2.42c-.02 0-5.17 2.82-5.86 7.14zM251.24 132.44c-.5-3.07-4.16-5.06-4.2-5.08l.2-.42c.17.1 3.91 2.13 4.44 5.43l-.44.07z" fill="#002C9E"/><path d="M254.04 157.14h-5.2a5.7 5.7 0 0 1-5.7-5.7v-4.79h16.63v4.78a5.75 5.75 0 0 1-5.73 5.71z" fill="#ECF1FF"/><path d="M246.07 156.7a5.95 5.95 0 0 1-3.2-5.26v-1.76h.47v1.75c0 2.06 1.13 3.91 2.94 4.86l-.21.41z" fill="#002C9E"/><path d="M259.75 148.13H243.1v.46h16.64v-.46z" fill="#fff"/><path d="M259.77 146.4h-10.6v.46h10.6v-.46zM262.29 157.14h-10.65v.47h10.65v-.47z" fill="#002C9E"/><path d="M225.13 60.02H63.37v97.35h161.76V60.02z" fill="#fff"/><path d="M154.72 67.5h-20.96v16.48h20.96V67.5z" fill="#F7FAFF"/><path d="M175.68 67.5h-20.96v16.48h20.96V67.5z" fill="#fff"/><path d="M112.96 67.5H92v16.48h20.96V67.5z" fill="#F7FAFF"/><path d="M133.94 67.5h-20.96v16.48h20.96V67.5zM196.66 67.5H175.7v16.48h20.96V67.5zM217.62 67.5h-20.96v16.48h20.96V67.5z" fill="#ECF1FF"/><path d="M91.81 83.98H70.85v16.48h20.96V83.98z" fill="#F7FAFF"/><path d="M112.77 83.98H91.81v16.48h20.96V83.98z" fill="#fff"/><path d="M133.73 83.98h-20.96v16.48h20.96V83.98zM154.72 83.98h-20.96v16.48h20.96V83.98zM175.68 83.98h-20.96v16.48h20.96V83.98z" fill="#ECF1FF"/><path d="M196.66 83.98H175.7v16.48h20.96V83.98z" fill="#fff"/><path d="M217.62 83.98h-20.96v16.48h20.96V83.98z" fill="#ECF1FF"/><path d="M91.81 100.46H70.85v16.47h20.96v-16.47z" fill="#F7FAFF"/><path d="M112.77 100.46H91.81v16.47h20.96v-16.47z" fill="#fff"/><path d="M133.73 100.46h-20.96v16.47h20.96v-16.47z" fill="#fff"/><path d="M154.72 100.46h-20.96v16.47h20.96v-16.47z" fill="#ECF1FF"/><path d="M175.68 100.46h-20.96v16.47h20.96v-16.47z" fill="#fff"/><path d="M196.66 100.46H175.7v16.47h20.96v-16.47z" fill="#ECF1FF"/><path d="M217.62 100.46h-20.96v16.47h20.96v-16.47zM91.81 116.93H70.85v16.48h20.96v-16.48z" fill="#fff"/><path d="M112.77 116.93H91.81v16.48h20.96v-16.48z" fill="#ECF1FF"/><path d="M133.73 116.93h-20.96v16.48h20.96v-16.48z" fill="#ECF1FF"/><path d="M154.72 116.93h-20.96v16.48h20.96v-16.48z" fill="#fff"/><path d="M175.68 116.93h-20.96v16.48h20.96v-16.48z" fill="#ECF1FF"/><path d="M196.66 116.93H175.7v16.48h20.96v-16.48z" fill="#F7FAFF"/><path d="M217.62 116.93h-20.96v16.48h20.96v-16.48zM91.81 133.41H70.85v16.48h20.96V133.4z" fill="#ECF1FF"/><path d="M112.77 133.41H91.81v16.48h20.96V133.4z" fill="#F7FAFF"/><path d="M133.73 133.41h-20.96v16.48h20.96V133.4z" fill="#fff"/><path d="M154.72 133.41h-20.96v16.48h20.96V133.4z" fill="#ECF1FF"/><path d="M225.13 45.04H63.37v14.98h161.76V45.04z" fill="#C8D7FF"/><path d="M79.01 54.77a2.24 2.24 0 1 0 0-4.48 2.24 2.24 0 0 0 0 4.48zM209.46 54.77a2.24 2.24 0 1 0 0-4.48 2.24 2.24 0 0 0 0 4.48z" fill="#fff"/><path d="M79.01 52.99a3.77 3.77 0 0 1-3.77-3.77V44.9h.93v4.32A2.84 2.84 0 0 0 79 52.07v.92zM76.2 44.9h-.93v-1.2a3.77 3.77 0 0 1 3.76-3.77v.93a2.84 2.84 0 0 0-2.84 2.84v1.2z" fill="#002C9E"/><path d="M82.78 45.04h-.93V43.7a2.84 2.84 0 0 0-2.84-2.84v-.93a3.77 3.77 0 0 1 3.77 3.77v1.34z" fill="#002C9E"/><path d="M92.07 54.77a2.24 2.24 0 1 0 0-4.48 2.24 2.24 0 0 0 0 4.48z" fill="#fff"/><path d="M92.07 52.99a3.77 3.77 0 0 1-3.77-3.77V44.9h.92v4.32a2.84 2.84 0 0 0 2.85 2.85v.92zM89.22 44.9h-.92v-1.2a3.77 3.77 0 0 1 3.77-3.77v.93a2.84 2.84 0 0 0-2.85 2.84v1.2z" fill="#002C9E"/><path d="M95.81 45.04h-.92V43.7a2.84 2.84 0 0 0-2.85-2.84v-.93a3.77 3.77 0 0 1 3.77 3.77v1.34z" fill="#002C9E"/><path d="M105.1 54.77a2.24 2.24 0 1 0 0-4.48 2.24 2.24 0 0 0 0 4.48z" fill="#fff"/><path d="M105.1 52.99a3.77 3.77 0 0 1-3.77-3.77V44.9h.93v4.32a2.84 2.84 0 0 0 2.84 2.85v.92zM102.28 44.9h-.92v-1.2a3.77 3.77 0 0 1 3.76-3.77v.93a2.84 2.84 0 0 0-2.84 2.84v1.2z" fill="#002C9E"/><path d="M108.87 45.04h-.93V43.7a2.84 2.84 0 0 0-2.84-2.84v-.93a3.77 3.77 0 0 1 3.77 3.77v1.34z" fill="#002C9E"/><path d="M118.16 54.77a2.24 2.24 0 1 0 0-4.48 2.24 2.24 0 0 0 0 4.48z" fill="#fff"/><path d="M118.16 52.99a3.77 3.77 0 0 1-3.77-3.77V44.9h.92v4.32a2.84 2.84 0 0 0 2.85 2.85v.92zM115.31 44.9h-.92v-1.2a3.77 3.77 0 0 1 3.77-3.77v.93a2.84 2.84 0 0 0-2.84 2.84v1.2z" fill="#002C9E"/><path d="M121.9 45.04h-.92V43.7a2.84 2.84 0 0 0-2.85-2.84v-.93a3.77 3.77 0 0 1 3.77 3.77v1.34z" fill="#002C9E"/><path d="M131.2 54.77a2.24 2.24 0 1 0 0-4.48 2.24 2.24 0 0 0 0 4.48z" fill="#fff"/><path d="M131.2 52.99a3.77 3.77 0 0 1-3.78-3.77V44.9h.93v4.32a2.84 2.84 0 0 0 2.84 2.85v.92zM128.37 44.9h-.92v-1.2a3.77 3.77 0 0 1 3.76-3.77v.93a2.84 2.84 0 0 0-2.84 2.84v1.2z" fill="#002C9E"/><path d="M134.96 45.04h-.93V43.7a2.84 2.84 0 0 0-2.84-2.84v-.93a3.77 3.77 0 0 1 3.77 3.77v1.34z" fill="#002C9E"/><path d="M144.25 54.77a2.24 2.24 0 1 0 0-4.48 2.24 2.24 0 0 0 0 4.48z" fill="#fff"/><path d="M144.25 52.99a3.77 3.77 0 0 1-3.77-3.77V44.9h.93v4.32a2.84 2.84 0 0 0 2.84 2.85v.92zM141.4 44.9h-.92v-1.2a3.77 3.77 0 0 1 3.77-3.77v.93a2.84 2.84 0 0 0-2.84 2.84v1.2z" fill="#002C9E"/><path d="M148 45.04h-.93V43.7a2.84 2.84 0 0 0-2.84-2.84v-.93a3.77 3.77 0 0 1 3.76 3.77v1.34z" fill="#002C9E"/><path d="M157.28 54.77a2.24 2.24 0 1 0 0-4.48 2.24 2.24 0 0 0 0 4.48z" fill="#fff"/><path d="M157.28 52.99a3.77 3.77 0 0 1-3.77-3.77V44.9h.93v4.32a2.84 2.84 0 0 0 2.84 2.85v.92zM154.44 44.9h-.93v-1.2a3.77 3.77 0 0 1 3.77-3.77v.93a2.84 2.84 0 0 0-2.84 2.84v1.2zM161.05 45.04h-.93V43.7a2.84 2.84 0 0 0-2.84-2.84v-.93a3.77 3.77 0 0 1 3.77 3.77v1.34z" fill="#002C9E"/><path d="M170.31 54.77a2.24 2.24 0 1 0 0-4.48 2.24 2.24 0 0 0 0 4.48z" fill="#fff"/><path d="M170.31 52.99a3.77 3.77 0 0 1-3.76-3.77V44.9h.92v4.32a2.84 2.84 0 0 0 2.84 2.85v.92zM167.5 44.9h-.93v-1.2a3.77 3.77 0 0 1 3.77-3.77v.93a2.84 2.84 0 0 0-2.84 2.84v1.2z" fill="#002C9E"/><path d="M174.08 45.04h-.92V43.7a2.84 2.84 0 0 0-2.84-2.84v-.93a3.77 3.77 0 0 1 3.76 3.77v1.34z" fill="#002C9E"/><path d="M183.37 54.77a2.24 2.24 0 1 0 0-4.48 2.24 2.24 0 0 0 0 4.48z" fill="#fff"/><path d="M183.37 52.99a3.77 3.77 0 0 1-3.77-3.77V44.9h.93v4.32a2.84 2.84 0 0 0 2.84 2.85v.92zM180.53 44.9h-.93v-1.2a3.77 3.77 0 0 1 3.77-3.77v.93a2.84 2.84 0 0 0-2.84 2.84v1.2z" fill="#002C9E"/><path d="M187.14 45.04h-.93V43.7a2.84 2.84 0 0 0-2.84-2.84v-.93a3.77 3.77 0 0 1 3.77 3.77v1.34z" fill="#002C9E"/><path d="M196.4 54.77a2.24 2.24 0 1 0 0-4.48 2.24 2.24 0 0 0 0 4.48z" fill="#fff"/><path d="M196.4 52.99a3.77 3.77 0 0 1-3.76-3.77V44.9h.92v4.32a2.84 2.84 0 0 0 2.84 2.85v.92zM193.59 44.9h-.93v-1.2a3.77 3.77 0 0 1 3.77-3.77v.93a2.84 2.84 0 0 0-2.84 2.84v1.2z" fill="#002C9E"/><path d="M200.17 45.04h-.92V43.7a2.84 2.84 0 0 0-2.84-2.84v-.93a3.77 3.77 0 0 1 3.76 3.77v1.34zM209.46 52.99a3.77 3.77 0 0 1-3.77-3.77V44.9h.93v4.32a2.84 2.84 0 0 0 2.84 2.85v.92zM206.62 44.9h-.92v-1.2a3.77 3.77 0 0 1 3.76-3.77v.93a2.84 2.84 0 0 0-2.84 2.84v1.2z" fill="#002C9E"/><path d="M213.2 45.04h-.92V43.7a2.84 2.84 0 0 0-2.84-2.84v-.93a3.77 3.77 0 0 1 3.77 3.77v1.34z" fill="#002C9E"/><path d="M225.13 45.04l22.49 112.33h-22.49V45.05z" fill="#4F7BEB"/><path d="M92.04 120.4h-.46v29.49h.46v-29.5zM92.04 98.3h-.46v15.72h.46V98.31zM92.04 75.75h-.46v10.93h.46V75.75zM113 109.81h-.46v34.48h.46v-34.47zM113 67.5h-.46v34.74h.46V67.5zM133.99 75.75h-.47v74.14h.47V75.75zM154.95 90.15h-.46v50.68h.46V90.15zM175.93 103.28h-.46v21.4h.46v-21.4zM175.93 67.5h-.46v26.42h.46V67.5zM196.9 74.92h-.47v46.73h.46V74.92z" fill="#C8D7FF"/><path d="M209.44 83.75H86.66v.46h122.78v-.46zM139.05 100.22h-2.73v.47h2.73v-.47zM190.58 100.22H142.8v.47h47.8v-.47zM202.32 116.7H121.4v.46h80.93v-.46zM103.5 116.7H70.86v.46h32.66v-.46zM183.37 133.18H78.34v.46h105.03v-.46z" fill="#C8D7FF"/><path d="M190.58 72.15h-50.75v7.23h50.75v-7.23z" fill="#FF95A9"/><path d="M123.47 105.08H70.85v7.23h52.62v-7.23z" fill="#4F7BEB"/><path d="M107.92 122.04H70.85v7.23h37.07v-7.23z" fill="#96B0F4"/><path d="M102.49 88.62H70.85v7.24h31.64v-7.24z" fill="#FFD259"/><path d="M142 130.45l-4.4-4.41.64-.65 3.77 3.74 9.06-9.05.67.64-9.73 9.73z" fill="#FF95A9"/><path d="M63.6 93.8h-.47v8.34h.47V93.8zM63.6 45.04h-.47v32.54h.47V45.04z" fill="#96B0F4"/><path d="M127.15 160.84H63.92v.46h63.23v-.46zM78.16 164.38H41.92v.46h36.24v-.46zM143.9 164.38H98.8v.46h45.1v-.46zM47.63 160.91H30.32v.46h17.3v-.46z" fill="#C8D7FF"/><path d="M206.21 127.43l-22.34 19.84 4.15 4.67 22.33-19.85-4.14-4.66z" fill="#FF95A9"/><path d="M206.35 133.26l-21.21 12.25 3.12 5.4 21.21-12.24-3.12-5.4z" fill="#96B0F4"/><path d="M199.3 137.34l-8 4.62 8-4.62z" fill="#ECF1FF"/><path d="M199.17 137.13l-7.98 4.6.23.4 7.98-4.6-.23-.4z" fill="#002C9E"/><path d="M206.34 133.27l-5.73 3.3 5.73-3.3z" fill="#ECF1FF"/><path d="M206.23 133.05l-5.74 3.31.23.4 5.74-3.31-.23-.4z" fill="#002C9E"/><path d="M205.42 136.04l-5.83 3.38 5.83-3.38z" fill="#ECF1FF"/><path d="M205.28 135.84l-5.82 3.36.23.4 5.82-3.36-.23-.4z" fill="#fff"/><path d="M206.53 137.85l-1.64.94 1.64-.94z" fill="#ECF1FF"/><path d="M206.4 137.64l-1.65.95.23.4 1.64-.95-.23-.4z" fill="#fff"/><path d="M182.1 157.37h22.63l1.91-16.61H182.1v16.61z" fill="#4F7BEB"/><path d="M197.4 157.38h-20.73l-1.92-16.62h24.54l-1.9 16.62z" fill="#FFD259"/><path d="M206.64 147.65h-8.18l-11.55-6.68.23-.4 11.46 6.61h8.04v.47z" fill="#002C9E"/><path d="M207.64 140.53h-28.66v.46h28.66v-.46zM177.9 140.53h-4.14v.46h4.14v-.46z" fill="#002C9E"/><path d="M174.01 160.84h-35.05v.46H174v-.46z" fill="#C8D7FF"/><path d="M278.33 157.14H1.96v.47h276.37v-.47z" fill="#96B0F4"/><path d="M221.13 157.14h-1.9v.47h1.9v-.47zM269.38 157.14h-4.06v.47h4.06v-.47zM262.15 157.14h-12.7v.47h12.7v-.47zM60.1 157.14H38.39v.47h21.73v-.47zM64.91 157.14H63.3v.47h1.61v-.47zM23.78 157.14h-1.62v.47h1.62v-.47z" fill="#002C9E"/><path d="M226.89 160.84h-13.4v.46h13.4v-.46zM163.4 164.38h-5.66v.46h5.66v-.46zM22.16 160.91H16.5v.46h5.66v-.46z" fill="#C8D7FF"/><path d="M183.37 79.13h-43.54v.46h43.54v-.46zM85.85 95.6h-15v.47h15v-.47zM93.64 95.6h-5.78v.47h5.78v-.47zM102.51 95.6h-1.25v.47h1.25v-.47zM121.46 59.78h-58.1v.47h58.1v-.47zM140.94 59.71h-15.5v.47h15.5v-.47zM149.63 59.78h-5.38v.47h5.38v-.47zM225.1 59.88h-37.22v.46h37.23v-.46z" fill="#4F7BEB"/><path d="M195.41 157.14h-3.4v.47h3.4v-.47zM217.76 157.14h-20.3v.47h20.3v-.47zM98.95 112.08h-28.1v.46h28.1v-.46zM103.5 112.08h-1.64v.46h1.65v-.46zM118.06 112.08H105.6v.46h12.47v-.46z" fill="#002C9E"/><path d="M217.62 100.22h-9.75v.47h9.75v-.47z" fill="#C8D7FF"/><path d="M65.18 87.52a3.14 3.14 0 1 0-6.27-.37 3.14 3.14 0 0 0 6.27.37z" fill="#4F7BEB"/><path d="M46.7 85.23L61 90.3l2.65-5.66-13-7.74-3.94 8.32z" fill="#4F7BEB"/><path d="M52.63 82.42a4.62 4.62 0 1 0-8.7-3.1 4.62 4.62 0 0 0 8.7 3.1zM39.72 83.22l-7.69 13.05-5.69-2.65 5.07-14.29 8.31 3.89z" fill="#4F7BEB"/><path d="M39.74 83.23a4.62 4.62 0 1 0-7.96-4.7 4.62 4.62 0 0 0 7.96 4.7zM50.29 105.84l-.97 19.57h-5.34v-19.57h6.3zM36.88 108.98a3.14 3.14 0 1 0 0-6.28 3.14 3.14 0 0 0 0 6.28z" fill="#4F7BEB"/><path d="M47.12 108.98a3.14 3.14 0 1 0 0-6.28 3.14 3.14 0 0 0 0 6.28zM51.56 79.63l-1.14 23.05H33.58l-1.13-23.05a3.24 3.24 0 0 1 3.23-3.4h12.64a3.24 3.24 0 0 1 3.24 3.4z" fill="#4F7BEB"/><path d="M50.42 102.67l-.16 3.15v.16c-.09 1.69-1.48 3-3.14 3H36.91a3.13 3.13 0 0 1-3.15-3v-.16l-.16-3.14h16.82zM31.15 156.77a1.94 1.94 0 1 0 0-3.88 1.94 1.94 0 0 0 0 3.88zM45.92 156.77a1.94 1.94 0 1 0 0-3.88 1.94 1.94 0 0 0 0 3.88z" fill="#4F7BEB"/><path d="M39.47 76.26l4.16 16.64 2.94-11.79v-4.85h-7.1z" fill="#fff"/><path d="M46.57 76.26v4.85l-1.23 4.93-1.71 6.86-1.71-6.86-2.45-9.78h7.1z" fill="#fff"/><path d="M46.66 128.1a2.68 2.68 0 1 0 0-5.37 2.68 2.68 0 0 0 0 5.36z" fill="#4F7BEB"/><path d="M43.98 154.83v-29.42h5.34l-1.44 29.42h-3.9zM42.01 111.1a8.43 8.43 0 1 0 0-16.86 8.43 8.43 0 0 0 0 16.87z" fill="#4F7BEB"/><path d="M45.34 86.04l-1.71 6.86-1.71-6.86 1.48-8.7h.46l1.48 8.7zM49.85 157.14h-5.87v-2.3h3.9l2.24 1.22c.19.09.3.3.3.5 0 .33-.27.58-.57.58z" fill="#002C9E"/><path d="M45.25 70h-5.78v6.26h5.78V70z" fill="#FF95A9"/><path d="M48.62 65.08l-.83.07-.46-5.67.83-.07a2.83 2.83 0 0 1 3.05 2.6 2.83 2.83 0 0 1-2.59 3.07zM42.17 70.97l-2.1.16a2.1 2.1 0 0 1-2.26-1.92l-.19-2.29 4.18-.34.37 4.39z" fill="#002C9E"/><path d="M48.04 64.98l-2.26.19-.58-7.28 2.04-.16a2.5 2.5 0 0 1 2.7 2.3l.2 2.5a2.3 2.3 0 0 1-2.1 2.45z" fill="#002C9E"/><path d="M47.88 72.66l-7.44.6-.67-8.37a4.63 4.63 0 0 1 9.2-.97l.83 6.38a2.1 2.1 0 0 1-1.92 2.36z" fill="#FF95A9"/><path d="M41.23 59.32l.62-.04.62 7.88-4.8.39-.3-3.7a4.23 4.23 0 0 1 3.86-4.53z" fill="#002C9E"/><path d="M40.05 68.15l1.25-.1-.1-1.24c-.04-.7-.67-1.2-1.36-1.16-.7.05-1.2.67-1.16 1.37.07.67.67 1.18 1.37 1.13z" fill="#FF95A9"/><path d="M49.55 62.58l-4.76.4a3.54 3.54 0 0 1-3.82-3.24 1.68 1.68 0 0 1 3.35-.26c0 .1.1.17.19.17l4.76-.4.28 3.33z" fill="#002C9E"/><path d="M47.63 61.05l-2.38.19a1.68 1.68 0 0 1-.26-3.35l2.38-.19a1.68 1.68 0 0 1 .26 3.35zM50.03 71.96c.12.95-.58 1.83-1.52 1.9l-3.33.28a3.38 3.38 0 0 1-3.63-3.08l-.32-3.93 1.24-.09c.07.76.74 1.34 1.5 1.3l5.5-.44.56 4.06z" fill="#002C9E"/><path d="M48.95 69.05c.06.7-.47 1.32-1.16 1.39-.7.07-1.32-.46-1.39-1.16l2.55-.23z" fill="#fff"/><path d="M32.39 95.27a3.14 3.14 0 1 0-6.17-1.19 3.14 3.14 0 0 0 6.17 1.19z" fill="#4F7BEB"/><path d="M56.63 83.18l-35.56 20.53 3.61 6.27 35.57-20.53-3.62-6.27z" fill="#C8D7FF"/><path d="M51.47 96.8a1.85 1.85 0 1 0-1.8-3.23 1.85 1.85 0 0 0 1.8 3.22z" fill="#FF95A9"/><path d="M48.2 97.57a1.39 1.39 0 1 0-1.36-2.42 1.39 1.39 0 0 0 1.36 2.42z" fill="#FF95A9"/><path d="M50.98 96.99l-3.17.72-1-2.57 2.85-1.57 1.32 3.42z" fill="#FF95A9"/><path d="M29.9 91.56L47.77 95l-.26 2.75H45.2l-15.87.07.57-6.26z" fill="#4F7BEB"/><path d="M45.18 94.5l2.59.5-.26 2.75H45.2l-.02-3.26z" fill="#fff"/><path d="M47.51 97.75l.26-2.75-1.2-.23.02 2.98h.92zM85.2 90a1.85 1.85 0 1 0-3.68-.21 1.85 1.85 0 0 0 3.69.22z" fill="#FF95A9"/><path d="M81.47 90.25a1.39 1.39 0 1 0-2.76-.16 1.39 1.39 0 0 0 2.76.16z" fill="#FF95A9"/><path d="M82.94 88.12l-3.17.71.23 2.73 3.24.18-.3-3.62z" fill="#FF95A9"/><path d="M80.44 88.83L80 91.56 61.84 90.5l1-6.2 15.36 3.95 1.34.35.9.23z" fill="#4F7BEB"/><path d="M80.44 88.83L80 91.56l-2.63-.16.83-3.15 1.34.35.9.23z" fill="#fff"/><path d="M80.44 88.83L80 91.56l-1.22-.07.76-2.89.9.23z" fill="#FF95A9"/><path d="M33.74 105.54l-4.53 49.1 3.88.47 6.94-48.83-6.29-.74z" fill="#4F7BEB"/><path d="M35.08 157.14h-5.87v-2.3h3.9l2.25 1.22c.18.09.3.3.3.5 0 .33-.26.58-.58.58zM31.12 105.98l-6.56 3.8.23.4 6.56-3.8-.23-.4zM37.57 102.26l-5.32 3.07.23.4 5.32-3.07-.23-.4zM39.92 100.9l-1.28.74.23.4 1.28-.73-.23-.4zM50.07 105.32l-.9 18.33.46.02.9-18.33-.46-.02zM49 127.15l-.24 4.73.46.03.23-4.73-.46-.03zM48.73 132.86l-.06 1.26.46.03.06-1.27-.46-.02z" fill="#002C9E"/><path d="M35.21 138.5l-2.35 16.59.46.06 2.35-16.59-.46-.06zM35.83 134.09l-.31 2.2.45.06.32-2.2-.46-.06zM37.1 87.23l-2.5 4.21.4.24 2.5-4.22-.4-.23zM35.75 98.05v-.46l9.43-.07v.46l-9.43.07z" fill="#002C9E"/><path d="M182.09 87.5l-.66.65 8.81 8.8.65-.65-8.8-8.8z" fill="#96B0F4"/><path d="M190.26 87.5l-8.8 8.81.64.65 8.81-8.8-.65-.66z" fill="#96B0F4"/><path d="M84.9 129.02H70.85v.46H84.9v-.46zM94.52 129.02h-6.66v.46h6.66v-.46z" fill="#4F7BEB"/><path d="M181.13 74.48h-38.64v.46h38.64v-.46zM168.12 76.54h-5.99V77h5.99v-.46zM159.92 76.54h-11.26V77h11.26v-.46zM112.73 107.44H74.09v.46h38.64v-.47zM99.72 109.5h-5.99v.45h5.99v-.46zM99.02 90.96H87.17v.46h11.85v-.46zM96.71 93.02h-2.98v.46h2.98v-.46zM105.22 124.37H92.64v.47h12.58v-.47zM80.74 126.43H74.1v.46h6.65v-.46z" fill="#fff"/></g><defs><clipPath id="clip0"><path fill="#fff" d="M0 0h284.24v165H0z"/></clipPath></defs></svg>