<svg width="301" height="171" fill="none" xmlns="http://www.w3.org/2000/svg"><path d="M260.82 160.901H41.716c-28.121-31.273-37.957-66.74-27.711-74.149 14.029-10.12 52.963 29.193 66.677 22.226 39.186-19.893-35.278-81.4-9.458-88.902 23.77-6.905 41.803 49.432 62.232 33.606 14.186-10.971 1.229-28.846 3.846-42.717C141.4-11.04 176.898.245 208.077 55.32c13.147 23.203 31.148-20.145 45.807-25.252 13.619-4.729 36.003 24.937 35.593 64.754-.221 20.492-8.796 43.978-28.657 66.078z" fill="#F7FAFF"/><path d="M157.573 112.856l13.871 47.73h1.577l-11.318-47.73h-4.13zM143.103 112.856l-13.872 47.73h-1.576l11.318-47.73h4.13z" fill="#ECF1FF"/><path d="M150.322 126.885c12.884 0 23.329-10.445 23.329-23.329 0-12.885-10.445-23.33-23.329-23.33s-23.329 10.445-23.329 23.33c0 12.884 10.445 23.329 23.329 23.329z" fill="#FF809F"/><path d="M172.926 110.554l-.599-.189a22.57 22.57 0 0 0 1.041-6.81c0-3.467-.757-6.778-2.207-9.867l.567-.284c1.513 3.184 2.27 6.589 2.27 10.151a25.115 25.115 0 0 1-1.072 6.999zM143.292 126.128c-8.607-2.68-15.038-10.183-16.362-19.073l.63-.095c1.293 8.67 7.535 15.952 15.921 18.569l-.189.599zM171.161 114.779l-.568-.316c.41-.725.757-1.513 1.072-2.269l.599.252c-.347.788-.694 1.576-1.103 2.333zM99.881 144.381a4.608 4.608 0 0 1-4.603-4.602 4.608 4.608 0 0 1 4.603-4.603 4.608 4.608 0 0 1 4.603 4.603c0 2.522-2.081 4.602-4.603 4.602zm0-8.575c-2.175 0-3.972 1.797-3.972 3.973 0 2.175 1.797 3.972 3.972 3.972s3.972-1.797 3.972-3.972a3.976 3.976 0 0 0-3.972-3.973z" fill="#002C9E"/><path d="M115.013 139.779H84.749v20.807h30.264v-20.807z" fill="#FF95A9"/><path d="M115.013 139.779h-3.152v20.807h3.152v-20.807zM111.861 149.867H84.749v.63h27.112v-.63z" fill="#002C9E"/><path d="M100.512 149.867h-4.414v2.837h4.414v-2.837z" fill="#fff"/><path d="M161.829 112.257c0 1.513-.284 2.963-.82 4.287h-21.311a11.403 11.403 0 0 1-.82-4.287c0-6.337 5.139-11.507 11.507-11.507 6.305.031 11.444 5.17 11.444 11.507z" fill="#002C9E"/><path d="M150.322 115.409a3.153 3.153 0 1 0 0-6.305 3.153 3.153 0 0 0 0 6.305z" fill="#002C9E"/><path d="M179.968 96.007a4.287 4.287 0 1 0-7.57-4.027 4.287 4.287 0 0 0 7.57 4.027z" fill="#4F7BEB"/><path d="M155.902 88.076l18.254 9.71 4.728-7.124-16.046-13.02-6.936 10.434z" fill="#FFC359"/><path d="M164.443 85.482a6.305 6.305 0 1 0-11.133-5.922 6.305 6.305 0 0 0 11.133 5.922zM145.404 87.698l-16.992 11.759-5.549-6.526 14.407-14.817 8.134 9.584z" fill="#FFC359"/><path d="M145.398 87.712a6.305 6.305 0 1 0-7.179-10.367 6.305 6.305 0 0 0 7.179 10.367z" fill="#FFC359"/><path d="M143.355 120.863a4.287 4.287 0 1 0 0-8.575 4.287 4.287 0 0 0 0 8.575zM157.321 120.863a4.287 4.287 0 1 0 0-8.575 4.287 4.287 0 0 0 0 8.575z" fill="#002C9E"/><path d="M163.374 80.857l-1.545 31.431h-22.982l-1.545-31.431a4.42 4.42 0 0 1 4.414-4.634h17.244a4.42 4.42 0 0 1 4.414 4.634z" fill="#FFC359"/><path d="M161.829 112.257l-.221 4.287v.221c-.126 2.301-2.017 4.098-4.287 4.098h-13.934a4.276 4.276 0 0 1-4.288-4.098v-.221l-.221-4.287h22.951zM158.992 160.081a2.648 2.648 0 1 0 0-5.296 2.648 2.648 0 0 0 0 5.296z" fill="#002C9E"/><path d="M158.014 120.958a3.657 3.657 0 1 0 0-7.315 3.657 3.657 0 0 0 0 7.315z" fill="#002C9E"/><path d="M156.312 157.433l-1.955-40.132h7.283v40.132h-5.328z" fill="#002C9E"/><path d="M164.32 160.586h-8.008v-3.153h5.328l3.058 1.671c.252.126.41.41.41.694a.78.78 0 0 1-.788.788z" fill="#FF95A9"/><path d="M178.183 123.889a2.648 2.648 0 1 0-4.99-1.776 2.648 2.648 0 0 0 4.99 1.776zM140.978 111.686a3.656 3.656 0 1 0-6.89-2.453 3.657 3.657 0 1 0 6.89 2.453z" fill="#002C9E"/><path d="M174.786 125.497l-38.493-11.601 2.459-6.873 37.8 13.462-1.766 5.012z" fill="#002C9E"/><path d="M176.835 129.091l2.68-7.534-2.963-1.072-1.797 5.012.536 3.437a.8.8 0 0 0 .504.63c.441.158.914-.063 1.04-.473zM155.224 67.912l-7.868-.456-.494 8.528 7.868.456.494-8.528z" fill="#FF95A9"/><path d="M154.747 76.46a3.94 3.94 0 1 0-7.867-.456 3.94 3.94 0 0 0 7.867.456z" fill="#FF95A9"/><path d="M140.013 119.287l-5.296-6.526 5.233-5.013 6.274 5.612-6.211 5.927z" fill="#002C9E"/><path d="M96.76 100.245l-.316 3.153-6.273 57.188h-1.608l4.729-60.341h3.468zM243.859 100.245l.347 3.153 6.242 57.188h1.608l-4.698-60.341h-3.499z" fill="#ECF1FF"/><path d="M250.196 100.245H89.887v3.153h160.309v-3.153z" fill="#4F7BEB"/><path d="M130.149 96.763a4.288 4.288 0 1 0-8.417-1.647 4.288 4.288 0 0 0 8.417 1.647z" fill="#FFC359"/><path d="M168.702 98.354h-15.133v1.891h15.133v-1.891z" fill="#002C9E"/><path d="M198.777 78.65l-.788 16.835-.221 4.761h-30.264l1.008-21.596h30.265z" fill="#C8D7FF"/><path d="M185.347 89.432c-.063 1.23-1.103 2.207-2.301 2.207-1.23 0-2.175-.977-2.112-2.207.063-1.23 1.103-2.207 2.301-2.207 1.198 0 2.144 1.01 2.112 2.207z" fill="#fff"/><path d="M197.989 95.485l-.221 4.76h-30.264l30.485-4.76z" fill="#ECF1FF"/><path d="M159.433 61.626l-1.135.095-.63-7.724 1.135-.095c2.143-.157 4.003 1.419 4.161 3.531.189 2.175-1.387 4.035-3.531 4.193zM150.637 69.697l-2.868.22a2.863 2.863 0 0 1-3.09-2.616l-.252-3.121 5.706-.473.504 5.99z" fill="#002C9E"/><path d="M158.645 61.5l-3.09.252-.788-9.93 2.775-.221c1.891-.158 3.562 1.26 3.688 3.152l.284 3.405c.126 1.703-1.167 3.216-2.869 3.342z" fill="#002C9E"/><path d="M158.424 71.967l-10.151.82-.914-11.413c-.284-3.468 2.301-6.526 5.769-6.81 3.342-.283 6.337 2.144 6.778 5.486l1.135 8.701a2.838 2.838 0 0 1-2.617 3.216z" fill="#FF95A9"/><path d="M149.345 53.808l.851-.063.851 10.75-6.557.536-.41-5.044c-.221-3.152 2.112-5.927 5.265-6.179z" fill="#002C9E"/><path d="M147.737 65.82l1.702-.127-.126-1.702c-.063-.946-.914-1.64-1.86-1.577-.945.063-1.639.915-1.576 1.86.095.915.914 1.64 1.86 1.545z" fill="#FF95A9"/><path d="M160.663 58.253l-6.495.536c-2.648.221-4.981-1.765-5.202-4.413a2.295 2.295 0 0 1 2.113-2.46 2.294 2.294 0 0 1 2.459 2.113c0 .126.126.22.252.22l6.494-.535.379 4.54z" fill="#002C9E"/><path d="M158.078 56.172l-3.248.253a2.294 2.294 0 0 1-2.459-2.112 2.295 2.295 0 0 1 2.113-2.46l3.247-.252a2.294 2.294 0 0 1 2.459 2.113c.063 1.229-.851 2.364-2.112 2.459zM161.356 71.053c.158 1.292-.788 2.49-2.081 2.585l-4.539.378a4.611 4.611 0 0 1-4.95-4.193l-.441-5.36 1.702-.125a1.95 1.95 0 0 0 2.049 1.765l7.504-.599.756 5.549z" fill="#002C9E"/><path d="M155.889 100.147a2.522 2.522 0 1 0-1.416-4.842 2.522 2.522 0 0 0 1.416 4.842z" fill="#FF95A9"/><path d="M151.297 100.174a1.892 1.892 0 1 0-1.062-3.632 1.892 1.892 0 0 0 1.062 3.632z" fill="#FF95A9"/><path d="M155.177 100.245h-4.413l-.536-3.72 4.256-1.23.693 4.95z" fill="#FF95A9"/><path d="M126.773 91.702l24.369 4.792-.378 3.752h-24.811l.82-8.544z" fill="#FFC359"/><path d="M150.763 100.246l.379-3.752-1.64-.315v4.067h1.261z" fill="#FF95A9"/><path d="M139.351 92.017h-3.562v3.563h3.562v-3.563z" fill="#FFC359"/><path d="M133.533 92.72l-.122.62 16.027 3.138.121-.619-16.026-3.138z" fill="#fff"/><path d="M143.184 115.62l-.182.604 11.077 3.342.183-.604-11.078-3.342z" fill="#4F7BEB"/><path d="M45.657 57.402c-.914 4.287-2.49 8.417-3.72 12.642-1.261 4.35-2.554 8.764-2.554 13.272.032 5.895 2.364 11.728 6.4 16.015 1.576 1.671 3.436 3.153 4.666 5.107 1.23 1.955 1.67 4.635.315 6.495-1.955 2.679-6.18 2.112-9.048 3.783-3.625 2.112-4.13 7.503-2.05 11.128 2.082 3.626 11.445 14.061 24.843 11.507 5.99-1.166 14.124-6.872 13.903-12.957-.252-6.368-6.305-11.507-6.116-17.844.126-4.161 2.932-7.692 5.36-11.065 2.427-3.373 4.665-7.503 3.562-11.538-1.64-5.896-9.237-7.724-12.926-12.642-2.364-3.153-2.9-7.314-3.058-11.255-.157-3.94-.031-7.976-1.355-11.728-3.216-9.047-14.565-7.944-18.222 9.08z" fill="#C8D7FF"/><path d="M60.032 80.1h-.63v68.474h.63V80.1z" fill="#002C9E"/><path d="M60.032 99.898l-.63-.094c1.009-6.21 8.07-10.057 8.354-10.214l.284.567c-.032.032-7.03 3.846-8.008 9.742zM59.402 126.885c-.694-4.193-5.675-6.904-5.738-6.936l.284-.567c.22.126 5.328 2.9 6.053 7.408l-.6.095z" fill="#002C9E"/><path d="M63.217 160.586h-7.094c-4.319 0-7.787-3.5-7.787-7.787v-6.526h22.699v6.526c0 4.287-3.5 7.787-7.818 7.787z" fill="#FFC359"/><path d="M52.34 159.955c-2.68-1.419-4.35-4.161-4.35-7.188v-2.396h.63v2.396a7.45 7.45 0 0 0 4.004 6.62l-.284.568z" fill="#002C9E"/><path d="M71.035 148.291H48.336v.63h22.699v-.63z" fill="#fff"/><path d="M298.651 160.586H11.01v.63H298.65v-.63zM220.152 165.314H152.97v.631h67.182v-.631zM245.751 170.106h-42.119v.631h42.119v-.631zM185.946 170.106h-55.58v.631h55.58v-.631zM259.212 165.378h-20.113v.63h20.113v-.63zM142.378 165.314h-40.732v.631h40.732v-.631z" fill="#C8D7FF"/><path d="M71.035 145.926h-14.47v.631h14.47v-.631z" fill="#002C9E"/><path d="M204.988 14.18c.221-1.986.788-3.341 2.175-4.067 4.067-2.206 14.313 1.388 18.537 6.904 5.927 7.724.536 19.578-5.233 20.335-6.683.882-16.614-12.926-15.479-23.172z" fill="#F7FAFF"/><path d="M159.843 67.08c.095.946-.631 1.797-1.576 1.892-.946.094-1.797-.63-1.892-1.576l3.468-.316zM228.442 138.801a6.084 6.084 0 1 0 0-12.169 6.084 6.084 0 0 0 0 12.169z" fill="#fff"/><path d="M228.443 139.117a6.405 6.405 0 0 1-6.4-6.4c0-3.531 2.869-6.4 6.4-6.4s6.4 2.869 6.4 6.4c-.032 3.531-2.901 6.4-6.4 6.4zm0-12.169a5.772 5.772 0 0 0-5.769 5.769 5.772 5.772 0 0 0 5.769 5.769 5.772 5.772 0 0 0 5.769-5.769c-.031-3.184-2.616-5.769-5.769-5.769z" fill="#002C9E"/><path d="M220.655 139.179a4.382 4.382 0 1 0 0-8.764 4.382 4.382 0 0 0 0 8.764z" fill="#fff"/><path d="M220.656 139.495a4.709 4.709 0 0 1-4.697-4.697 4.71 4.71 0 0 1 4.697-4.698 4.71 4.71 0 0 1 4.697 4.698 4.709 4.709 0 0 1-4.697 4.697zm0-8.764a4.077 4.077 0 0 0-4.067 4.067 4.077 4.077 0 0 0 4.067 4.066 4.077 4.077 0 0 0 4.067-4.066 4.077 4.077 0 0 0-4.067-4.067z" fill="#002C9E"/><path d="M236.451 133.347l-.41 3.185-.063.63-1.135 8.638-1.356 10.561-.158 1.041-.409 3.184h-17.749l-.41-3.184-.063-.631-1.009-7.661-1.545-11.948-.063-.63-.441-3.185h24.811z" fill="#96B0F4"/><path d="M232.068 78.65h-6.62v21.596h6.62V78.65z" fill="#FF809F"/><path d="M229.862 80.857h-2.207v8.733h2.207v-8.733z" fill="#fff"/><path d="M228.758 96.179a1.26 1.26 0 1 0 0-2.522 1.26 1.26 0 0 0 0 2.522z" fill="#002C9E"/><path d="M225.448 78.65h-6.62v21.596h6.62V78.65z" fill="#96B0F4"/><path d="M223.241 80.857h-2.207v8.733h2.207v-8.733z" fill="#fff"/><path d="M222.138 96.179a1.261 1.261 0 1 0 0-2.523 1.261 1.261 0 0 0 0 2.523z" fill="#002C9E"/><path d="M218.828 78.65h-6.621v21.596h6.621V78.65z" fill="#FFC359"/><path d="M216.621 80.857h-2.207v8.733h2.207v-8.733z" fill="#fff"/><path d="M215.517 96.179a1.26 1.26 0 1 0 0-2.522 1.26 1.26 0 0 0 0 2.522zM108.487 60.145c-8.322 0-15.069-6.747-15.069-15.07 0-8.322 6.747-15.069 15.069-15.069 8.323 0 15.07 6.747 15.07 15.07 0 8.29-6.747 15.069-15.07 15.069zm0-29.508c-7.976 0-14.438 6.462-14.438 14.438 0 7.976 6.462 14.44 14.438 14.44 7.976 0 14.439-6.464 14.439-14.44 0-7.976-6.463-14.438-14.439-14.438z" fill="#002C9E"/><path d="M108.486 57.685c6.965 0 12.611-5.646 12.611-12.61 0-6.965-5.646-12.61-12.611-12.61-6.964 0-12.61 5.645-12.61 12.61 0 6.964 5.646 12.61 12.61 12.61z" fill="#4F7BEB"/><path d="M108.487 58.001c-7.124 0-12.925-5.8-12.925-12.925 0-7.125 5.801-12.926 12.925-12.926 7.125 0 12.926 5.8 12.926 12.925 0 7.125-5.801 12.926-12.926 12.926zm0-25.22c-6.778 0-12.295 5.516-12.295 12.294 0 6.778 5.517 12.295 12.295 12.295s12.295-5.517 12.295-12.294c0-6.779-5.517-12.296-12.295-12.296z" fill="#fff"/><path d="M108.803 32.466h-.631v2.648h.631v-2.648zM108.803 55.038h-.631v2.648h.631v-2.648z" fill="#fff"/><path d="M102.181 34.135l1.324 2.302-1.324-2.302z" fill="#333854"/><path d="M102.458 34l-.546.316 1.324 2.293.546-.315L102.458 34z" fill="#fff"/><path d="M113.468 53.682l1.324 2.301-1.324-2.301z" fill="#333854"/><path d="M113.745 53.542l-.547.315 1.325 2.293.546-.315-1.324-2.293z" fill="#fff"/><path d="M97.579 38.769l2.301 1.324-2.301-1.324z" fill="#333854"/><path d="M97.738 38.51l-.315.545 2.293 1.324.315-.546-2.293-1.324z" fill="#fff"/><path d="M117.125 50.055l2.302 1.324-2.302-1.324z" fill="#333854"/><path d="M117.284 49.792l-.315.546 2.293 1.324.315-.546-2.293-1.324zM98.525 44.76h-2.648v.631h2.648v-.63zM121.098 44.76h-2.648v.63h2.648v-.63z" fill="#fff"/><path d="M97.579 51.38l2.301-1.325-2.301 1.325z" fill="#333854"/><path d="M99.712 49.79l-2.293 1.324.315.546 2.293-1.324-.315-.546z" fill="#fff"/><path d="M117.125 40.093l2.301-1.324-2.301 1.324z" fill="#333854"/><path d="M119.258 38.508l-2.294 1.323.315.546 2.294-1.323-.315-.547z" fill="#fff"/><path d="M102.182 55.983l1.324-2.301-1.324 2.301z" fill="#333854"/><path d="M103.247 53.545l-1.323 2.293.546.315 1.323-2.293-.546-.315z" fill="#fff"/><path d="M113.468 36.437l1.324-2.302-1.324 2.302z" fill="#333854"/><path d="M114.531 33.997l-1.324 2.294.546.315 1.324-2.294-.546-.315zM114.477 45.39h-6.305v-8.007h.631v7.377h5.674v.63z" fill="#fff"/><path d="M113.689 100.309h-4.571l-.63-9.71h5.832l-.631 9.71z" fill="#FF809F"/><path d="M114.004 84.292c0 1.577-1.293 2.9-2.901 2.9v-2.395a3.74 3.74 0 0 1-3.751-3.752 3.74 3.74 0 0 1 3.751-3.751v4.098a2.893 2.893 0 0 1 2.901 2.9z" fill="#fff"/><path d="M111.136 87.478h-.316v-2.396c-2.08-.158-3.751-1.923-3.751-4.067a4.076 4.076 0 0 1 4.067-4.067h.315v4.13c1.608.157 2.9 1.513 2.9 3.184-.031 1.797-1.481 3.216-3.215 3.216zm-.316-9.836c-1.734.157-3.121 1.639-3.121 3.404a3.445 3.445 0 0 0 3.437 3.437h.315v2.364c1.261-.157 2.27-1.23 2.27-2.553a2.597 2.597 0 0 0-2.585-2.586h-.316v-4.066z" fill="#002C9E"/><path d="M234.843 145.8l-1.356 10.561-.158 1.041-.409 3.184h-17.749l-.41-3.184-.063-.631-1.009-7.661 21.154-3.31z" fill="#C8D7FF"/><path d="M217.472 157.055l-.63.063-.032-.347-1.797-19.609-.031-.284.63-.063.032.347 1.828 19.609v.284zM219.123 136.815l-.629.035 1.114 20.241.63-.035-1.115-20.241zM222.608 136.837l-.631.011.368 20.267.63-.011-.367-20.267zM225.494 136.831l-.376 20.267.631.012.376-20.267-.631-.012zM228.996 136.846l-1.129 20.238.629.036 1.13-20.239-.63-.035zM233.14 136.878l-.031.284-1.829 19.609-.031.347-.631-.063.032-.284 1.828-19.609.032-.347.63.063z" fill="#fff"/><path d="M212.081 136.531l.063.631h23.834l.063-.631h-23.96zm21.343 20.24h-18.726l.094.631h18.569l.126-1.041-.063.41zM168.171 78.616l-1.003 21.603.629.029 1.004-21.603-.63-.029z" fill="#fff"/><path d="M132.1 103.083H89.887v.63H132.1v-.63zM222.516 103.083h-69.955v.63h69.955v-.63zM250.196 103.083h-18.128v.63h18.128v-.63zM228.853 103.083h-2.901v.63h2.901v-.63zM220.845 133.032h-9.205v.63h9.205v-.63zM240.171 160.586h-17.812v.63h17.812v-.63zM135.316 160.586h-38.84v.63h38.84v-.63zM74.503 160.586H59.969v.63h14.534v-.63zM218.071 160.586h-5.013v.63h5.013v-.63z" fill="#002C9E"/><path d="M168.702 36.564c-.41 0-.82-.032-1.23-.126-1.229-.221-2.144-1.325-2.144-2.586v-.44h.631v.44c0 .946.693 1.766 1.639 1.955a6.672 6.672 0 0 0 2.239 0c.945-.19 1.639-1.009 1.639-1.955 0-.882-.568-1.639-1.387-1.891l-2.901-.914a2.601 2.601 0 0 1-1.828-2.49c0-1.262.914-2.334 2.144-2.586a6.454 6.454 0 0 1 2.459 0c1.229.22 2.143 1.324 2.143 2.585v.441h-.63v-.44c0-.947-.694-1.766-1.639-1.955a6.672 6.672 0 0 0-2.239 0c-.946.189-1.639 1.008-1.639 1.954 0 .883.567 1.64 1.387 1.892l2.9.914a2.6 2.6 0 0 1 1.829 2.49c0 1.262-.914 2.333-2.144 2.586a7.367 7.367 0 0 1-1.229.126z" fill="#C8D7FF"/><path d="M169.017 24.268h-.631v1.923h.631v-1.923zM169.017 36.216h-.631v1.923h.631v-1.923z" fill="#C8D7FF"/><path d="M168.702 41.702c-5.801 0-10.53-4.729-10.53-10.53 0-5.8 4.729-10.53 10.53-10.53 5.8 0 10.529 4.73 10.529 10.53 0 5.801-4.729 10.53-10.529 10.53zm0-20.397c-5.454 0-9.899 4.445-9.899 9.899 0 5.454 4.445 9.899 9.899 9.899 5.454 0 9.899-4.445 9.899-9.9 0-5.453-4.445-9.898-9.899-9.898z" fill="#C8D7FF"/><path d="M289.666 48.133l-7.314 15.196-5.139-3.972 12.169-11.066s0-.031-.031-.031l-16.236 7.913-4.004-3.122 20.46-5.012c.063 0 .095.031.095.094z" fill="#fff"/><path d="M282.447 63.833l-5.738-4.445 10.876-9.9-14.502 7.094-4.665-3.625 21.09-5.17a.363.363 0 0 1 .379.126c.094.126.126.252.063.41l-7.503 15.51zm-4.729-4.508l4.508 3.53 6.526-13.555-11.034 10.025zm-7.882-6.116l3.342 2.585 13.997-6.841-17.339 4.256z" fill="#C8D7FF"/><path d="M289.382 48.26l-12.169 11.065-3.373 3.058c-.284.252-.694.063-.694-.315V56.14l16.236-7.881c0-.032.032 0 0 0z" fill="#fff"/><path d="M273.588 62.824c-.095 0-.189-.031-.284-.063a.712.712 0 0 1-.441-.662v-6.116l.189-.094 16.456-8.04.316.442-.19.22-15.542 14.124a.835.835 0 0 1-.504.19zm-.126-6.462v5.737c0 .063.031.095.063.095.031 0 .063.031.126-.032l13.966-12.705-14.155 6.905z" fill="#C8D7FF"/><path d="M269.647 65.031l-.347-.536c.82-.536 1.293-.851 1.293-.851l.378.505s-.473.346-1.324.882zM240.076 74.52v-.63c1.009 0 2.049-.032 3.089-.126l.063.63c-1.04.063-2.112.126-3.152.126zm-3.153-.126a33.813 33.813 0 0 1-3.121-.41l.095-.63c1.009.189 2.049.315 3.058.378l-.032.662zm9.426-.378l-.094-.63a57.292 57.292 0 0 0 3.058-.568l.126.63c-1.04.221-2.081.41-3.09.568zm-15.605-.725a33.463 33.463 0 0 1-2.995-1.009l.221-.599c.946.378 1.923.693 2.932.977l-.158.63zm21.753-.6l-.158-.598c.978-.284 1.986-.568 2.964-.914l.189.599c-1.009.315-2.018.63-2.995.914zm-27.617-1.67c-.945-.441-1.891-.883-2.837-1.261l.252-.568c.946.41 1.923.82 2.869 1.293l-.284.536zm33.575-.347l-.22-.599c.945-.378 1.923-.788 2.869-1.198l.252.568a72.7 72.7 0 0 1-2.901 1.23zm-39.312-2.049a64.007 64.007 0 0 0-2.932-.977l.189-.6c.977.316 1.986.631 2.963 1.01l-.22.567zm45.019-.536l-.284-.567c.914-.473 1.86-.946 2.743-1.45l.315.535c-.883.536-1.829 1.01-2.774 1.482zm-50.978-1.293a58.243 58.243 0 0 0-3.026-.662l.126-.63c1.009.19 2.049.41 3.058.662l-.158.63zm-21.469-.126l-.157-.599a29.574 29.574 0 0 1 3.089-.693l.126.63c-1.072.158-2.08.41-3.058.662zm15.385-.977a34.928 34.928 0 0 0-3.09-.252l.032-.63c1.04.062 2.081.125 3.121.252l-.063.63zm-9.3-.126l-.063-.63c1.04-.095 2.08-.158 3.152-.19v.63c-1.04.032-2.08.095-3.089.19zM187.365 68.31l-.315-.536c.031 0 .504-.284 1.481-.662l.221.599c-.883.315-1.356.599-1.387.599z" fill="#ECF1FF"/><path d="M209.086 56.992h-16.961v-11.79h16.961v11.79zm-16.362-.63h15.732v-10.53h-15.7v10.53h-.032z" fill="#C8D7FF"/><path d="M200.794 52.924l-8.575-7.156.41-.504 8.165 6.81 7.755-6.779.41.473-8.165 7.156z" fill="#C8D7FF"/><path d="M208.77 47.628a2.112 2.112 0 1 0 0-4.225 2.112 2.112 0 0 0 0 4.225z" fill="#fff"/><path d="M208.771 47.944a2.429 2.429 0 0 1-2.428-2.428 2.409 2.409 0 0 1 2.428-2.427 2.409 2.409 0 0 1 2.427 2.427 2.428 2.428 0 0 1-2.427 2.428zm0-4.225c-.977 0-1.797.788-1.797 1.797 0 1.01.788 1.797 1.797 1.797a1.776 1.776 0 0 0 1.797-1.797c0-1.008-.82-1.797-1.797-1.797zM264.918 82.623h-.63v1.765h.63v-1.765zM264.918 93.215h-.63v1.765h.63v-1.765zM261.775 83.258l-.546.315.882 1.53.547-.316-.883-1.529zM267.08 92.466l-.546.316.883 1.528.546-.315-.883-1.529zM259.4 85.447l-.316.546 1.529.883.315-.546-1.528-.883zM268.586 90.73l-.315.546 1.528.883.316-.546-1.529-.883zM260.189 88.487h-1.765v.63h1.765v-.63zM270.782 88.486h-1.765v.63h1.765v-.63zM260.613 90.744l-1.529.882.315.546 1.529-.882-.315-.546zM269.822 85.446l-1.529.882.315.546 1.529-.882-.315-.546zM262.129 92.463l-.882 1.53.546.314.882-1.529-.546-.315zM267.415 83.273l-.882 1.529.546.315.882-1.53-.546-.314zM136.608 4.502h-.63v1.765h.63V4.502zM136.608 15.126h-.63v1.765h.63v-1.765zM133.473 5.185l-.546.316.883 1.529.546-.316-.883-1.529zM138.763 14.367l-.546.315.883 1.529.546-.315-.883-1.53zM131.125 7.34l-.316.546 1.529.883.315-.546-1.528-.883zM140.288 12.645l-.315.546 1.529.882.315-.546-1.529-.882zM131.88 10.397h-1.766v.63h1.766v-.63zM142.504 10.397h-1.766v.63h1.766v-.63zM132.333 12.644l-1.529.883.315.546 1.529-.883-.315-.546zM141.514 7.354l-1.529.883.315.546 1.529-.883-.315-.546zM133.801 14.367l-.882 1.53.546.315.882-1.53-.546-.315zM139.115 5.194l-.882 1.529.546.315.882-1.53-.546-.314z" fill="#C8D7FF"/></svg>