<svg width="270" height="170" fill="none" xmlns="http://www.w3.org/2000/svg"><g clip-path="url(#clip0)"><path d="M254.211 159.623s26.599-17.33 10.68-33.537c-15.949-16.208-20.698-14.192-16.121-32.242 4.577-18.05 23.173-24.786 15.775-38.489-8.866-16.437-29.104-1.44-41.655 4.318-23.375 10.71-23.231-5.297-14.25-20.266 8.982-14.97 9.615-39.957-11.112-39.957-22.54 0-72.083 48.708-99.373 82.39-16.323 20.151-28.24 6.131-26.6-6.823 1.065-8.233 3.224-21.533-1.871-27.636-8.895-10.622-34.977 22.656-44.189 36.877-36.099 55.674 7.744 75.365 7.744 75.365h220.972zM52.843 23.92c1.008-2.332 1.325-4.088.605-5.557-2.13-4.346-12.983-5.037-19.95-.805-9.701 5.9-12.263 21.619-7.83 25.13 5.182 4.06 21.965-6.793 27.175-18.769z" fill="#F7FAFF"/><path d="M204.207 163.941h-82.073v.576h82.073v-.576zM220.069 168.345h-35.696v.576h35.696v-.576zM173.405 168.345h-65.319v.576h65.319v-.576zM68.648 168.345h-9.702v.576h9.702v-.576zM74.434 168.345h-2.936v.576h2.936v-.576zM230.864 164.027h-16.696v.576h16.696v-.576zM115.571 163.941H90.267v.576h25.304v-.576zM84.826 163.941H40.58v.576h44.246v-.576zM35.34 163.941h-7.743v.576h7.744v-.576z" fill="#96B0F4"/><path d="M192.778 23.373H86.985v136.25h105.793V23.373z" fill="#C5D5FF"/><path d="M192.778 108.41v51.213H86.985v-34.747l105.793-16.466z" fill="#96B0F4"/><path d="M187.039 153.86V29.125H92.761V153.86h94.278z" fill="#fff"/><path d="M168.396 63.387l-6.708-5.527 1.843-2.217 4.433 3.656 9.298-11.688 2.246 1.785-11.112 13.99z" fill="#FF95A9"/><path d="M94.509 67.407a3.915 3.915 0 1 0-2.78-7.32 3.915 3.915 0 0 0 2.78 7.32z" fill="#4F7BEB"/><path d="M155.384 55.845h-8.723v.575h8.723v-.575zM143.408 55.845h-26.139v.575h26.139v-.575zM155.413 60.076h-20.814v.576h20.814v-.576zM133.304 60.076h-1.209v.576h1.209v-.576zM129.101 60.076h-23.692v.576h23.692v-.576zM139.292 64.308h-33.883v.576h33.883v-.576z" fill="#002C9E"/><path d="M168.396 85.467l-6.708-5.527 1.843-2.217 4.433 3.656 9.298-11.716 2.246 1.784-11.112 14.02z" fill="#FF95A9"/><path d="M155.412 77.896h-38.143v.576h38.143v-.576zM114.275 77.896h-8.866v.576h8.866v-.576zM151.613 82.127h-46.204v.576h46.204v-.576zM123.171 86.36h-.95v.575h.95v-.576zM120.436 86.36h-15.027v.575h15.027v-.576z" fill="#002C9E"/><path d="M168.396 107.518l-6.708-5.527 1.843-2.217 4.433 3.656 9.298-11.716 2.246 1.785-11.112 14.019z" fill="#FF95A9"/><path d="M155.412 99.976h-50.003v.575h50.003v-.575zM155.413 104.179h-15.517v.575h15.517v-.575zM136.298 104.179h-30.889v.575h30.889v-.575zM148.302 108.41h-42.893v.576h42.893v-.576z" fill="#002C9E"/><path d="M166.294 64.596h-1.842v-3.109l1.842 3.11z" fill="#fff"/><path d="M166.294 64.884h-2.13v-3.397h.576v2.821h1.554v.576zM176.255 64.884h-8.579v-.576h8.003v-8.78h.576v9.356zM172.253 52.793h-.835v.576h.835v-.576z" fill="#4F7BEB"/><path d="M164.452 54.377V53.08h5.959l-5.959 1.295z" fill="#fff"/><path d="M164.74 54.376h-.576v-1.583h6.247v.576h-5.671v1.007zM169.576 86.935h-5.412V85.38h.576v.98h4.836v.575zM176.255 86.935h-5.614v-.576h5.038v-6.534h.576v7.11zM176.255 77.435h-.576v1.036h.576v-1.036zM164.74 84.287h-.576v-9.443h8.291v.576h-7.715v8.867zM176.254 108.986h-12.09v-5.585h.576v5.009h10.939v-2.015h.575v2.591z" fill="#4F7BEB"/><path d="M176.255 105.445h-.576v.95h.576v-.95zM176.255 100.551h-.576v3.628h.576v-3.628zM176.255 99.832h-.576v.719h.576v-.72zM171.764 96.895h-.835v.576h.835v-.576zM164.74 99.198h-.576v-2.303h5.786v.576h-5.21v1.727zM164.74 126.92h-.576v.778h.576v-.778zM176.254 131.037h-12.09v-2.216h.576v1.64h10.939v-1.41h.575v1.986zM176.255 121.307h-.576v6.391h.576v-6.391z" fill="#4F7BEB"/><path d="M168.396 129.569l-6.708-5.527 1.843-2.217 4.433 3.656 9.298-11.716 2.246 1.813-11.112 13.991z" fill="#FF95A9"/><path d="M151.613 122.027h-46.204v.575h46.204v-.575zM155.413 126.23h-36.445v.575h36.445v-.575zM116.463 126.23h-.979v.575h.979v-.575zM112.116 126.23h-6.707v.575h6.707v-.575zM123.171 130.461h-17.762v.576h17.762v-.576z" fill="#002C9E"/><path d="M96.543 61.861L86.523 43.437l-3.166 1.296 5.988 20.122 7.197-2.994z" fill="#4F7BEB"/><path d="M106.564 50.966L29.006 64.184l.725 4.257 77.559-13.218-.726-4.257z" fill="#FF9D45"/><path d="M105.842 46.705L28.284 59.923l.725 4.257 77.559-13.218-.726-4.257z" fill="#FFC359"/><path d="M105.126 42.473L27.567 55.69l.726 4.257 77.558-13.218-.725-4.256z" fill="#FFC359"/><path d="M21.2 56.774l-6.385 1.088 2.171 12.742 6.386-1.088L21.2 56.774z" fill="#FF809F"/><path d="M27.59 55.678l-6.386 1.088 2.171 12.742 6.386-1.089-2.172-12.741zM126.049 45.453l-20.928-2.994 2.188 12.752 18.74-9.758z" fill="#ECF1FF"/><path d="M187.021 153.578H92.743v.575h94.278v-.575z" fill="#002C9E"/><path d="M113.988 23.372v14.394h51.817V23.373h-15.92l-4.087-8.81h-11.803l-4.088 8.81h-15.919z" fill="#96B0F4"/><path d="M113.988 23.372V33.88l51.817-8.09v-2.418h-15.92l-4.087-8.808h-11.803l-4.088 8.808h-15.919zM263.336 159.623H8.943v.576h254.393v-.576zM206.683 65.43c-.835 3.916-2.274 7.687-3.397 11.545-1.152 3.972-2.332 8.003-2.332 12.12.029 5.382 2.159 10.708 5.844 14.623 1.439 1.526 3.138 2.879 4.26 4.664 1.123 1.784 1.526 4.231.288 5.93-1.785 2.447-5.642 1.928-8.262 3.454-3.31 1.929-3.771 6.852-1.871 10.162 1.9 3.311 10.45 12.839 22.685 10.508 5.469-1.066 12.896-6.276 12.695-11.832-.231-5.815-5.758-10.507-5.585-16.294.115-3.8 2.677-7.024 4.894-10.104 2.216-3.08 4.26-6.851 3.253-10.536-1.497-5.383-8.435-7.053-11.803-11.544-2.159-2.879-2.648-6.679-2.792-10.277-.144-3.598-.029-7.283-1.238-10.709-2.937-8.262-13.271-7.283-16.639 8.29z" fill="#96B0F4"/><path d="M219.839 86.158h-.576v62.526h.576V86.158z" fill="#002C9E"/><path d="M219.839 104.236l-.576-.086c.921-5.671 7.369-9.183 7.628-9.327l.26.518c-.029 0-6.449 3.512-7.312 8.895zM219.263 128.849c-.634-3.829-5.182-6.304-5.24-6.333l.26-.518c.201.115 4.865 2.648 5.527 6.765l-.547.086z" fill="#002C9E"/><path d="M222.746 159.623h-6.477a7.108 7.108 0 0 1-7.111-7.111v-5.959h20.727v5.959c-.028 3.944-3.224 7.111-7.139 7.111z" fill="#FFC359"/><path d="M212.814 159.076c-2.446-1.296-3.972-3.8-3.972-6.564v-2.188h.576v2.188a6.806 6.806 0 0 0 3.656 6.046l-.26.518z" fill="#002C9E"/><path d="M229.857 148.396H209.13v.576h20.727v-.576z" fill="#fff"/><path d="M229.856 146.237h-13.213v.575h13.213v-.575zM234.606 159.623h-14.854v.576h14.854v-.576z" fill="#002C9E"/><path d="M119.428 48.907l-12.119 6.304-.72-4.26 12.58-3.541.259 1.497z" fill="#C5D5FF"/><path d="M126.05 45.452l-6.622 3.455-.259-1.497 6.881-1.958z" fill="#E5659B"/><path d="M126.05 45.453l-6.881 1.957-.518-3.023 7.399 1.066z" fill="#FF809F"/><path d="M29.031 64.167l-6.385 1.088.726 4.257 6.385-1.088-.726-4.257z" fill="#C5D5FF"/><path d="M22.642 65.264l-6.385 1.088.726 4.257 6.385-1.088-.726-4.257z" fill="#E5659B"/><path d="M103.571 55.51L42.812 65.865l.097.567 60.758-10.354-.096-.568z" fill="#002C9E"/><path d="M39.35 66.487l-12.344 2.105.097.568 12.345-2.105-.097-.568zM16.744 70.929l-1.497-8.838.576-.115 1.41 8.29 8.694-1.467.087.547-9.27 1.583zM14.93 60.278l-.431-2.649 6.65-1.151.086.576-6.074 1.036.345 2.073-.575.115z" fill="#4F7BEB"/><path d="M56.615 159.623H29.957v.576h26.658v-.576zM151.613 159.623h-2.706v.576h2.706v-.576zM145.567 159.623H64.445v.576h81.122v-.576zM200.465 159.623H160.94v.576h39.525v-.576zM25.783 159.623H23.71v.576h2.073v-.576zM243.271 159.623h-5.613v.576h5.613v-.576z" fill="#002C9E"/><path d="M27.84 55.648l-.568.096 1.872 10.983.567-.097-1.871-10.982zM105.433 42.41l-.567.097 1.447 8.485.567-.097-1.447-8.485zM22.715 64.01l-.567.096.207 1.22.568-.096-.208-1.22zM21.99 59.647l-.568.096.561 3.292.568-.096-.561-3.292z" fill="#fff"/><path d="M193.066 141.947h-.575v13.473h.575v-13.473zM193.066 79.825h-.575v55.991h.575V79.824zM87.273 118.227h-.576v17.214h.576v-17.214zM87.273 114.312h-.576v1.18h.576v-1.18zM87.273 99.054h-.576v13.876h.576V99.054zM166.093 38.054h-27.492v-.576h26.916V23.373h.576v14.681zM135.463 37.478h-16.812v.576h16.812v-.576zM90.441 44.672l-12.94 2.206.096.567 12.94-2.205-.096-.568zM54.858 94.794l-14.623 61.403 4.692 1.238 17.531-60.626-7.6-2.015z" fill="#4F7BEB"/><path d="M42.595 159.162a2.418 2.418 0 1 0 .001-4.836 2.418 2.418 0 0 0 0 4.836z" fill="#4F7BEB"/><path d="M37.701 159.623h7.312v-2.879h-4.865l-2.792 1.526a.715.715 0 0 0-.374.633c0 .403.345.72.72.72z" fill="#002C9E"/><path d="M71.988 70.09a5.758 5.758 0 1 0-.461-11.506 5.758 5.758 0 0 0 .461 11.506zM43.512 80.265a3.915 3.915 0 1 0-4.074-6.687 3.915 3.915 0 0 0 4.074 6.687z" fill="#4F7BEB"/><path d="M59.378 69.749L43.66 80.199l-4.951-6.075 13.415-13.27 7.254 8.895z" fill="#4F7BEB"/><path d="M59.715 69.494a5.758 5.758 0 1 0-7.06-9.097 5.758 5.758 0 0 0 7.06 9.097z" fill="#4F7BEB"/><path d="M56.413 70.695a5.757 5.757 0 1 0-.461-11.506 5.757 5.757 0 0 0 .461 11.506zM77.524 64.44a5.757 5.757 0 1 0-11.513-.219 5.757 5.757 0 0 0 11.513.218zM58.687 99.63a3.915 3.915 0 1 0 0-7.83 3.915 3.915 0 0 0 0 7.83zM71.44 99.63a3.915 3.915 0 1 0 0-7.83 3.915 3.915 0 0 0 0 7.83z" fill="#4F7BEB"/><path d="M75.816 62.639l-.26 28.73-20.985.834-2.562-28.614a4.018 4.018 0 0 1 3.857-4.376l15.747-.633c2.303-.116 4.203 1.756 4.203 4.059z" fill="#4F7BEB"/><path d="M75.556 91.771l-.201 3.915v.202c-.115 2.101-1.842 3.742-3.915 3.742H58.716a3.904 3.904 0 0 1-3.915-3.742v-.202l-.202-3.915h20.958zM69.943 159.162a2.418 2.418 0 1 0 0-4.836 2.418 2.418 0 0 0 0 4.836z" fill="#4F7BEB"/><path d="M60.587 59.011l5.988 20.526 3.08-14.826-.23-6.045-8.838.345z" fill="#fff"/><path d="M69.425 58.666l.23 6.045-1.267 6.19-1.813 8.636-2.476-8.464-3.512-12.062 8.838-.345z" fill="#fff"/><path d="M74.175 120.098l1.209-24.383h-7.86V156.744h4.866l1.785-36.272c-.029-.115 0-.259 0-.374z" fill="#4F7BEB"/><path d="M65.47 102.271c5.799-.233 10.31-5.122 10.078-10.92-.232-5.799-5.121-10.31-10.92-10.078-5.798.233-10.31 5.122-10.078 10.92.233 5.799 5.122 10.311 10.92 10.078z" fill="#4F7BEB"/><path d="M68.388 70.9l-1.813 8.637-2.476-8.464 1.41-10.881.577-.03L68.388 70.9zM74.808 159.623h-7.312v-2.879h4.865l2.792 1.526c.23.115.375.374.375.633 0 .403-.317.72-.72.72z" fill="#002C9E"/><path d="M67.452 50.925l-7.19.289.312 7.795 7.19-.289-.312-7.795z" fill="#FF95A9"/><path d="M71.411 44.646l-1.036.115-.835-7.024 1.036-.115c1.93-.23 3.685 1.152 3.944 3.08a3.538 3.538 0 0 1-3.109 3.944zM63.696 52.304l-2.59.316a2.6 2.6 0 0 1-2.908-2.274l-.346-2.85 5.182-.633.662 5.44z" fill="#002C9E"/><path d="M70.692 44.56l-2.822.346-1.094-9.01 2.534-.317a3.12 3.12 0 0 1 3.483 2.734l.374 3.08c.202 1.555-.92 2.966-2.475 3.167z" fill="#002C9E"/><path d="M70.893 54.117l-9.212 1.123-1.267-10.392c-.374-3.167 1.872-6.017 5.038-6.42 3.052-.374 5.844 1.728 6.362 4.75l1.353 7.888a2.676 2.676 0 0 1-2.274 3.051z" fill="#FF95A9"/><path d="M61.94 37.853l.777-.087 1.18 9.788-5.958.72-.547-4.578a5.207 5.207 0 0 1 4.548-5.843z" fill="#002C9E"/><path d="M60.904 48.907l1.554-.202-.201-1.554a1.603 1.603 0 0 0-1.756-1.382 1.603 1.603 0 0 0-1.382 1.756 1.649 1.649 0 0 0 1.785 1.382z" fill="#FF95A9"/><path d="M72.419 41.509l-5.93.72a4.404 4.404 0 0 1-4.894-3.858 2.1 2.1 0 0 1 1.813-2.332 2.1 2.1 0 0 1 2.332 1.814c.029.115.115.201.23.201l5.93-.72.519 4.175z" fill="#002C9E"/><path d="M69.972 39.695l-2.937.345a2.1 2.1 0 0 1-2.331-1.813 2.1 2.1 0 0 1 1.813-2.332l2.937-.346a2.1 2.1 0 0 1 2.331 1.814 2.08 2.08 0 0 1-1.813 2.332zM73.513 53.167a2.087 2.087 0 0 1-1.814 2.419l-4.117.489c-2.303.288-4.375-1.353-4.663-3.656l-.576-4.865 1.555-.202c.115.95.978 1.641 1.928 1.526l6.823-.835.864 5.124z" fill="#002C9E"/><path d="M72.016 49.598c.115.863-.49 1.67-1.382 1.785A1.589 1.589 0 0 1 68.849 50l3.167-.403z" fill="#fff"/><path d="M61.343 96.617a2.303 2.303 0 1 0-4.557-.669 2.303 2.303 0 0 0 4.557.669z" fill="#FF95A9"/><path d="M56.873 95.393a1.727 1.727 0 1 0-3.418-.501 1.727 1.727 0 0 0 3.418.501z" fill="#FF95A9"/><path d="M58.083 98.364l-3.656-1.67.978-3.282 3.973.605-1.295 4.347z" fill="#FF95A9"/><path d="M53.88 96.29l2.735-2.072L44.84 74.873l-6.247 4.692 13.328 14.596 1.152 1.266.806.864z" fill="#4F7BEB"/><path d="M53.88 96.29l2.734-2.072-1.698-2.792-2.994 2.734 1.152 1.267.806.864z" fill="#fff"/><path d="M53.88 96.29l2.735-2.072-.778-1.295-2.735 2.504.778.864z" fill="#FF95A9"/><path d="M72.102 58.58l21.245 1.237.202 7.83-21.13 2.39-.317-11.458z" fill="#4F7BEB"/><path d="M85.427 45.914a1.727 1.727 0 1 0-.802-3.36 1.727 1.727 0 0 0 .802 3.36z" fill="#FF95A9"/><path d="M81.761 47.976a2.303 2.303 0 1 0-1.068-4.48 2.303 2.303 0 0 0 1.068 4.48z" fill="#FF95A9"/><path d="M82.38 47.755l3.482-2.015-1.237-3.166-3.915.92 1.67 4.261z" fill="#FF95A9"/><path d="M139.896 22.221a2.447 2.447 0 1 0 0-4.893 2.447 2.447 0 0 0 0 4.893z" fill="#fff"/><path d="M142.516 20.61l-.547-.174c.057-.201.115-.431.115-.662a2.156 2.156 0 0 0-2.159-2.159c-.835 0-1.583.46-1.958 1.21l-.518-.26c.461-.95 1.411-1.526 2.476-1.526a2.734 2.734 0 0 1 2.735 2.735c-.029.288-.058.576-.144.835zM139.896 22.538a2.734 2.734 0 0 1-2.735-2.735v-.086h.576v.057c0 1.21.979 2.16 2.159 2.16.23 0 .461-.03.662-.116l.173.547a2.066 2.066 0 0 1-.835.173z" fill="#4F7BEB"/><path d="M67.784 146.985h-.576v5.355h.576v-5.355zM67.784 124.243h-.576v20.785h.576v-20.785z" fill="#002C9E"/><path d="M53.563 100.263l-4.174 17.474 4.174-17.474z" fill="#fff"/><path d="M53.272 100.178l-4.158 17.474.56.134 4.159-17.475-.56-.133z" fill="#002C9E"/><path d="M49.13 118.803l-.46 1.957.46-1.957z" fill="#fff"/><path d="M48.86 118.761l-.466 1.961.56.133.467-1.96-.56-.134z" fill="#002C9E"/><path d="M41.53 150.785l-.518 2.131.518-2.131z" fill="#fff"/><path d="M41.219 150.746l-.507 2.128.56.133.507-2.128-.56-.133z" fill="#002C9E"/><path d="M42.883 144.999l-1.123 4.663 1.123-4.663z" fill="#fff"/><path d="M42.606 144.924l-1.113 4.677.56.133 1.113-4.677-.56-.133z" fill="#002C9E"/><path d="M50.31 75.766l4.98-3.311-4.98 3.31z" fill="#fff"/><path d="M55.157 72.219l-4.986 3.315.319.48 4.986-3.316-.319-.48z" fill="#002C9E"/><path d="M47.604 77.58l1.44-.95-1.44.95z" fill="#fff"/><path d="M48.887 76.371l-1.439.956.319.48 1.438-.956-.318-.48z" fill="#002C9E"/><path d="M80.076 69.173l11.515-1.295-11.515 1.295z" fill="#fff"/><path d="M91.518 67.606l-11.499 1.306.065.572 11.498-1.305-.064-.573z" fill="#002C9E"/><path d="M76.507 69.576l2.072-.23-2.072.23z" fill="#fff"/><path d="M78.543 69.052l-2.06.234.065.573 2.06-.234-.065-.573z" fill="#002C9E"/><path d="M52.959 73.952l.777 8.751-.777-8.751z" fill="#fff"/><path d="M53.226 73.914l-.574.051.782 8.745.573-.051-.781-8.745z" fill="#002C9E"/><path d="M53.937 84.747l.087 1.066-.087-1.066z" fill="#fff"/><path d="M54.203 84.722l-.573.051.095 1.061.573-.051-.095-1.06z" fill="#002C9E"/><path d="M164.74 123.408h-.576v-4.462h7.168v.576h-6.592v3.886z" fill="#4F7BEB"/><path d="M2.696 94.017a2.58 2.58 0 0 1-2.591-2.591 2.58 2.58 0 0 1 2.59-2.591 2.58 2.58 0 0 1 2.592 2.59 2.58 2.58 0 0 1-2.591 2.592zm0-4.606A2.003 2.003 0 0 0 .68 91.426c0 1.123.892 2.015 2.015 2.015a2.003 2.003 0 0 0 2.015-2.015 2.003 2.003 0 0 0-2.015-2.015zM233.369 24.323h-.576v2.475h.576v-2.475zM233.369 39.12h-.576v2.475h.576v-2.476zM229.005 25.364l-.499.288 1.238 2.144.499-.288-1.238-2.143zM236.404 38.155l-.498.288 1.238 2.144.498-.288-1.238-2.144zM225.759 28.39l-.288.499 2.144 1.238.288-.499-2.144-1.238zM238.571 35.812l-.288.498 2.144 1.238.288-.498-2.144-1.238zM226.92 32.67h-2.475v.577h2.475v-.576zM241.717 32.67h-2.476v.577h2.476v-.576zM227.601 35.812l-2.145 1.237.288.499 2.144-1.238-.287-.498zM240.44 28.404l-2.144 1.238.288.498 2.144-1.238-.288-.498zM229.74 38.154l-1.238 2.145.499.288 1.238-2.145-.499-.288zM237.129 25.332l-1.237 2.144.498.288 1.238-2.144-.499-.288zM103.912 11.282h-.576a4.042 4.042 0 0 0-4.03-4.03v-.576a4.042 4.042 0 0 0 4.03-4.03h.576a4.042 4.042 0 0 0 4.03 4.03v.575a4.042 4.042 0 0 0-4.03 4.03zm-3.023-4.318a4.645 4.645 0 0 1 2.706 2.706 4.648 4.648 0 0 1 2.706-2.706 4.648 4.648 0 0 1-2.706-2.706c-.431 1.237-1.439 2.245-2.706 2.706z" fill="#96B0F4"/><path d="M114.275 23.373h-.575v14.911h.575V23.373z" fill="#fff"/></g><defs><clipPath id="clip0"><path fill="#fff" d="M0 0h270v169.17H0z"/></clipPath></defs></svg>